#N canvas 817 174 867 517 10;
#X obj 203 25 notein;
#X floatatom 167 56 5 0 0 0 - - -, f 5;
#X floatatom 210 55 5 0 0 0 - - -, f 5;
#X floatatom 253 55 5 0 0 0 - - -, f 5;
#X obj 158 84 spigot;
#X floatatom 158 109 5 0 0 0 - - -, f 5;
#X obj 16 420 outlet;
#X obj 119 424 outlet;
#X obj 230 427 outlet;
#X obj 335 428 outlet;
#X obj 436 429 outlet;
#X obj 538 433 outlet;
#X obj 637 435 outlet;
#X obj 735 433 outlet;
#X obj 48 172 bng 15 250 50 0 empty empty empty 17 7 0 10 -262144 -1
-1;
#X obj 140 166 bng 15 250 50 0 empty empty empty 17 7 0 10 -262144
-1 -1;
#X obj 186 173 bng 15 250 50 0 empty empty empty 17 7 0 10 -262144
-1 -1;
#X obj 248 173 bng 15 250 50 0 empty empty empty 17 7 0 10 -262144
-1 -1;
#X obj 326 173 bng 15 250 50 0 empty empty empty 17 7 0 10 -262144
-1 -1;
#X obj 416 173 bng 15 250 50 0 empty empty empty 17 7 0 10 -262144
-1 -1;
#X obj 500 173 bng 15 250 50 0 empty empty empty 17 7 0 10 -262144
-1 -1;
#X obj 592 173 bng 15 250 50 0 empty empty empty 17 7 0 10 -262144
-1 -1;
#X obj 16 337 tgl 15 0 empty empty empty 17 7 0 10 -262144 -1 -1 1
1;
#X obj 119 337 tgl 15 0 empty empty empty 17 7 0 10 -262144 -1 -1 0
1;
#X obj 230 337 tgl 15 0 empty empty empty 17 7 0 10 -262144 -1 -1 0
1;
#X obj 332 337 tgl 15 0 empty empty empty 17 7 0 10 -262144 -1 -1 0
1;
#X obj 436 337 tgl 15 0 empty empty empty 17 7 0 10 -262144 -1 -1 0
1;
#X obj 538 337 tgl 15 0 empty empty empty 17 7 0 10 -262144 -1 -1 0
1;
#X obj 637 337 tgl 15 0 empty empty empty 17 7 0 10 -262144 -1 -1 0
1;
#X obj 735 337 tgl 15 0 empty empty empty 17 7 0 10 -262144 -1 -1 0
1;
#X obj 49 196 delay 100;
#X obj 125 196 delay 100;
#X obj 186 196 delay 100;
#X obj 248 196 delay 100;
#X obj 326 196 delay 100;
#X obj 416 196 delay 100;
#X obj 500 196 delay 100;
#X obj 592 196 delay 100;
#X obj 214 100 sel 82 83 84 85 86 87 88 89 98, f 56;
#X obj 593 84 sel 1 2 3 4 5 6 7 8, f 43;
#X obj 593 56 spigot;
#X obj 593 6 sel 1 2 3;
#X msg 593 31 0;
#X msg 626 31 1;
#X text 659 58 to work with 1-8 LPD8;
#X text 215 83 to work with v-btns AKAI min;
#X msg 53 388 82;
#X msg 262 390 84;
#X msg 365 393 85;
#X msg 469 395 86;
#X msg 563 395 87;
#X msg 660 398 88;
#X msg 767 401 89;
#X obj 63 420 noteout;
#X floatatom 82 363 5 0 0 0 - - -, f 5;
#X obj 167 425 noteout;
#X floatatom 183 363 5 0 0 0 - - -, f 5;
#X msg 159 389 83;
#X floatatom 291 363 5 0 0 0 - - -, f 5;
#X obj 278 428 noteout;
#X floatatom 393 363 5 0 0 0 - - -, f 5;
#X obj 379 428 noteout;
#X obj 485 433 noteout;
#X floatatom 498 363 5 0 0 0 - - -, f 5;
#X floatatom 592 363 5 0 0 0 - - -, f 5;
#X obj 584 434 noteout;
#X floatatom 681 363 5 0 0 0 - - -, f 5;
#X obj 684 437 noteout;
#X obj 782 435 noteout;
#X floatatom 793 363 5 0 0 0 - - -, f 5;
#X msg 781 173 0;
#X text 602 466 TODO - visual feedback not working;
#X obj 456 366 bng 15 250 50 0 empty empty empty 17 7 0 10 -262144
-1 -1;
#X obj 351 366 bng 15 250 50 0 empty empty empty 17 7 0 10 -262144
-1 -1;
#X obj 141 368 bng 15 250 50 0 empty empty empty 17 7 0 10 -262144
-1 -1;
#X obj 36 365 bng 15 250 50 0 empty empty empty 17 7 0 10 -262144 -1
-1;
#X obj 246 367 bng 15 250 50 0 empty empty empty 17 7 0 10 -262144
-1 -1;
#X obj 555 368 bng 15 250 50 0 empty empty empty 17 7 0 10 -262144
-1 -1;
#X obj 652 368 bng 15 250 50 0 empty empty empty 17 7 0 10 -262144
-1 -1;
#X obj 755 367 bng 15 250 50 0 empty empty empty 17 7 0 10 -262144
-1 -1;
#X connect 0 0 1 0;
#X connect 0 1 2 0;
#X connect 0 2 3 0;
#X connect 1 0 4 0;
#X connect 2 0 4 1;
#X connect 4 0 5 0;
#X connect 5 0 38 0;
#X connect 14 0 30 0;
#X connect 14 0 70 0;
#X connect 15 0 31 0;
#X connect 15 0 70 0;
#X connect 16 0 32 0;
#X connect 16 0 70 0;
#X connect 17 0 33 0;
#X connect 17 0 70 0;
#X connect 18 0 34 0;
#X connect 18 0 70 0;
#X connect 19 0 35 0;
#X connect 19 0 70 0;
#X connect 20 0 36 0;
#X connect 20 0 70 0;
#X connect 21 0 37 0;
#X connect 21 0 70 0;
#X connect 22 0 6 0;
#X connect 22 0 54 0;
#X connect 22 0 75 0;
#X connect 23 0 7 0;
#X connect 23 0 56 0;
#X connect 23 0 74 0;
#X connect 24 0 8 0;
#X connect 24 0 58 0;
#X connect 24 0 76 0;
#X connect 25 0 9 0;
#X connect 25 0 60 0;
#X connect 25 0 73 0;
#X connect 26 0 10 0;
#X connect 26 0 63 0;
#X connect 26 0 72 0;
#X connect 27 0 11 0;
#X connect 27 0 64 0;
#X connect 27 0 77 0;
#X connect 28 0 12 0;
#X connect 28 0 66 0;
#X connect 28 0 78 0;
#X connect 29 0 13 0;
#X connect 29 0 69 0;
#X connect 29 0 79 0;
#X connect 30 0 22 0;
#X connect 31 0 23 0;
#X connect 32 0 24 0;
#X connect 33 0 25 0;
#X connect 34 0 26 0;
#X connect 35 0 27 0;
#X connect 36 0 28 0;
#X connect 37 0 29 0;
#X connect 38 0 14 0;
#X connect 38 1 15 0;
#X connect 38 2 16 0;
#X connect 38 3 17 0;
#X connect 38 4 18 0;
#X connect 38 5 19 0;
#X connect 38 6 20 0;
#X connect 38 7 21 0;
#X connect 38 8 70 0;
#X connect 39 0 14 0;
#X connect 39 1 15 0;
#X connect 39 2 16 0;
#X connect 39 3 17 0;
#X connect 39 4 18 0;
#X connect 39 5 19 0;
#X connect 39 6 20 0;
#X connect 39 7 21 0;
#X connect 40 0 39 0;
#X connect 41 0 42 0;
#X connect 41 1 43 0;
#X connect 41 2 43 0;
#X connect 42 0 40 1;
#X connect 43 0 40 1;
#X connect 46 0 53 0;
#X connect 47 0 59 0;
#X connect 48 0 61 0;
#X connect 49 0 62 0;
#X connect 50 0 65 0;
#X connect 51 0 67 0;
#X connect 52 0 68 0;
#X connect 54 0 53 1;
#X connect 56 0 55 1;
#X connect 57 0 55 0;
#X connect 58 0 59 1;
#X connect 60 0 61 1;
#X connect 63 0 62 1;
#X connect 64 0 65 1;
#X connect 66 0 67 1;
#X connect 69 0 68 1;
#X connect 70 0 29 0;
#X connect 70 0 28 0;
#X connect 70 0 27 0;
#X connect 70 0 26 0;
#X connect 70 0 25 0;
#X connect 70 0 24 0;
#X connect 70 0 23 0;
#X connect 70 0 22 0;
#X connect 72 0 49 0;
#X connect 73 0 48 0;
#X connect 74 0 57 0;
#X connect 75 0 46 0;
#X connect 76 0 47 0;
#X connect 77 0 50 0;
#X connect 78 0 51 0;
#X connect 79 0 52 0;
