#N canvas 458 469 766 449 10;
#X obj 56 61 inlet;
#X obj 56 82 tgl 15 0 empty empty empty 17 7 0 10 -262144 -1 -1 1 1
;
#X text 54 43 bank on;
#X text 125 45 footswitch;
#X obj 124 64 footswitch, f 26;
#X obj 166 96 tgl 15 0 empty empty empty 17 7 0 10 -262144 -1 -1 0
1;
#X obj 193 96 tgl 15 0 empty empty empty 17 7 0 10 -262144 -1 -1 0
1;
#X obj 221 96 tgl 15 0 empty empty empty 17 7 0 10 -262144 -1 -1 0
1;
#X obj 250 96 tgl 15 0 empty empty empty 17 7 0 10 -262144 -1 -1 0
1;
#X obj 277 96 tgl 15 0 empty empty empty 17 7 0 10 -262144 -1 -1 0
1;
#X obj 304 96 tgl 15 0 empty empty empty 17 7 0 10 -262144 -1 -1 0
1;
#X floatatom 21 395 5 0 0 0 - - -, f 5;
#X floatatom 146 391 5 0 0 0 - - -, f 5;
#X obj 37 113 tgl 15 0 empty empty empty 17 7 0 10 -262144 -1 -1 0
1;
#X obj 106 111 tgl 15 0 empty empty empty 17 7 0 10 -262144 -1 -1 0
1;
#X floatatom 66 394 5 0 0 0 - - -, f 5;
#X floatatom 191 391 5 0 0 0 - - -, f 5;
#X obj 363 67 tgl 15 0 empty empty empty 17 7 0 10 -262144 -1 -1 1
1;
#X text 383 67 bank-on;
#N canvas 858 332 752 542 drums0101 0;
#X obj 82 100 inlet;
#X text 82 83 name;
#X obj 82 121 symbol;
#X obj 82 142 pack s;
#X msg 22 255 \; \$1d101 1 \; \$1d102 1 \; \$1d103 1 \; \$1d104 1 \;
\$1d105 1 \; \$1d106 1 \; \$1d107 1 \; \$1d108 0 \; \$1d109 1 \; \$1d110
1 \; \$1d111 1 \; \$1d112 1 \; \$1d113 1 \; \$1d114 1 \; \$1d115 1
\; \$1d116 0 \;;
#X msg 128 254 \; \$1d201 0 \; \$1d202 0 \; \$1d203 4 \; \$1d204 0
\; \$1d205 0 \; \$1d206 0 \; \$1d207 4 \; \$1d208 4 \; \$1d209 0 \;
\$1d210 0 \; \$1d211 4 \; \$1d212 0 \; \$1d213 0 \; \$1d214 0 \; \$1d215
0 \; \$1d216 0 \;;
#X msg 227 254 \; \$1d401 9 \; \$1d402 9 \; \$1d403 9 \; \$1d404 0
\; \$1d405 0 \; \$1d406 0 \; \$1d407 0 \; \$1d408 8 \; \$1d409 0 \;
\$1d410 0 \; \$1d411 0 \; \$1d412 0 \; \$1d413 0 \; \$1d414 0 \; \$1d415
0 \; \$1d416 0 \;;
#X connect 0 0 2 0;
#X connect 2 0 3 0;
#X connect 3 0 6 0;
#X connect 3 0 4 0;
#X connect 3 0 5 0;
#X restore 52 345 pd drums0101;
#X obj 51 294 bng 15 250 50 0 empty empty empty 17 7 0 10 -262144 -1
-1;
#X msg 52 317 d0101;
#X obj 21 369 drums 0 d0101, f 17;
#X obj 146 370 drums 1 d0102;
#X obj 153 293 bng 15 250 50 0 empty empty empty 17 7 0 10 -262144
-1 -1;
#X msg 154 316 d0102;
#N canvas 1143 190 752 542 drums0102 0;
#X obj 82 100 inlet;
#X text 82 83 name;
#X obj 82 121 symbol;
#X obj 82 142 pack s;
#X msg 227 254 \; \$1d401 1 \; \$1d402 0 \; \$1d403 1 \; \$1d404 0
\; \$1d405 1 \; \$1d406 0 \; \$1d407 0 \; \$1d408 0 \; \$1d409 0 \;
\$1d410 0 \; \$1d411 0 \; \$1d412 0 \; \$1d413 0 \; \$1d414 0 \; \$1d415
0 \; \$1d416 0 \;;
#X msg 22 255 \; \$1d101 0 \; \$1d102 0 \; \$1d103 4 \; \$1d104 4 \;
\$1d105 0 \; \$1d106 0 \; \$1d107 4 \; \$1d108 4 \; \$1d109 0 \; \$1d110
0 \; \$1d111 8 \; \$1d112 8 \; \$1d113 0 \; \$1d114 0 \; \$1d115 0
\; \$1d116 0 \;;
#X msg 128 254 \; \$1d201 0 \; \$1d202 0 \; \$1d203 0 \; \$1d204 0
\; \$1d205 0 \; \$1d206 0 \; \$1d207 0 \; \$1d208 0 \; \$1d209 0 \;
\$1d210 0 \; \$1d211 0 \; \$1d212 0 \; \$1d213 8 \; \$1d214 8 \; \$1d215
9 \; \$1d216 0 \;;
#X connect 0 0 2 0;
#X connect 2 0 3 0;
#X connect 3 0 4 0;
#X connect 3 0 5 0;
#X connect 3 0 6 0;
#X restore 154 344 pd drums0102;
#N canvas -3 435 450 494 drumburst0103 0;
#X obj 82 100 inlet;
#X text 82 83 name;
#X obj 82 121 symbol;
#X obj 82 142 pack s;
#X msg 82 168 \; \$1d401 0 \; \$1d402 0 \; \$1d403 0 \; \$1d404 0 \;
\$1d405 4 \; \$1d406 5 \; \$1d407 4 \; \$1d408 0 \; \$1d409 9 \; \$1d410
9 \; \$1d411 9 \; \$1d412 0 \; \$1d413 8 \; \$1d414 0 \; \$1d415 0
\; \$1d416 0 \;;
#X connect 0 0 2 0;
#X connect 2 0 3 0;
#X connect 3 0 4 0;
#X restore 252 345 pd drumburst0103;
#X obj 252 300 bng 15 250 50 0 empty empty empty 17 7 0 10 -262144
-1 -1;
#X msg 252 320 db0103;
#X obj 251 371 drum-burst 3 db0103;
#X obj 290 156 g-loop loop0101 4;
#X obj 408 156 g-loop loop0102 5;
#X obj 519 156 g-loop loop0103 6;
#X obj 634 155 g-loop loop0104 7;
#X connect 0 0 1 0;
#X connect 1 0 4 0;
#X connect 4 0 13 0;
#X connect 4 1 14 0;
#X connect 4 2 5 0;
#X connect 4 3 6 0;
#X connect 4 4 7 0;
#X connect 4 5 8 0;
#X connect 4 6 9 0;
#X connect 4 7 10 0;
#X connect 4 8 17 0;
#X connect 5 0 30 0;
#X connect 7 0 31 0;
#X connect 8 0 32 0;
#X connect 9 0 33 0;
#X connect 10 0 34 0;
#X connect 13 0 22 0;
#X connect 14 0 23 0;
#X connect 17 0 20 0;
#X connect 17 0 22 2;
#X connect 17 0 23 2;
#X connect 17 0 24 0;
#X connect 17 0 28 0;
#X connect 17 0 30 2;
#X connect 17 0 31 1;
#X connect 17 0 32 1;
#X connect 17 0 33 1;
#X connect 17 0 34 1;
#X connect 20 0 21 0;
#X connect 21 0 19 0;
#X connect 22 0 11 0;
#X connect 22 1 15 0;
#X connect 23 0 12 0;
#X connect 23 1 16 0;
#X connect 24 0 25 0;
#X connect 25 0 26 0;
#X connect 28 0 29 0;
#X connect 29 0 27 0;
