#N canvas 664 297 766 449 10;
#X obj 56 61 inlet;
#X obj 56 82 tgl 15 0 empty empty empty 17 7 0 10 -262144 -1 -1 0 1
;
#X text 54 43 bank on;
#X text 125 45 footswitch;
#X obj 124 64 footswitch, f 26;
#X obj 216 112 tgl 15 0 empty empty empty 17 7 0 10 -262144 -1 -1 0
1;
#X obj 311 106 tgl 15 0 empty empty empty 17 7 0 10 -262144 -1 -1 0
1;
#X floatatom 31 245 5 0 0 0 - - -, f 5;
#X floatatom 156 241 5 0 0 0 - - -, f 5;
#X obj 37 113 tgl 15 0 empty empty empty 17 7 0 10 -262144 -1 -1 0
1;
#X obj 106 111 tgl 15 0 empty empty empty 17 7 0 10 -262144 -1 -1 0
1;
#X floatatom 76 244 5 0 0 0 - - -, f 5;
#X floatatom 201 241 5 0 0 0 - - -, f 5;
#X obj 363 67 tgl 15 0 empty empty empty 17 7 0 10 -262144 -1 -1 0
1;
#X text 383 67 bank-on;
#N canvas 858 332 752 542 drums0101 0;
#X obj 82 100 inlet;
#X text 82 83 name;
#X obj 82 121 symbol;
#X obj 82 142 pack s;
#X msg 128 254 \; \$1d201 0 \; \$1d202 0 \; \$1d203 0 \; \$1d204 0
\; \$1d205 0 \; \$1d206 0 \; \$1d207 0 \; \$1d208 0 \; \$1d209 0 \;
\$1d210 0 \; \$1d211 0 \; \$1d212 0 \; \$1d213 0 \; \$1d214 0 \; \$1d215
0 \; \$1d216 0 \;;
#X msg 22 255 \; \$1d101 0 \; \$1d102 0 \; \$1d103 0 \; \$1d104 0 \;
\$1d105 0 \; \$1d106 0 \; \$1d107 0 \; \$1d108 0 \; \$1d109 0 \; \$1d110
0 \; \$1d111 0 \; \$1d112 0 \; \$1d113 0 \; \$1d114 0 \; \$1d115 0
\; \$1d116 11 \;;
#X msg 227 254 \; \$1d401 9 \; \$1d402 0 \; \$1d403 0 \; \$1d404 0
\; \$1d405 9 \; \$1d406 0 \; \$1d407 0 \; \$1d408 0 \; \$1d409 9 \;
\$1d410 0 \; \$1d411 0 \; \$1d412 0 \; \$1d413 0 \; \$1d414 0 \; \$1d415
0 \; \$1d416 0 \;;
#X connect 0 0 2 0;
#X connect 2 0 3 0;
#X connect 3 0 6 0;
#X connect 3 0 5 0;
#X connect 3 0 4 0;
#X restore 62 195 pd drums0101;
#X obj 61 144 bng 15 250 50 0 empty empty empty 17 7 0 10 -262144 -1
-1;
#X msg 62 167 d0101;
#X obj 31 219 drums 0 d0101, f 17;
#X obj 156 220 drums 1 d0102;
#X obj 163 143 bng 15 250 50 0 empty empty empty 17 7 0 10 -262144
-1 -1;
#X msg 164 166 d0102;
#N canvas 105 348 376 542 drums0102 0;
#X obj 82 100 inlet;
#X text 82 83 name;
#X obj 82 121 symbol;
#X obj 82 142 pack s;
#X msg 22 255 \; \$1d101 0 \; \$1d102 0 \; \$1d103 0 \; \$1d104 0 \;
\$1d105 0 \; \$1d106 0 \; \$1d107 0 \; \$1d108 0 \; \$1d109 0 \; \$1d110
0 \; \$1d111 0 \; \$1d112 0 \; \$1d113 9 \; \$1d114 9 \; \$1d115 10
\; \$1d116 0 \;;
#X msg 128 254 \; \$1d201 3 \; \$1d202 0 \; \$1d203 3 \; \$1d204 0
\; \$1d205 3 \; \$1d206 0 \; \$1d207 3 \; \$1d208 0 \; \$1d209 3 \;
\$1d210 0 \; \$1d211 3 \; \$1d212 0 \; \$1d213 3 \; \$1d214 0 \; \$1d215
4 \; \$1d216 4 \;;
#X msg 227 254 \; \$1d401 0 \; \$1d402 0 \; \$1d403 9 \; \$1d404 0
\; \$1d405 0 \; \$1d406 9 \; \$1d407 9 \; \$1d408 0 \; \$1d409 0 \;
\$1d410 0 \; \$1d411 0 \; \$1d412 0 \; \$1d413 0 \; \$1d414 0 \; \$1d415
0 \; \$1d416 0 \;;
#X connect 0 0 2 0;
#X connect 2 0 3 0;
#X connect 3 0 4 0;
#X connect 3 0 5 0;
#X connect 3 0 6 0;
#X restore 164 194 pd drums0102;
#X obj 262 150 bng 15 250 50 0 empty empty empty 17 7 0 10 -262144
-1 -1;
#N canvas 1303 413 450 494 drums0103 0;
#X obj 82 100 inlet;
#X text 82 83 name;
#X obj 82 121 symbol;
#X obj 82 142 pack s;
#X msg 227 254 \; \$1d401 0 \; \$1d402 0 \; \$1d403 0 \; \$1d404 0
\; \$1d405 0 \; \$1d406 0 \; \$1d407 0 \; \$1d408 9 \; \$1d409 0 \;
\$1d410 0 \; \$1d411 0 \; \$1d412 0 \; \$1d413 0 \; \$1d414 0 \; \$1d415
0 \; \$1d416 0 \;;
#X msg 22 255 \; \$1d101 3 \; \$1d102 0 \; \$1d103 3 \; \$1d104 1 \;
\$1d105 3 \; \$1d106 4 \; \$1d107 1 \; \$1d108 0 \; \$1d109 3 \; \$1d110
3 \; \$1d111 3 \; \$1d112 4 \; \$1d113 3 \; \$1d114 4 \; \$1d115 3
\; \$1d116 0 \;;
#X msg 128 254 \; \$1d201 0 \; \$1d202 4 \; \$1d203 9 \; \$1d204 0
\; \$1d205 0 \; \$1d206 0 \; \$1d207 9 \; \$1d208 0 \; \$1d209 0 \;
\$1d210 0 \; \$1d211 0 \; \$1d212 0 \; \$1d213 9 \; \$1d214 9 \; \$1d215
9 \; \$1d216 12 \;;
#X connect 0 0 2 0;
#X connect 2 0 3 0;
#X connect 3 0 5 0;
#X connect 3 0 6 0;
#X connect 3 0 4 0;
#X restore 262 195 pd drums0103;
#X msg 262 170 d0103;
#X floatatom 261 242 5 0 0 0 - - -, f 5;
#X floatatom 313 243 5 0 0 0 - - -, f 5;
#X obj 391 156 bng 15 250 50 0 empty empty empty 17 7 0 10 -262144
-1 -1;
#X msg 391 176 d0104;
#N canvas 1621 340 286 428 drumburst0104 0;
#X obj 65 43 inlet;
#X text 65 26 name;
#X obj 65 64 symbol;
#X obj 65 85 pack s;
#X msg 65 111 \; \$1d401 0 \; \$1d402 9 \; \$1d403 0 \; \$1d404 9 \;
\$1d405 0 \; \$1d406 9 \; \$1d407 0 \; \$1d408 9 \; \$1d409 0 \; \$1d410
9 \; \$1d411 9 \; \$1d412 9 \; \$1d413 4 \; \$1d414 1 \; \$1d415 4
\; \$1d416 1 \;;
#X connect 0 0 2 0;
#X connect 2 0 3 0;
#X connect 3 0 4 0;
#X restore 389 199 pd drumburst0104;
#X obj 261 221 drums 2 d0103;
#X obj 390 223 drum-burst 3 d0104;
#X connect 0 0 1 0;
#X connect 1 0 4 0;
#X connect 4 0 9 0;
#X connect 4 1 10 0;
#X connect 4 2 5 0;
#X connect 4 3 6 0;
#X connect 4 8 13 0;
#X connect 5 0 31 0;
#X connect 6 0 32 0;
#X connect 9 0 18 0;
#X connect 10 0 19 0;
#X connect 13 0 16 0;
#X connect 13 0 20 0;
#X connect 13 0 23 0;
#X connect 13 0 28 0;
#X connect 13 0 32 2;
#X connect 13 0 31 1;
#X connect 13 0 19 1;
#X connect 13 0 18 1;
#X connect 16 0 17 0;
#X connect 17 0 15 0;
#X connect 18 0 7 0;
#X connect 18 1 11 0;
#X connect 19 0 8 0;
#X connect 19 1 12 0;
#X connect 20 0 21 0;
#X connect 21 0 22 0;
#X connect 23 0 25 0;
#X connect 25 0 24 0;
#X connect 28 0 29 0;
#X connect 29 0 30 0;
#X connect 31 0 26 0;
#X connect 31 1 27 0;
