#N canvas 1161 486 706 449 10;
#X obj 56 61 inlet;
#X obj 56 82 tgl 15 0 empty empty empty 17 7 0 10 -262144 -1 -1 1 1
;
#X text 54 43 bank on;
#X text 125 45 footswitch;
#X obj 124 64 footswitch, f 26;
#X obj 166 96 tgl 15 0 empty empty empty 17 7 0 10 -262144 -1 -1 0
1;
#X obj 193 96 tgl 15 0 empty empty empty 17 7 0 10 -262144 -1 -1 0
1;
#X obj 221 96 tgl 15 0 empty empty empty 17 7 0 10 -262144 -1 -1 0
1;
#X obj 250 96 tgl 15 0 empty empty empty 17 7 0 10 -262144 -1 -1 0
1;
#X obj 277 96 tgl 15 0 empty empty empty 17 7 0 10 -262144 -1 -1 0
1;
#X obj 304 96 tgl 15 0 empty empty empty 17 7 0 10 -262144 -1 -1 0
1;
#X floatatom 21 395 5 0 0 0 - - -, f 5;
#X floatatom 161 398 5 0 0 0 - - -, f 5;
#X obj 161 377 drums_01;
#X obj 58 114 tgl 15 0 empty empty empty 17 7 0 10 -262144 -1 -1 0
1;
#X obj 118 114 tgl 15 0 empty empty empty 17 7 0 10 -262144 -1 -1 1
1;
#X msg 58 137 0;
#X msg 117 137 0;
#X obj 58 160 spigot;
#X obj 118 160 spigot;
#X obj 293 154 loop loop0101;
#X floatatom 66 394 5 0 0 0 - - -, f 5;
#X floatatom 206 398 5 0 0 0 - - -, f 5;
#X obj 21 369 drums_00;
#X floatatom 268 397 5 0 0 0 - - -, f 5;
#X floatatom 313 397 5 0 0 0 - - -, f 5;
#X obj 268 376 drums_02;
#X text 162 428 bpm;
#X obj 382 154 loop loop0102;
#X obj 475 154 loop loop0103;
#X obj 575 154 loop loop0104;
#X connect 0 0 1 0;
#X connect 1 0 4 0;
#X connect 4 0 14 0;
#X connect 4 1 15 0;
#X connect 4 2 5 0;
#X connect 4 3 6 0;
#X connect 4 4 7 0;
#X connect 4 5 8 0;
#X connect 4 6 9 0;
#X connect 4 7 10 0;
#X connect 7 0 20 0;
#X connect 8 0 28 0;
#X connect 9 0 29 0;
#X connect 10 0 30 0;
#X connect 13 0 12 0;
#X connect 13 1 22 0;
#X connect 14 0 16 0;
#X connect 14 0 19 1;
#X connect 14 0 23 0;
#X connect 15 0 17 0;
#X connect 15 0 18 1;
#X connect 15 0 13 0;
#X connect 16 0 18 0;
#X connect 17 0 19 0;
#X connect 18 0 15 0;
#X connect 19 0 14 0;
#X connect 23 0 11 0;
#X connect 23 1 21 0;
#X connect 26 0 24 0;
#X connect 26 1 25 0;
