#N canvas 1166 526 706 449 10;
#X obj 56 61 inlet;
#X obj 56 82 tgl 15 0 empty empty empty 17 7 0 10 -262144 -1 -1 1 1
;
#X text 54 43 bank on;
#X text 125 45 footswitch;
#X obj 124 64 footswitch, f 26;
#X obj 166 96 tgl 15 0 empty empty empty 17 7 0 10 -262144 -1 -1 0
1;
#X obj 193 96 tgl 15 0 empty empty empty 17 7 0 10 -262144 -1 -1 0
1;
#X obj 221 96 tgl 15 0 empty empty empty 17 7 0 10 -262144 -1 -1 0
1;
#X obj 250 96 tgl 15 0 empty empty empty 17 7 0 10 -262144 -1 -1 0
1;
#X obj 277 96 tgl 15 0 empty empty empty 17 7 0 10 -262144 -1 -1 0
1;
#X obj 304 96 tgl 15 0 empty empty empty 17 7 0 10 -262144 -1 -1 0
1;
#X floatatom 21 395 5 0 0 0 - - -, f 5;
#X obj 73 326 loadbang;
#X msg 72 352 100;
#X floatatom 104 397 5 0 0 0 - - -, f 5;
#X obj 156 328 loadbang;
#X obj 104 376 drums_01;
#X msg 155 354 100;
#X obj 21 374 drums_00;
#X obj 58 114 tgl 15 0 empty empty empty 17 7 0 10 -262144 -1 -1 0
1;
#X obj 118 114 tgl 15 0 empty empty empty 17 7 0 10 -262144 -1 -1 0
1;
#X msg 58 137 0;
#X msg 117 137 0;
#X obj 58 159 spigot;
#X obj 118 160 spigot;
#X obj 103 418 sel 0;
#X obj 174 160 loop01;
#X obj 219 159 loop02;
#X obj 270 159 loop03;
#X obj 319 160 loop04;
#X connect 0 0 1 0;
#X connect 1 0 4 0;
#X connect 4 0 19 0;
#X connect 4 1 20 0;
#X connect 4 2 5 0;
#X connect 4 3 6 0;
#X connect 4 4 7 0;
#X connect 4 5 8 0;
#X connect 4 6 9 0;
#X connect 4 7 10 0;
#X connect 5 0 26 0;
#X connect 6 0 27 0;
#X connect 7 0 28 0;
#X connect 8 0 29 0;
#X connect 11 0 25 0;
#X connect 12 0 13 0;
#X connect 13 0 18 2;
#X connect 14 0 25 0;
#X connect 15 0 17 0;
#X connect 16 0 14 0;
#X connect 17 0 16 2;
#X connect 18 0 11 0;
#X connect 19 0 21 0;
#X connect 19 0 24 1;
#X connect 19 0 18 0;
#X connect 20 0 22 0;
#X connect 20 0 23 1;
#X connect 20 0 16 0;
#X connect 21 0 23 0;
#X connect 22 0 24 0;
#X connect 23 0 20 0;
#X connect 24 0 19 0;
#X connect 25 0 26 1;
#X connect 25 0 27 1;
#X connect 25 0 28 1;
#X connect 25 0 29 1;
