#N canvas 87 299 766 449 10;
#X obj 56 61 inlet;
#X obj 56 82 tgl 15 0 empty empty empty 17 7 0 10 -262144 -1 -1 1 1
;
#X text 54 43 bank on;
#X text 125 45 footswitch;
#X obj 124 64 footswitch, f 26;
#X obj 166 96 tgl 15 0 empty empty empty 17 7 0 10 -262144 -1 -1 0
1;
#X obj 193 96 tgl 15 0 empty empty empty 17 7 0 10 -262144 -1 -1 0
1;
#X obj 221 96 tgl 15 0 empty empty empty 17 7 0 10 -262144 -1 -1 0
1;
#X obj 250 96 tgl 15 0 empty empty empty 17 7 0 10 -262144 -1 -1 0
1;
#X obj 277 96 tgl 15 0 empty empty empty 17 7 0 10 -262144 -1 -1 0
1;
#X obj 304 96 tgl 15 0 empty empty empty 17 7 0 10 -262144 -1 -1 0
1;
#X floatatom 21 395 5 0 0 0 - - -, f 5;
#X floatatom 146 391 5 0 0 0 - - -, f 5;
#X obj 37 113 tgl 15 0 empty empty empty 17 7 0 10 -262144 -1 -1 0
1;
#X obj 106 111 tgl 15 0 empty empty empty 17 7 0 10 -262144 -1 -1 0
1;
#X floatatom 66 394 5 0 0 0 - - -, f 5;
#X floatatom 191 391 5 0 0 0 - - -, f 5;
#X obj 363 67 tgl 15 0 empty empty empty 17 7 0 10 -262144 -1 -1 1
1;
#X text 383 67 bank-on;
#X obj 51 294 bng 15 250 50 0 empty empty empty 17 7 0 10 -262144 -1
-1;
#X obj 153 293 bng 15 250 50 0 empty empty empty 17 7 0 10 -262144
-1 -1;
#X obj 252 300 bng 15 250 50 0 empty empty empty 17 7 0 10 -262144
-1 -1;
#X floatatom 251 392 5 0 0 0 - - -, f 5;
#X floatatom 303 393 5 0 0 0 - - -, f 5;
#X obj 381 306 bng 15 250 50 0 empty empty empty 17 7 0 10 -262144
-1 -1;
#N canvas 858 332 752 542 drums0201 1;
#X obj 82 100 inlet;
#X text 82 83 name;
#X obj 82 121 symbol;
#X obj 82 142 pack s;
#X msg 22 255 \; \$1d101 3 \; \$1d102 3 \; \$1d103 3 \; \$1d104 3 \;
\$1d105 3 \; \$1d106 3 \; \$1d107 3 \; \$1d108 0 \; \$1d109 3 \; \$1d110
3 \; \$1d111 3 \; \$1d112 0 \; \$1d113 3 \; \$1d114 0 \; \$1d115 3
\; \$1d116 0 \;;
#X msg 128 254 \; \$1d201 0 \; \$1d202 0 \; \$1d203 0 \; \$1d204 0
\; \$1d205 4 \; \$1d206 0 \; \$1d207 0 \; \$1d208 0 \; \$1d209 4 \;
\$1d210 0 \; \$1d211 0 \; \$1d212 0 \; \$1d213 4 \; \$1d214 0 \; \$1d215
0 \; \$1d216 0 \;;
#X msg 227 254 \; \$1d401 12 \; \$1d402 0 \; \$1d403 12 \; \$1d404
0 \; \$1d405 0 \; \$1d406 0 \; \$1d407 9 \; \$1d408 0 \; \$1d409 0
\; \$1d410 0 \; \$1d411 0 \; \$1d412 0 \; \$1d413 0 \; \$1d414 0 \;
\$1d415 0 \; \$1d416 0 \;;
#X connect 0 0 2 0;
#X connect 2 0 3 0;
#X connect 3 0 6 0;
#X connect 3 0 4 0;
#X connect 3 0 5 0;
#X restore 52 345 pd drums0201;
#X msg 52 317 d0201;
#X msg 154 316 d0202;
#N canvas 1143 190 752 542 drums0202 1;
#X obj 82 100 inlet;
#X text 82 83 name;
#X obj 82 121 symbol;
#X obj 82 142 pack s;
#X msg 22 255 \; \$1d101 2 \; \$1d102 11 \; \$1d103 2 \; \$1d104 11
\; \$1d105 1 \; \$1d106 11 \; \$1d107 1 \; \$1d108 1 \; \$1d109 11
\; \$1d110 11 \; \$1d111 11 \; \$1d112 0 \; \$1d113 1 \; \$1d114 4
\; \$1d115 0 \; \$1d116 4 \;;
#X msg 227 254 \; \$1d401 0 \; \$1d402 0 \; \$1d403 0 \; \$1d404 0
\; \$1d405 0 \; \$1d406 0 \; \$1d407 0 \; \$1d408 0 \; \$1d409 0 \;
\$1d410 0 \; \$1d411 0 \; \$1d412 0 \; \$1d413 0 \; \$1d414 0 \; \$1d415
0 \; \$1d416 0 \;;
#X msg 128 254 \; \$1d201 0 \; \$1d202 0 \; \$1d203 4 \; \$1d204 0
\; \$1d205 0 \; \$1d206 0 \; \$1d207 0 \; \$1d208 0 \; \$1d209 0 \;
\$1d210 0 \; \$1d211 4 \; \$1d212 0 \; \$1d213 0 \; \$1d214 0 \; \$1d215
0 \; \$1d216 0 \;;
#X connect 0 0 2 0;
#X connect 2 0 3 0;
#X connect 3 0 4 0;
#X connect 3 0 6 0;
#X connect 3 0 5 0;
#X restore 154 344 pd drums0202;
#X obj 146 370 drums 1 d0202;
#X msg 252 320 d0203;
#N canvas 1303 413 450 494 drums0203 1;
#X obj 82 100 inlet;
#X text 82 83 name;
#X obj 82 121 symbol;
#X obj 82 142 pack s;
#X msg 22 255 \; \$1d101 0 \; \$1d102 0 \; \$1d103 0 \; \$1d104 0 \;
\$1d105 0 \; \$1d106 0 \; \$1d107 0 \; \$1d108 0 \; \$1d109 0 \; \$1d110
0 \; \$1d111 0 \; \$1d112 0 \; \$1d113 0 \; \$1d114 0 \; \$1d115 0
\; \$1d116 0 \;;
#X msg 227 254 \; \$1d401 1 \; \$1d402 0 \; \$1d403 0 \; \$1d404 0
\; \$1d405 1 \; \$1d406 0 \; \$1d407 0 \; \$1d408 0 \; \$1d409 1 \;
\$1d410 0 \; \$1d411 0 \; \$1d412 0 \; \$1d413 1 \; \$1d414 0 \; \$1d415
0 \; \$1d416 0 \;;
#X msg 128 254 \; \$1d201 0 \; \$1d202 5 \; \$1d203 0 \; \$1d204 0
\; \$1d205 0 \; \$1d206 5 \; \$1d207 0 \; \$1d208 0 \; \$1d209 0 \;
\$1d210 5 \; \$1d211 0 \; \$1d212 0 \; \$1d213 5 \; \$1d214 0 \; \$1d215
0 \; \$1d216 0 \;;
#X connect 0 0 2 0;
#X connect 2 0 3 0;
#X connect 3 0 4 0;
#X connect 3 0 6 0;
#X connect 3 0 5 0;
#X restore 252 345 pd drums0203;
#X msg 381 326 d0204;
#N canvas 1621 340 286 428 drumburst0204 1;
#X obj 65 43 inlet;
#X text 65 26 name;
#X obj 65 64 symbol;
#X obj 65 85 pack s;
#X msg 65 111 \; \$1d401 9 \; \$1d402 9 \; \$1d403 0 \; \$1d404 9 \;
\$1d405 12 \; \$1d406 0 \; \$1d407 0 \; \$1d408 0 \; \$1d409 4 \; \$1d410
8 \; \$1d411 8 \; \$1d412 9 \; \$1d413 8 \; \$1d414 8 \; \$1d415 8
\; \$1d416 0 \;;
#X connect 0 0 2 0;
#X connect 2 0 3 0;
#X connect 3 0 4 0;
#X restore 379 349 pd drumburst0204;
#X obj 290 156 g-loop loop0201 4;
#X obj 408 156 g-loop loop0202 5;
#X obj 519 156 g-loop loop0203 6;
#X obj 634 155 g-loop loop0204 7;
#X obj 380 373 drum-burst 3 d0204;
#X obj 21 369 drums 0 d0201, f 17;
#X obj 251 371 drums 2 d0203;
#X connect 0 0 1 0;
#X connect 1 0 4 0;
#X connect 4 0 13 0;
#X connect 4 1 14 0;
#X connect 4 2 5 0;
#X connect 4 3 6 0;
#X connect 4 4 7 0;
#X connect 4 5 8 0;
#X connect 4 6 9 0;
#X connect 4 7 10 0;
#X connect 4 8 17 0;
#X connect 5 0 40 0;
#X connect 6 0 38 0;
#X connect 7 0 34 0;
#X connect 8 0 35 0;
#X connect 9 0 36 0;
#X connect 10 0 37 0;
#X connect 13 0 39 0;
#X connect 14 0 29 0;
#X connect 17 0 19 0;
#X connect 17 0 20 0;
#X connect 17 0 21 0;
#X connect 17 0 24 0;
#X connect 17 0 29 2;
#X connect 17 0 34 1;
#X connect 17 0 35 1;
#X connect 17 0 36 1;
#X connect 17 0 37 1;
#X connect 17 0 38 2;
#X connect 17 0 39 2;
#X connect 17 0 40 2;
#X connect 19 0 26 0;
#X connect 20 0 27 0;
#X connect 21 0 30 0;
#X connect 24 0 32 0;
#X connect 26 0 25 0;
#X connect 27 0 28 0;
#X connect 29 0 12 0;
#X connect 29 1 16 0;
#X connect 30 0 31 0;
#X connect 32 0 33 0;
#X connect 39 0 11 0;
#X connect 39 1 15 0;
#X connect 40 0 22 0;
#X connect 40 1 23 0;
