#N canvas 1120 473 706 449 10;
#X obj 56 61 inlet;
#X obj 56 82 tgl 15 0 empty empty empty 17 7 0 10 -262144 -1 -1 1 1
;
#X text 54 43 bank on;
#X text 125 45 footswitch;
#X obj 124 64 footswitch, f 26;
#X obj 166 96 tgl 15 0 empty empty empty 17 7 0 10 -262144 -1 -1 0
1;
#X obj 193 96 tgl 15 0 empty empty empty 17 7 0 10 -262144 -1 -1 0
1;
#X obj 221 96 tgl 15 0 empty empty empty 17 7 0 10 -262144 -1 -1 0
1;
#X obj 250 96 tgl 15 0 empty empty empty 17 7 0 10 -262144 -1 -1 0
1;
#X obj 277 96 tgl 15 0 empty empty empty 17 7 0 10 -262144 -1 -1 0
1;
#X obj 304 96 tgl 15 0 empty empty empty 17 7 0 10 -262144 -1 -1 0
1;
#X floatatom 21 395 5 0 0 0 - - -, f 5;
#X obj 73 326 loadbang;
#X msg 72 352 100;
#X floatatom 161 398 5 0 0 0 - - -, f 5;
#X obj 213 329 loadbang;
#X obj 161 377 drums_01;
#X msg 212 355 100;
#X obj 21 374 drums_00;
#X obj 58 114 tgl 15 0 empty empty empty 17 7 0 10 -262144 -1 -1 0
1;
#X obj 118 114 tgl 15 0 empty empty empty 17 7 0 10 -262144 -1 -1 0
1;
#X msg 58 137 0;
#X msg 117 137 0;
#X obj 58 159 spigot;
#X obj 118 160 spigot;
#X obj 593 399 sel 0;
#X obj 514 409 outlet;
#X text 512 362 progress;
#X floatatom 515 384 5 0 0 0 - - -, f 5;
#X obj 229 160 loop loop0101;
#X obj 318 159 loop loop0102;
#X obj 411 158 loop loop0103;
#X obj 511 156 loop loop0104;
#X floatatom 61 396 5 0 0 0 - - -, f 5;
#X floatatom 203 399 5 0 0 0 - - -, f 5;
#X floatatom 513 335 5 0 0 0 - - -, f 5;
#X text 514 316 progress fine;
#X connect 0 0 1 0;
#X connect 1 0 4 0;
#X connect 4 0 19 0;
#X connect 4 1 20 0;
#X connect 4 2 5 0;
#X connect 4 3 6 0;
#X connect 4 4 7 0;
#X connect 4 5 8 0;
#X connect 4 6 9 0;
#X connect 4 7 10 0;
#X connect 7 0 29 0;
#X connect 8 0 30 0;
#X connect 9 0 31 0;
#X connect 10 0 32 0;
#X connect 11 0 28 0;
#X connect 12 0 13 0;
#X connect 13 0 18 2;
#X connect 14 0 28 0;
#X connect 15 0 17 0;
#X connect 16 0 14 0;
#X connect 16 1 34 0;
#X connect 17 0 16 2;
#X connect 18 0 11 0;
#X connect 18 1 33 0;
#X connect 19 0 21 0;
#X connect 19 0 24 1;
#X connect 19 0 18 0;
#X connect 20 0 22 0;
#X connect 20 0 23 1;
#X connect 20 0 16 0;
#X connect 21 0 23 0;
#X connect 22 0 24 0;
#X connect 23 0 20 0;
#X connect 24 0 19 0;
#X connect 25 0 29 2;
#X connect 25 0 30 2;
#X connect 25 0 31 2;
#X connect 25 0 32 2;
#X connect 28 0 26 0;
#X connect 28 0 25 0;
#X connect 33 0 35 0;
#X connect 34 0 35 0;
#X connect 35 0 29 1;
#X connect 35 0 30 1;
#X connect 35 0 31 1;
#X connect 35 0 32 1;
