#N canvas 21 492 706 449 10;
#X obj 56 61 inlet;
#X obj 56 82 tgl 15 0 empty empty empty 17 7 0 10 -262144 -1 -1 1 1
;
#X text 54 43 bank on;
#X text 125 45 footswitch;
#X obj 124 64 footswitch, f 26;
#X obj 166 96 tgl 15 0 empty empty empty 17 7 0 10 -262144 -1 -1 0
1;
#X obj 193 96 tgl 15 0 empty empty empty 17 7 0 10 -262144 -1 -1 0
1;
#X obj 221 96 tgl 15 0 empty empty empty 17 7 0 10 -262144 -1 -1 0
1;
#X obj 250 96 tgl 15 0 empty empty empty 17 7 0 10 -262144 -1 -1 0
1;
#X obj 277 96 tgl 15 0 empty empty empty 17 7 0 10 -262144 -1 -1 0
1;
#X obj 304 96 tgl 15 0 empty empty empty 17 7 0 10 -262144 -1 -1 0
1;
#X floatatom 21 395 5 0 0 0 - - -, f 5;
#X floatatom 161 398 5 0 0 0 - - -, f 5;
#X obj 58 114 tgl 15 0 empty empty empty 17 7 0 10 -262144 -1 -1 0
1;
#X obj 118 114 tgl 15 0 empty empty empty 17 7 0 10 -262144 -1 -1 0
1;
#X msg 58 137 0;
#X msg 117 137 0;
#X obj 58 160 spigot;
#X obj 118 160 spigot;
#X floatatom 66 394 5 0 0 0 - - -, f 5;
#X floatatom 206 398 5 0 0 0 - - -, f 5;
#X text 162 428 bpm;
#X obj 290 156 loop loop0101 4;
#X obj 21 369 drums_00 0;
#X obj 363 67 tgl 15 0 empty empty empty 17 7 0 10 -262144 -1 -1 1
1;
#X text 383 67 bank-on;
#X obj 390 156 loop loop0102 5;
#X obj 487 156 loop loop0103 6;
#X obj 588 156 loop loop0104 7;
#X obj 161 377 drums_01 1;
#X connect 0 0 1 0;
#X connect 1 0 4 0;
#X connect 4 0 13 0;
#X connect 4 1 14 0;
#X connect 4 2 5 0;
#X connect 4 3 6 0;
#X connect 4 4 7 0;
#X connect 4 5 8 0;
#X connect 4 6 9 0;
#X connect 4 7 10 0;
#X connect 4 8 24 0;
#X connect 7 0 22 0;
#X connect 8 0 26 0;
#X connect 9 0 27 0;
#X connect 10 0 28 0;
#X connect 13 0 15 0;
#X connect 13 0 18 1;
#X connect 13 0 23 0;
#X connect 14 0 16 0;
#X connect 14 0 17 1;
#X connect 14 0 29 0;
#X connect 15 0 17 0;
#X connect 16 0 18 0;
#X connect 17 0 14 0;
#X connect 18 0 13 0;
#X connect 22 0 7 0;
#X connect 23 0 11 0;
#X connect 23 1 19 0;
#X connect 24 0 23 2;
#X connect 24 0 29 2;
#X connect 24 0 22 1;
#X connect 24 0 26 1;
#X connect 24 0 27 1;
#X connect 24 0 28 1;
#X connect 26 0 8 0;
#X connect 27 0 9 0;
#X connect 28 0 10 0;
#X connect 29 0 12 0;
#X connect 29 1 20 0;
