#N canvas 1114 99 851 445 10;
#X obj 88 71 tgl 15 0 empty empty empty 17 7 0 10 -262144 -1 -1 1 1
;
#X obj 44 226 f;
#X obj 77 226 + 1;
#X obj 114 226 mod 16;
#X obj 176 226 f;
#X obj 209 226 + 1;
#X obj 246 226 mod 16;
#X msg 52 72 0;
#X obj 302 226 f;
#X obj 335 226 + 1;
#X obj 372 226 mod 16;
#X obj 284 32 loadbang;
#X msg 284 52 100;
#X obj 284 72 expr 1000/($f1/60);
#X floatatom 284 92 5 0 0 0 - - -, f 5;
#X obj 321 126 / 2;
#X obj 355 126 / 4;
#X floatatom 321 146 5 0 0 0 - - -, f 5;
#X floatatom 355 146 5 0 0 0 - - -, f 5;
#X obj 301 190 metro;
#X obj 176 190 metro;
#X obj 43 190 metro;
#X obj 89 37 loadbang;
#X floatatom 44 247 5 0 0 0 - - -, f 5;
#X floatatom 176 247 5 0 0 0 - - -, f 5;
#X floatatom 302 247 5 0 0 0 - - -, f 5;
#X obj 231 32 inlet;
#X text 228 14 bpm;
#X obj 44 273 s bpm1;
#X obj 176 273 s bpm2;
#X obj 302 273 s bpm4;
#X obj 146 298 metro-out;
#X obj 515 31 notein;
#X floatatom 515 52 5 0 0 0 - - -, f 5;
#X msg 480 105 120;
#X msg 517 105 100;
#X msg 556 106 80;
#X msg 596 106 60;
#X msg 632 107 50;
#X obj 284 112 bng 15 250 50 0 empty empty empty 17 7 0 10 -262144
-1 -1;
#X msg 284 132 0;
#X floatatom 484 226 5 0 0 0 - - -, f 5;
#X obj 609 160 bng 15 250 50 0 empty empty empty 17 7 0 10 -262144
-1 -1;
#N canvas 1222 630 668 300 increment 1;
#X obj 220 59 inlet;
#X obj 290 60 inlet;
#X obj 220 82 bng 15 250 50 0 empty empty empty 17 7 0 10 -262144 -1
-1;
#X obj 290 81 bng 15 250 50 0 empty empty empty 17 7 0 10 -262144 -1
-1;
#X obj 220 102 t b b;
#X obj 290 101 t b b;
#X obj 222 159 f;
#X obj 270 157 +;
#X floatatom 223 191 5 0 0 0 - - -, f 5;
#X msg 261 129 -1;
#X msg 298 128 1;
#X obj 345 61 inlet;
#X obj 415 62 inlet;
#X obj 345 84 bng 15 250 50 0 empty empty empty 17 7 0 10 -262144 -1
-1;
#X obj 415 83 bng 15 250 50 0 empty empty empty 17 7 0 10 -262144 -1
-1;
#X obj 345 104 t b b;
#X obj 415 103 t b b;
#X msg 386 131 -10;
#X msg 423 130 10;
#X obj 474 61 inlet;
#X obj 544 62 inlet;
#X obj 474 84 bng 15 250 50 0 empty empty empty 17 7 0 10 -262144 -1
-1;
#X obj 544 83 bng 15 250 50 0 empty empty empty 17 7 0 10 -262144 -1
-1;
#X obj 474 104 t b b;
#X obj 544 103 t b b;
#X msg 515 131 -100;
#X msg 552 130 100;
#X obj 267 197 loadbang;
#X floatatom 251 237 5 0 0 0 - - -, f 5;
#X obj 224 215 moses;
#X msg 266 218 0;
#X obj 223 258 moses;
#X obj 292 237 loadbang;
#X msg 292 258 240;
#X obj 108 164 outlet;
#X obj 607 106 inlet;
#X connect 0 0 2 0;
#X connect 1 0 3 0;
#X connect 2 0 4 0;
#X connect 3 0 5 0;
#X connect 4 0 6 0;
#X connect 4 1 9 0;
#X connect 5 0 6 0;
#X connect 5 1 10 0;
#X connect 6 0 7 0;
#X connect 6 0 8 0;
#X connect 7 0 6 1;
#X connect 8 0 29 0;
#X connect 9 0 7 1;
#X connect 10 0 7 1;
#X connect 11 0 13 0;
#X connect 12 0 14 0;
#X connect 13 0 15 0;
#X connect 14 0 16 0;
#X connect 15 0 6 0;
#X connect 15 1 17 0;
#X connect 16 0 6 0;
#X connect 16 1 18 0;
#X connect 17 0 7 1;
#X connect 18 0 7 1;
#X connect 19 0 21 0;
#X connect 20 0 22 0;
#X connect 21 0 23 0;
#X connect 22 0 24 0;
#X connect 23 0 6 0;
#X connect 23 1 25 0;
#X connect 24 0 6 0;
#X connect 24 1 26 0;
#X connect 25 0 7 1;
#X connect 26 0 7 1;
#X connect 27 0 30 0;
#X connect 28 0 31 0;
#X connect 29 1 28 0;
#X connect 30 0 29 1;
#X connect 31 0 34 0;
#X connect 32 0 33 0;
#X connect 33 0 31 1;
#X connect 35 0 6 0;
#X restore 606 193 pd increment;
#X obj 515 72 sel 56 48 40 32 24 57 58 49 50 41 42;
#X floatatom 606 214 5 0 0 0 - - -, f 5;
#X connect 0 0 7 0;
#X connect 0 0 19 0;
#X connect 0 0 20 0;
#X connect 0 0 21 0;
#X connect 1 0 2 0;
#X connect 1 0 23 0;
#X connect 2 0 3 0;
#X connect 3 0 1 1;
#X connect 4 0 5 0;
#X connect 4 0 24 0;
#X connect 5 0 6 0;
#X connect 6 0 4 1;
#X connect 7 0 3 0;
#X connect 7 0 6 0;
#X connect 7 0 10 0;
#X connect 8 0 9 0;
#X connect 8 0 25 0;
#X connect 9 0 10 0;
#X connect 10 0 8 1;
#X connect 11 0 12 0;
#X connect 12 0 13 0;
#X connect 13 0 14 0;
#X connect 14 0 15 0;
#X connect 14 0 16 0;
#X connect 14 0 21 1;
#X connect 14 0 39 0;
#X connect 15 0 17 0;
#X connect 16 0 18 0;
#X connect 17 0 20 1;
#X connect 18 0 19 1;
#X connect 19 0 8 0;
#X connect 20 0 4 0;
#X connect 21 0 1 0;
#X connect 22 0 0 0;
#X connect 23 0 28 0;
#X connect 24 0 29 0;
#X connect 24 0 31 0;
#X connect 25 0 30 0;
#X connect 26 0 13 0;
#X connect 32 0 33 0;
#X connect 33 0 44 0;
#X connect 34 0 13 0;
#X connect 34 0 41 0;
#X connect 35 0 13 0;
#X connect 35 0 41 0;
#X connect 36 0 13 0;
#X connect 36 0 41 0;
#X connect 37 0 13 0;
#X connect 37 0 41 0;
#X connect 38 0 13 0;
#X connect 38 0 41 0;
#X connect 39 0 21 0;
#X connect 39 0 20 0;
#X connect 39 0 19 0;
#X connect 39 0 40 0;
#X connect 40 0 4 0;
#X connect 40 0 1 0;
#X connect 40 0 8 0;
#X connect 41 0 43 6;
#X connect 43 0 41 0;
#X connect 43 0 45 0;
#X connect 44 0 34 0;
#X connect 44 1 35 0;
#X connect 44 2 36 0;
#X connect 44 3 37 0;
#X connect 44 4 38 0;
#X connect 44 5 43 0;
#X connect 44 6 43 1;
#X connect 44 7 43 2;
#X connect 44 8 43 3;
#X connect 44 9 43 4;
#X connect 44 10 43 5;
#X connect 45 0 13 0;
