#N canvas 22 334 851 619 10;
#X obj 88 71 tgl 15 0 empty empty empty 17 7 0 10 -262144 -1 -1 1 1
;
#X obj 44 226 f;
#X obj 77 226 + 1;
#X obj 114 226 mod 16;
#X obj 176 226 f;
#X obj 209 226 + 1;
#X obj 246 226 mod 16;
#X msg 52 72 0;
#X obj 302 226 f;
#X obj 335 226 + 1;
#X obj 372 226 mod 16;
#X obj 284 32 loadbang;
#X msg 284 52 100;
#X obj 284 72 expr 1000/($f1/60);
#X floatatom 284 92 5 0 0 0 - - -, f 5;
#X obj 321 126 / 2;
#X obj 355 126 / 4;
#X floatatom 321 146 5 0 0 0 - - -, f 5;
#X floatatom 355 146 5 0 0 0 - - -, f 5;
#X obj 301 190 metro;
#X obj 176 190 metro;
#X obj 43 190 metro;
#X obj 89 37 loadbang;
#X floatatom 44 399 5 0 0 0 - - -, f 5;
#X floatatom 176 399 5 0 0 0 - - -, f 5;
#X floatatom 302 399 5 0 0 0 - - -, f 5;
#X obj 44 425 s bpm1;
#X obj 176 425 s bpm2;
#X obj 302 425 s bpm4;
#X obj 146 452 metro-out;
#X obj 515 31 notein;
#X floatatom 515 52 5 0 0 0 - - -, f 5;
#X msg 480 105 120;
#X msg 517 105 100;
#X msg 556 106 80;
#X msg 596 106 60;
#X msg 632 107 50;
#X obj 284 112 bng 15 250 50 0 empty empty empty 17 7 0 10 -262144
-1 -1;
#X msg 284 132 0;
#X obj 609 160 bng 15 250 50 0 empty empty empty 17 7 0 10 -262144
-1 -1;
#N canvas 1222 630 668 300 increment 0;
#X obj 220 59 inlet;
#X obj 290 60 inlet;
#X obj 220 82 bng 15 250 50 0 empty empty empty 17 7 0 10 -262144 -1
-1;
#X obj 290 81 bng 15 250 50 0 empty empty empty 17 7 0 10 -262144 -1
-1;
#X obj 220 102 t b b;
#X obj 290 101 t b b;
#X obj 223 158 f;
#X obj 270 157 +;
#X floatatom 223 191 5 0 0 0 - - -, f 5;
#X obj 345 61 inlet;
#X obj 415 62 inlet;
#X obj 345 84 bng 15 250 50 0 empty empty empty 17 7 0 10 -262144 -1
-1;
#X obj 415 83 bng 15 250 50 0 empty empty empty 17 7 0 10 -262144 -1
-1;
#X obj 345 104 t b b;
#X obj 415 103 t b b;
#X obj 474 61 inlet;
#X obj 544 62 inlet;
#X obj 474 84 bng 15 250 50 0 empty empty empty 17 7 0 10 -262144 -1
-1;
#X obj 544 83 bng 15 250 50 0 empty empty empty 17 7 0 10 -262144 -1
-1;
#X obj 474 104 t b b;
#X obj 544 103 t b b;
#X floatatom 251 237 5 0 0 0 - - -, f 5;
#X obj 108 164 outlet;
#X obj 607 106 inlet;
#X msg 261 129 -0.5;
#X msg 298 128 0.5;
#X msg 386 131 -5;
#X msg 423 130 5;
#X msg 515 131 -25;
#X msg 552 130 25;
#X obj 224 215 moses 20;
#X obj 223 258 moses 240;
#X connect 0 0 2 0;
#X connect 1 0 3 0;
#X connect 2 0 4 0;
#X connect 3 0 5 0;
#X connect 4 0 6 0;
#X connect 4 1 24 0;
#X connect 5 0 6 0;
#X connect 5 1 25 0;
#X connect 6 0 7 0;
#X connect 6 0 8 0;
#X connect 7 0 6 1;
#X connect 8 0 30 0;
#X connect 9 0 11 0;
#X connect 10 0 12 0;
#X connect 11 0 13 0;
#X connect 12 0 14 0;
#X connect 13 0 6 0;
#X connect 13 1 26 0;
#X connect 14 0 6 0;
#X connect 14 1 27 0;
#X connect 15 0 17 0;
#X connect 16 0 18 0;
#X connect 17 0 19 0;
#X connect 18 0 20 0;
#X connect 19 0 6 0;
#X connect 19 1 28 0;
#X connect 20 0 6 0;
#X connect 20 1 29 0;
#X connect 21 0 31 0;
#X connect 23 0 6 0;
#X connect 24 0 7 1;
#X connect 25 0 7 1;
#X connect 26 0 7 1;
#X connect 27 0 7 1;
#X connect 28 0 7 1;
#X connect 29 0 7 1;
#X connect 30 1 21 0;
#X connect 31 0 22 0;
#X restore 606 193 pd increment;
#X obj 515 72 sel 56 48 40 32 24 57 58 49 50 41 42;
#X floatatom 606 214 5 0 0 0 - - -, f 5;
#N canvas 0 50 450 300 bpm-slider 0;
#X floatatom 132 63 5 0 0 0 - - -, f 5;
#X floatatom 169 75 5 0 0 0 - - -, f 5;
#X floatatom 206 69 5 0 0 0 - - -, f 5;
#X obj 163 31 ctlin;
#X obj 94 136 spigot;
#X floatatom 94 157 5 0 0 0 - - -, f 5;
#X msg 169 130 1;
#X obj 169 151 delay 100;
#X msg 169 172 0;
#X obj 94 177 outlet;
#X obj 169 95 sel 48;
#X obj 132 83 * 2;
#X connect 0 0 11 0;
#X connect 1 0 10 0;
#X connect 3 0 0 0;
#X connect 3 1 1 0;
#X connect 3 2 2 0;
#X connect 4 0 5 0;
#X connect 5 0 9 0;
#X connect 6 0 4 1;
#X connect 6 0 7 0;
#X connect 7 0 8 0;
#X connect 8 0 4 1;
#X connect 10 0 6 0;
#X connect 11 0 4 0;
#X restore 695 193 pd bpm-slider;
#X obj 647 230 hsl 128 15 20 240 0 0 empty empty empty -2 -8 0 10 -262144
-1 -1 12700 1;
#N canvas 879 653 450 300 slave-switch 1;
#X obj 46 18 notein;
#X floatatom 46 39 5 0 0 0 - - -, f 5;
#X floatatom 79 39 5 0 0 0 - - -, f 5;
#X obj 46 71 spigot;
#X obj 51 140 outlet;
#X obj 100 139 outlet;
#X obj 46 92 sel 64 65;
#X connect 0 0 1 0;
#X connect 0 1 2 0;
#X connect 1 0 3 0;
#X connect 2 0 3 1;
#X connect 3 0 6 0;
#X connect 6 0 4 0;
#X connect 6 1 5 0;
#X restore 382 269 pd slave-switch;
#X obj 369 249 loadbang;
#X msg 382 298 1;
#X msg 469 297 0;
#X obj 55 340 spigot;
#X obj 151 340 spigot;
#X obj 295 340 spigot;
#X obj 52 46 bng 15 250 50 0 empty empty empty 17 7 0 10 -262144 -1
-1;
#X obj 382 319 bng 15 250 50 0 empty empty empty 17 7 0 10 -262144
-1 -1;
#X msg 382 339 0;
#X obj 469 318 bng 15 250 50 0 empty empty empty 17 7 0 10 -262144
-1 -1;
#X msg 469 338 1;
#N canvas 554 146 450 300 midi-in 1;
#X obj 99 61 midirealtimein;
#X floatatom 99 82 5 0 0 0 - - -, f 5;
#X obj 99 102 sel 248;
#X msg 30 83 248;
#N canvas 1419 66 450 300 counter 1;
#X obj 116 59 bng 15 250 50 0 empty empty empty 17 7 0 10 -262144 -1
-1;
#X obj 116 79 int 1;
#X obj 167 79 + 1;
#X floatatom 77 103 5 0 0 0 - - -, f 5;
#X floatatom 116 121 5 0 0 0 - - -, f 5;
#X obj 117 35 inlet;
#X obj 116 141 outlet;
#X obj 116 100 % 4;
#X connect 0 0 1 0;
#X connect 1 0 2 0;
#X connect 1 0 3 0;
#X connect 1 0 7 0;
#X connect 2 0 1 1;
#X connect 4 0 6 0;
#X connect 5 0 0 0;
#X connect 7 0 4 0;
#X restore 99 123 pd counter;
#X obj 99 144 outlet;
#X connect 0 0 1 0;
#X connect 1 0 2 0;
#X connect 2 0 4 0;
#X connect 3 0 2 0;
#X connect 4 0 5 0;
#X restore 526 341 pd midi-in;
#X obj 527 378 spigot;
#X floatatom 527 402 5 0 0 0 - - -, f 5;
#X floatatom 578 459 5 0 0 0 - - -, f 5;
#X floatatom 618 458 5 0 0 0 - - -, f 5;
#X obj 577 437 int;
#X obj 617 436 int;
#X obj 577 416 * 2;
#X obj 617 415 * 4;
#X connect 0 0 7 0;
#X connect 0 0 19 0;
#X connect 0 0 20 0;
#X connect 0 0 21 0;
#X connect 1 0 2 0;
#X connect 1 0 49 0;
#X connect 2 0 3 0;
#X connect 3 0 1 1;
#X connect 4 0 5 0;
#X connect 4 0 50 0;
#X connect 5 0 6 0;
#X connect 6 0 4 1;
#X connect 7 0 3 0;
#X connect 7 0 6 0;
#X connect 7 0 10 0;
#X connect 8 0 9 0;
#X connect 8 0 51 0;
#X connect 9 0 10 0;
#X connect 10 0 8 1;
#X connect 11 0 12 0;
#X connect 12 0 13 0;
#X connect 12 0 40 6;
#X connect 13 0 14 0;
#X connect 14 0 15 0;
#X connect 14 0 16 0;
#X connect 14 0 21 1;
#X connect 14 0 37 0;
#X connect 15 0 17 0;
#X connect 16 0 18 0;
#X connect 17 0 20 1;
#X connect 18 0 19 1;
#X connect 19 0 8 0;
#X connect 20 0 4 0;
#X connect 21 0 1 0;
#X connect 22 0 0 0;
#X connect 23 0 26 0;
#X connect 24 0 27 0;
#X connect 24 0 29 0;
#X connect 25 0 28 0;
#X connect 30 0 31 0;
#X connect 31 0 41 0;
#X connect 32 0 13 0;
#X connect 32 0 40 6;
#X connect 33 0 13 0;
#X connect 33 0 40 6;
#X connect 34 0 13 0;
#X connect 34 0 40 6;
#X connect 35 0 13 0;
#X connect 35 0 40 6;
#X connect 36 0 13 0;
#X connect 36 0 40 6;
#X connect 37 0 21 0;
#X connect 37 0 20 0;
#X connect 37 0 19 0;
#X connect 37 0 38 0;
#X connect 38 0 4 0;
#X connect 38 0 1 0;
#X connect 38 0 8 0;
#X connect 40 0 42 0;
#X connect 41 0 32 0;
#X connect 41 1 33 0;
#X connect 41 2 34 0;
#X connect 41 3 35 0;
#X connect 41 4 36 0;
#X connect 41 5 40 0;
#X connect 41 6 40 1;
#X connect 41 7 40 2;
#X connect 41 8 40 3;
#X connect 41 9 40 4;
#X connect 41 10 40 5;
#X connect 42 0 13 0;
#X connect 43 0 44 0;
#X connect 44 0 40 6;
#X connect 45 0 47 0;
#X connect 45 1 48 0;
#X connect 46 0 47 0;
#X connect 47 0 49 1;
#X connect 47 0 50 1;
#X connect 47 0 51 1;
#X connect 47 0 52 0;
#X connect 47 0 53 0;
#X connect 48 0 51 1;
#X connect 48 0 50 1;
#X connect 48 0 49 1;
#X connect 48 0 52 0;
#X connect 48 0 55 0;
#X connect 49 0 23 0;
#X connect 50 0 24 0;
#X connect 51 0 25 0;
#X connect 52 0 7 0;
#X connect 53 0 54 0;
#X connect 54 0 58 1;
#X connect 55 0 56 0;
#X connect 56 0 58 1;
#X connect 57 0 58 0;
#X connect 58 0 59 0;
#X connect 59 0 26 0;
#X connect 59 0 64 0;
#X connect 59 0 65 0;
#X connect 59 0 29 0;
#X connect 60 0 27 0;
#X connect 61 0 28 0;
#X connect 62 0 60 0;
#X connect 63 0 61 0;
#X connect 64 0 62 0;
#X connect 65 0 63 0;
