#N canvas 1114 99 851 445 10;
#X obj 88 71 tgl 15 0 empty empty empty 17 7 0 10 -262144 -1 -1 1 1
;
#X obj 44 226 f;
#X obj 77 226 + 1;
#X obj 114 226 mod 16;
#X obj 176 226 f;
#X obj 209 226 + 1;
#X obj 246 226 mod 16;
#X msg 52 72 0;
#X obj 302 226 f;
#X obj 335 226 + 1;
#X obj 372 226 mod 16;
#X obj 284 32 loadbang;
#X msg 284 52 100;
#X obj 284 72 expr 1000/($f1/60);
#X floatatom 284 92 5 0 0 0 - - -, f 5;
#X obj 321 126 / 2;
#X obj 355 126 / 4;
#X floatatom 321 146 5 0 0 0 - - -, f 5;
#X floatatom 355 146 5 0 0 0 - - -, f 5;
#X obj 301 190 metro;
#X obj 176 190 metro;
#X obj 43 190 metro;
#X obj 89 37 loadbang;
#X floatatom 44 247 5 0 0 0 - - -, f 5;
#X floatatom 176 247 5 0 0 0 - - -, f 5;
#X floatatom 302 247 5 0 0 0 - - -, f 5;
#X obj 231 32 inlet;
#X text 228 14 bpm;
#X obj 44 267 outlet;
#X obj 176 267 outlet;
#X obj 302 267 outlet;
#X obj 50 308 s bpm1;
#X obj 176 308 s bpm2;
#X obj 305 305 s bpm4;
#X obj 382 309 metro-out;
#X obj 515 31 notein;
#X floatatom 515 52 5 0 0 0 - - -, f 5;
#X obj 515 72 sel 56 48 40 32 24;
#X msg 480 105 120;
#X msg 517 105 100;
#X msg 556 106 80;
#X msg 596 106 60;
#X msg 632 107 50;
#X obj 611 148 ctlin;
#X floatatom 624 174 5 0 0 0 - - -, f 5;
#X obj 624 194 sel 49;
#X msg 624 215 1;
#X obj 591 243 spigot;
#X floatatom 591 264 5 0 0 0 - - -, f 5;
#X obj 591 284 vsl 15 128 0 127 0 0 empty empty empty 0 -9 0 10 -262144
-1 -1 10500 1;
#X obj 284 112 bng 15 250 50 0 empty empty empty 17 7 0 10 -262144
-1 -1;
#X msg 284 132 0;
#X connect 0 0 7 0;
#X connect 0 0 19 0;
#X connect 0 0 20 0;
#X connect 0 0 21 0;
#X connect 1 0 2 0;
#X connect 1 0 23 0;
#X connect 2 0 3 0;
#X connect 3 0 1 1;
#X connect 4 0 5 0;
#X connect 4 0 24 0;
#X connect 5 0 6 0;
#X connect 6 0 4 1;
#X connect 7 0 3 0;
#X connect 7 0 6 0;
#X connect 7 0 10 0;
#X connect 8 0 9 0;
#X connect 8 0 25 0;
#X connect 9 0 10 0;
#X connect 10 0 8 1;
#X connect 11 0 12 0;
#X connect 12 0 13 0;
#X connect 13 0 14 0;
#X connect 14 0 15 0;
#X connect 14 0 16 0;
#X connect 14 0 21 1;
#X connect 14 0 50 0;
#X connect 15 0 17 0;
#X connect 16 0 18 0;
#X connect 17 0 20 1;
#X connect 18 0 19 1;
#X connect 19 0 8 0;
#X connect 20 0 4 0;
#X connect 21 0 1 0;
#X connect 22 0 0 0;
#X connect 23 0 28 0;
#X connect 23 0 31 0;
#X connect 24 0 29 0;
#X connect 24 0 32 0;
#X connect 24 0 34 0;
#X connect 25 0 30 0;
#X connect 25 0 33 0;
#X connect 26 0 13 0;
#X connect 35 0 36 0;
#X connect 36 0 37 0;
#X connect 37 0 38 0;
#X connect 37 1 39 0;
#X connect 37 2 40 0;
#X connect 37 3 41 0;
#X connect 37 4 42 0;
#X connect 38 0 13 0;
#X connect 39 0 13 0;
#X connect 40 0 13 0;
#X connect 41 0 13 0;
#X connect 42 0 13 0;
#X connect 43 0 47 0;
#X connect 43 1 44 0;
#X connect 44 0 45 0;
#X connect 45 0 46 0;
#X connect 46 0 47 1;
#X connect 47 0 48 0;
#X connect 48 0 13 0;
#X connect 48 0 49 0;
#X connect 50 0 21 0;
#X connect 50 0 20 0;
#X connect 50 0 19 0;
#X connect 50 0 51 0;
#X connect 51 0 4 0;
#X connect 51 0 1 0;
#X connect 51 0 8 0;
