#N canvas 1005 600 867 386 10;
#X obj 232 25 inlet;
#X obj 325 25 inlet;
#X obj 484 25 inlet;
#X text 41 5 d-connected;
#X text 230 5 d-playing;
#X text 324 5 l-connected;
#X text 483 5 l-rec;
#X obj 620 25 inlet;
#X text 616 5 l-play;
#X obj 674 25 inlet;
#X text 672 5 l-stop;
#X obj 143 25 inlet;
#X text 140 5 d-queued;
#X obj 407 25 inlet;
#X text 406 5 l-que-rec;
#X obj 544 25 inlet;
#X text 538 5 l-que-play;
#X obj 290 204 noteout;
#X obj 790 27 inlet;
#X text 791 7 1-8;
#X floatatom 790 66 5 0 0 0 - - -, f 5;
#X obj 769 41 bng 15 250 50 0 empty empty empty 17 7 0 10 -262144 -1
-1;
#X obj 44 25 inlet;
#X msg 44 46 5;
#X msg 143 46 2;
#X msg 232 46 1;
#X msg 325 46 5;
#X msg 544 46 2;
#X msg 620 46 1;
#X msg 674 46 6;
#X msg 407 46 4;
#X msg 484 46 3;
#X obj 44 67 bng 15 250 50 0 empty empty empty 17 7 0 10 -262144 -1
-1;
#X obj 143 67 bng 15 250 50 0 empty empty empty 17 7 0 10 -262144 -1
-1;
#X obj 232 67 bng 15 250 50 0 empty empty empty 17 7 0 10 -262144 -1
-1;
#X obj 325 67 bng 15 250 50 0 empty empty empty 17 7 0 10 -262144 -1
-1;
#X obj 407 67 bng 15 250 50 0 empty empty empty 17 7 0 10 -262144 -1
-1;
#X obj 484 67 bng 15 250 50 0 empty empty empty 17 7 0 10 -262144 -1
-1;
#X obj 544 67 bng 15 250 50 0 empty empty empty 17 7 0 10 -262144 -1
-1;
#X obj 620 67 bng 15 250 50 0 empty empty empty 17 7 0 10 -262144 -1
-1;
#X obj 674 67 bng 15 250 50 0 empty empty empty 17 7 0 10 -262144 -1
-1;
#X connect 0 0 21 0;
#X connect 0 0 25 0;
#X connect 1 0 21 0;
#X connect 1 0 26 0;
#X connect 2 0 21 0;
#X connect 2 0 31 0;
#X connect 7 0 21 0;
#X connect 7 0 28 0;
#X connect 9 0 21 0;
#X connect 9 0 29 0;
#X connect 11 0 21 0;
#X connect 11 0 24 0;
#X connect 13 0 21 0;
#X connect 13 0 30 0;
#X connect 15 0 21 0;
#X connect 15 0 27 0;
#X connect 18 0 20 0;
#X connect 20 0 17 0;
#X connect 21 0 20 0;
#X connect 22 0 21 0;
#X connect 22 0 23 0;
#X connect 23 0 17 1;
#X connect 23 0 32 0;
#X connect 24 0 17 1;
#X connect 24 0 33 0;
#X connect 25 0 17 1;
#X connect 25 0 34 0;
#X connect 26 0 17 1;
#X connect 26 0 35 0;
#X connect 27 0 17 1;
#X connect 27 0 38 0;
#X connect 28 0 17 1;
#X connect 28 0 39 0;
#X connect 29 0 17 1;
#X connect 29 0 40 0;
#X connect 30 0 17 1;
#X connect 30 0 36 0;
#X connect 31 0 17 1;
#X connect 31 0 37 0;
