#N canvas 1213 122 597 733 10;
#X msg 360 25 \; pd dsp 1;
#X msg 428 24 \; pd dsp 0;
#X obj 90 49 bank-selector, f 34;
#X obj 116 77 tgl 15 0 empty empty empty 17 7 0 10 -262144 -1 -1 0
1;
#X obj 90 77 tgl 15 0 empty empty empty 17 7 0 10 -262144 -1 -1 1 1
;
#X obj 171 78 tgl 15 0 empty empty empty 17 7 0 10 -262144 -1 -1 0
1;
#X obj 145 78 tgl 15 0 empty empty empty 17 7 0 10 -262144 -1 -1 0
1;
#X obj 227 77 tgl 15 0 empty empty empty 17 7 0 10 -262144 -1 -1 0
1;
#X obj 201 77 tgl 15 0 empty empty empty 17 7 0 10 -262144 -1 -1 0
1;
#X obj 282 78 tgl 15 0 empty empty empty 17 7 0 10 -262144 -1 -1 0
1;
#X obj 256 78 tgl 15 0 empty empty empty 17 7 0 10 -262144 -1 -1 0
1;
#X obj 66 114 bank01;
#X msg 507 105 0 100;
#X obj 435 79 loadbang;
#X obj 158 163 bpm, f 14;
#X floatatom 142 192 5 0 0 0 - - -, f 5;
#X floatatom 193 191 5 0 0 0 - - -, f 5;
#X floatatom 245 191 5 0 0 0 - - -, f 5;
#X msg 435 103 1 100;
#X obj 386 227 dac~;
#X obj 378 105 adc~;
#X obj 435 143 line;
#X obj 397 172 *~ 0.9;
#X connect 2 0 4 0;
#X connect 2 1 3 0;
#X connect 2 2 6 0;
#X connect 2 3 5 0;
#X connect 2 4 8 0;
#X connect 2 5 7 0;
#X connect 2 6 10 0;
#X connect 2 7 9 0;
#X connect 4 0 11 0;
#X connect 12 0 21 0;
#X connect 13 0 18 0;
#X connect 14 0 15 0;
#X connect 14 1 16 0;
#X connect 14 2 17 0;
#X connect 18 0 21 0;
#X connect 20 1 22 0;
#X connect 21 0 22 1;
#X connect 22 0 19 0;
#X connect 22 0 19 1;
