#N canvas 542 92 682 392 10;
#X msg 359 54 \; pd dsp 1;
#X msg 427 53 \; pd dsp 0;
#X obj 89 78 bank-selector, f 34;
#X obj 115 106 tgl 15 0 empty empty empty 17 7 0 10 -262144 -1 -1 1
1;
#X obj 89 106 tgl 15 0 empty empty empty 17 7 0 10 -262144 -1 -1 0
1;
#X obj 170 107 tgl 15 0 empty empty empty 17 7 0 10 -262144 -1 -1 0
1;
#X obj 144 107 tgl 15 0 empty empty empty 17 7 0 10 -262144 -1 -1 0
1;
#X obj 226 106 tgl 15 0 empty empty empty 17 7 0 10 -262144 -1 -1 0
1;
#X obj 200 106 tgl 15 0 empty empty empty 17 7 0 10 -262144 -1 -1 0
1;
#X obj 281 107 tgl 15 0 empty empty empty 17 7 0 10 -262144 -1 -1 0
1;
#X obj 255 107 tgl 15 0 empty empty empty 17 7 0 10 -262144 -1 -1 0
1;
#X obj 65 143 bank01;
#X msg 506 134 0 100;
#X obj 434 108 loadbang;
#X obj 157 192 bpm, f 14;
#X msg 434 132 1 100;
#X obj 434 172 line;
#N canvas 1431 0 480 325 input-vol 0;
#X floatatom 132 63 5 0 0 0 - - -, f 5;
#X floatatom 169 75 5 0 0 0 - - -, f 5;
#X floatatom 206 69 5 0 0 0 - - -, f 5;
#X obj 163 31 ctlin;
#X obj 169 95 sel 48;
#X obj 132 83 / 100;
#X obj 94 136 spigot;
#X floatatom 94 157 5 0 0 0 - - -, f 5;
#X msg 169 116 1;
#X obj 169 137 delay 100;
#X msg 169 158 0;
#X obj 94 177 outlet;
#X connect 0 0 5 0;
#X connect 1 0 4 0;
#X connect 3 0 0 0;
#X connect 3 1 1 0;
#X connect 3 2 2 0;
#X connect 4 0 8 0;
#X connect 5 0 6 0;
#X connect 6 0 7 0;
#X connect 7 0 11 0;
#X connect 8 0 6 1;
#X connect 8 0 9 0;
#X connect 9 0 10 0;
#X connect 10 0 6 1;
#X restore 523 210 pd input-vol;
#X obj 396 201 *~ 0;
#N canvas 0 50 450 300 input 0;
#X obj 234 175 outlet~;
#X obj 111 90 adc~;
#X obj 131 133 pitch-down;
#X connect 1 1 2 0;
#X connect 2 0 0 0;
#X restore 359 172 pd input;
#X obj 397 249 output;
#X obj 610 101 vsl 15 128 0 1 0 0 empty empty empty 0 -9 0 10 -262144
-1 -1 0 1;
#N canvas 0 50 450 300 on-off 0;
#X obj 46 18 notein;
#X floatatom 46 39 5 0 0 0 - - -, f 5;
#X floatatom 88 39 5 0 0 0 - - -, f 5;
#X obj 46 71 spigot;
#X obj 46 92 sel 70 71;
#X obj 51 140 outlet;
#X obj 100 139 outlet;
#X connect 0 0 1 0;
#X connect 0 1 2 0;
#X connect 1 0 3 0;
#X connect 2 0 3 1;
#X connect 3 0 4 0;
#X connect 4 0 5 0;
#X connect 4 1 6 0;
#X restore 358 26 pd on-off;
#X obj 117 144 bank02;
#X connect 2 0 4 0;
#X connect 2 1 3 0;
#X connect 2 2 6 0;
#X connect 2 3 5 0;
#X connect 2 4 8 0;
#X connect 2 5 7 0;
#X connect 2 6 10 0;
#X connect 2 7 9 0;
#X connect 3 0 23 0;
#X connect 4 0 11 0;
#X connect 12 0 16 0;
#X connect 13 0 15 0;
#X connect 15 0 16 0;
#X connect 16 0 18 1;
#X connect 17 0 18 1;
#X connect 17 0 21 0;
#X connect 18 0 20 0;
#X connect 19 0 18 0;
#X connect 22 0 0 0;
#X connect 22 1 1 0;
