#N canvas 527 138 682 292 10;
#X msg 514 60 \; pd dsp 1;
#X msg 583 54 \; pd dsp 0;
#X obj 89 78 bank-selector, f 34;
#X obj 93 109 tgl 15 0 empty empty empty 17 7 0 10 -262144 -1 -1 0
1;
#X obj 42 109 tgl 15 0 empty empty empty 17 7 0 10 -262144 -1 -1 1
1;
#X obj 197 109 tgl 15 0 empty empty empty 17 7 0 10 -262144 -1 -1 0
1;
#X obj 144 109 tgl 15 0 empty empty empty 17 7 0 10 -262144 -1 -1 0
1;
#X obj 310 109 tgl 15 0 empty empty empty 17 7 0 10 -262144 -1 -1 0
1;
#X obj 257 109 tgl 15 0 empty empty empty 17 7 0 10 -262144 -1 -1 0
1;
#X obj 428 109 tgl 15 0 empty empty empty 17 7 0 10 -262144 -1 -1 0
1;
#X obj 367 109 tgl 15 0 empty empty empty 17 7 0 10 -262144 -1 -1 0
1;
#X obj 42 140 bank01;
#X obj 514 105 bpm, f 14;
#X obj 514 207 output;
#N canvas 0 50 450 300 on-off 0;
#X obj 46 18 notein;
#X floatatom 46 39 5 0 0 0 - - -, f 5;
#X floatatom 88 39 5 0 0 0 - - -, f 5;
#X obj 46 71 spigot;
#X obj 46 92 sel 70 71;
#X obj 51 140 outlet;
#X obj 100 139 outlet;
#X connect 0 0 1 0;
#X connect 0 1 2 0;
#X connect 1 0 3 0;
#X connect 2 0 3 1;
#X connect 3 0 4 0;
#X connect 4 0 5 0;
#X connect 4 1 6 0;
#X restore 514 26 pd on-off;
#X obj 93 140 bank02;
#X obj 514 173 input;
#X obj 144 140 bank03;
#N canvas -4 51 1245 423 loops 0;
#X obj 188 292 g-loop loop0101 4;
#X obj 212 92 footswitch, f 66;
#X obj 193 140 tgl 15 0 empty empty empty 17 7 0 10 -262144 -1 -1 0
1;
#X obj 304 140 tgl 15 0 empty empty empty 17 7 0 10 -262144 -1 -1 0
1;
#X obj 416 140 tgl 15 0 empty empty empty 17 7 0 10 -262144 -1 -1 0
1;
#X obj 532 140 tgl 15 0 empty empty empty 17 7 0 10 -262144 -1 -1 0
1;
#X obj 212 44 loadbang;
#X msg 212 65 1;
#X obj 635 119 tgl 15 0 empty empty empty 17 7 0 10 -262144 -1 -1 1
1;
#X text 212 23 bank-on (can be removed);
#X text 630 91 bank-on (can be removed);
#X obj 306 292 g-loop loop0102 5;
#X obj 417 292 g-loop loop0103 6;
#X obj 532 292 g-loop loop0104 7;
#N canvas 0 50 450 300 t-5-vol 0;
#X floatatom 132 63 5 0 0 0 - - -, f 5;
#X floatatom 169 75 5 0 0 0 - - -, f 5;
#X floatatom 206 69 5 0 0 0 - - -, f 5;
#X obj 163 31 ctlin;
#X obj 132 83 / 100;
#X obj 94 136 spigot;
#X floatatom 94 157 5 0 0 0 - - -, f 5;
#X msg 169 116 1;
#X obj 169 137 delay 100;
#X msg 169 158 0;
#X obj 94 177 outlet;
#X obj 169 95 sel 52;
#X connect 0 0 4 0;
#X connect 1 0 11 0;
#X connect 3 0 0 0;
#X connect 3 1 1 0;
#X connect 3 2 2 0;
#X connect 4 0 5 0;
#X connect 5 0 6 0;
#X connect 6 0 10 0;
#X connect 7 0 5 1;
#X connect 7 0 8 0;
#X connect 8 0 9 0;
#X connect 9 0 5 1;
#X connect 11 0 7 0;
#X restore 227 241 pd t-5-vol;
#N canvas 0 50 450 300 t-6-vol 0;
#X floatatom 132 63 5 0 0 0 - - -, f 5;
#X floatatom 169 75 5 0 0 0 - - -, f 5;
#X floatatom 206 69 5 0 0 0 - - -, f 5;
#X obj 163 31 ctlin;
#X obj 132 83 / 100;
#X obj 94 136 spigot;
#X floatatom 94 157 5 0 0 0 - - -, f 5;
#X msg 169 116 1;
#X obj 169 137 delay 100;
#X msg 169 158 0;
#X obj 94 177 outlet;
#X obj 169 95 sel 53;
#X connect 0 0 4 0;
#X connect 1 0 11 0;
#X connect 3 0 0 0;
#X connect 3 1 1 0;
#X connect 3 2 2 0;
#X connect 4 0 5 0;
#X connect 5 0 6 0;
#X connect 6 0 10 0;
#X connect 7 0 5 1;
#X connect 7 0 8 0;
#X connect 8 0 9 0;
#X connect 9 0 5 1;
#X connect 11 0 7 0;
#X restore 339 241 pd t-6-vol;
#N canvas 0 50 450 300 t-7-vol 0;
#X floatatom 132 63 5 0 0 0 - - -, f 5;
#X floatatom 169 75 5 0 0 0 - - -, f 5;
#X floatatom 206 69 5 0 0 0 - - -, f 5;
#X obj 163 31 ctlin;
#X obj 132 83 / 100;
#X obj 94 136 spigot;
#X floatatom 94 157 5 0 0 0 - - -, f 5;
#X msg 169 116 1;
#X obj 169 137 delay 100;
#X msg 169 158 0;
#X obj 94 177 outlet;
#X obj 169 95 sel 54;
#X connect 0 0 4 0;
#X connect 1 0 11 0;
#X connect 3 0 0 0;
#X connect 3 1 1 0;
#X connect 3 2 2 0;
#X connect 4 0 5 0;
#X connect 5 0 6 0;
#X connect 6 0 10 0;
#X connect 7 0 5 1;
#X connect 7 0 8 0;
#X connect 8 0 9 0;
#X connect 9 0 5 1;
#X connect 11 0 7 0;
#X restore 446 241 pd t-7-vol;
#N canvas 0 50 450 300 t-8-vol 0;
#X floatatom 132 63 5 0 0 0 - - -, f 5;
#X floatatom 169 75 5 0 0 0 - - -, f 5;
#X floatatom 206 69 5 0 0 0 - - -, f 5;
#X obj 163 31 ctlin;
#X obj 132 83 / 100;
#X obj 94 136 spigot;
#X floatatom 94 157 5 0 0 0 - - -, f 5;
#X msg 169 116 1;
#X obj 169 137 delay 100;
#X msg 169 158 0;
#X obj 94 177 outlet;
#X obj 169 95 sel 55;
#X connect 0 0 4 0;
#X connect 1 0 11 0;
#X connect 3 0 0 0;
#X connect 3 1 1 0;
#X connect 3 2 2 0;
#X connect 4 0 5 0;
#X connect 5 0 6 0;
#X connect 6 0 10 0;
#X connect 7 0 5 1;
#X connect 7 0 8 0;
#X connect 8 0 9 0;
#X connect 9 0 5 1;
#X connect 11 0 7 0;
#X restore 560 241 pd t-8-vol;
#X connect 1 4 2 0;
#X connect 1 5 3 0;
#X connect 1 6 4 0;
#X connect 1 7 5 0;
#X connect 1 8 8 0;
#X connect 2 0 0 0;
#X connect 3 0 11 0;
#X connect 4 0 12 0;
#X connect 5 0 13 0;
#X connect 6 0 7 0;
#X connect 7 0 1 0;
#X connect 8 0 13 2;
#X connect 8 0 12 2;
#X connect 8 0 11 2;
#X connect 8 0 0 2;
#X connect 14 0 0 1;
#X connect 15 0 11 1;
#X connect 16 0 12 1;
#X connect 17 0 13 1;
#X restore 514 139 pd loops;
#X obj 197 140 bank04;
#X obj 477 95 vsl 15 128 0 1 0 0 empty empty empty 0 -9 0 10 -262144
-1 -1 0 1;
#X obj 451 27 loadbang;
#X msg 451 48 0;
#X connect 2 0 4 0;
#X connect 2 1 3 0;
#X connect 2 2 6 0;
#X connect 2 3 5 0;
#X connect 2 4 8 0;
#X connect 2 5 7 0;
#X connect 2 6 10 0;
#X connect 2 7 9 0;
#X connect 3 0 15 0;
#X connect 4 0 11 0;
#X connect 5 0 19 0;
#X connect 6 0 17 0;
#X connect 14 0 0 0;
#X connect 14 1 1 0;
#X connect 16 0 13 0;
#X connect 20 0 16 0;
#X connect 21 0 22 0;
#X connect 22 0 20 0;
