#N canvas 527 138 850 313 10;
#X msg 514 60 \; pd dsp 1;
#X msg 583 54 \; pd dsp 0;
#X obj 89 78 bank-selector, f 34;
#X obj 93 109 tgl 15 0 empty empty empty 17 7 0 10 -262144 -1 -1 0
1;
#X obj 42 109 tgl 15 0 empty empty empty 17 7 0 10 -262144 -1 -1 0
1;
#X obj 197 109 tgl 15 0 empty empty empty 17 7 0 10 -262144 -1 -1 0
1;
#X obj 144 109 tgl 15 0 empty empty empty 17 7 0 10 -262144 -1 -1 0
1;
#X obj 310 109 tgl 15 0 empty empty empty 17 7 0 10 -262144 -1 -1 0
1;
#X obj 257 109 tgl 15 0 empty empty empty 17 7 0 10 -262144 -1 -1 0
1;
#X obj 428 109 tgl 15 0 empty empty empty 17 7 0 10 -262144 -1 -1 0
1;
#X obj 367 109 tgl 15 0 empty empty empty 17 7 0 10 -262144 -1 -1 0
1;
#X obj 42 140 bank01;
#X obj 514 105 bpm, f 14;
#N canvas 0 50 450 300 on-off 0;
#X obj 46 18 notein;
#X floatatom 46 39 5 0 0 0 - - -, f 5;
#X floatatom 88 39 5 0 0 0 - - -, f 5;
#X obj 46 71 spigot;
#X obj 46 92 sel 70 71;
#X obj 51 140 outlet;
#X obj 100 139 outlet;
#X connect 0 0 1 0;
#X connect 0 1 2 0;
#X connect 1 0 3 0;
#X connect 2 0 3 1;
#X connect 3 0 4 0;
#X connect 4 0 5 0;
#X connect 4 1 6 0;
#X restore 514 26 pd on-off;
#X obj 93 140 bank02;
#X obj 514 173 input;
#X obj 144 140 bank03;
#N canvas 32 417 747 423 loops 1;
#X obj 73 311 g-loop loop0101 4;
#X obj 97 111 footswitch, f 66;
#X obj 78 159 tgl 15 0 empty empty empty 17 7 0 10 -262144 -1 -1 0
1;
#X obj 189 159 tgl 15 0 empty empty empty 17 7 0 10 -262144 -1 -1 0
1;
#X obj 301 159 tgl 15 0 empty empty empty 17 7 0 10 -262144 -1 -1 0
1;
#X obj 417 159 tgl 15 0 empty empty empty 17 7 0 10 -262144 -1 -1 0
1;
#X obj 97 63 loadbang;
#X msg 97 84 1;
#X obj 520 138 tgl 15 0 empty empty empty 17 7 0 10 -262144 -1 -1 1
1;
#X text 97 42 bank-on (can be removed);
#X text 515 110 bank-on (can be removed);
#N canvas 0 50 450 300 t-5-vol 0;
#X floatatom 132 63 5 0 0 0 - - -, f 5;
#X floatatom 169 75 5 0 0 0 - - -, f 5;
#X floatatom 206 69 5 0 0 0 - - -, f 5;
#X obj 163 31 ctlin;
#X obj 132 83 / 100;
#X obj 94 136 spigot;
#X floatatom 94 157 5 0 0 0 - - -, f 5;
#X msg 169 116 1;
#X obj 169 137 delay 100;
#X msg 169 158 0;
#X obj 94 177 outlet;
#X obj 169 95 sel 52;
#X connect 0 0 4 0;
#X connect 1 0 11 0;
#X connect 3 0 0 0;
#X connect 3 1 1 0;
#X connect 3 2 2 0;
#X connect 4 0 5 0;
#X connect 5 0 6 0;
#X connect 6 0 10 0;
#X connect 7 0 5 1;
#X connect 7 0 8 0;
#X connect 8 0 9 0;
#X connect 9 0 5 1;
#X connect 11 0 7 0;
#X restore 112 260 pd t-5-vol;
#N canvas 0 50 450 300 t-6-vol 0;
#X floatatom 132 63 5 0 0 0 - - -, f 5;
#X floatatom 169 75 5 0 0 0 - - -, f 5;
#X floatatom 206 69 5 0 0 0 - - -, f 5;
#X obj 163 31 ctlin;
#X obj 132 83 / 100;
#X obj 94 136 spigot;
#X floatatom 94 157 5 0 0 0 - - -, f 5;
#X msg 169 116 1;
#X obj 169 137 delay 100;
#X msg 169 158 0;
#X obj 94 177 outlet;
#X obj 169 95 sel 53;
#X connect 0 0 4 0;
#X connect 1 0 11 0;
#X connect 3 0 0 0;
#X connect 3 1 1 0;
#X connect 3 2 2 0;
#X connect 4 0 5 0;
#X connect 5 0 6 0;
#X connect 6 0 10 0;
#X connect 7 0 5 1;
#X connect 7 0 8 0;
#X connect 8 0 9 0;
#X connect 9 0 5 1;
#X connect 11 0 7 0;
#X restore 224 260 pd t-6-vol;
#N canvas 0 50 450 300 t-7-vol 0;
#X floatatom 132 63 5 0 0 0 - - -, f 5;
#X floatatom 169 75 5 0 0 0 - - -, f 5;
#X floatatom 206 69 5 0 0 0 - - -, f 5;
#X obj 163 31 ctlin;
#X obj 132 83 / 100;
#X obj 94 136 spigot;
#X floatatom 94 157 5 0 0 0 - - -, f 5;
#X msg 169 116 1;
#X obj 169 137 delay 100;
#X msg 169 158 0;
#X obj 94 177 outlet;
#X obj 169 95 sel 54;
#X connect 0 0 4 0;
#X connect 1 0 11 0;
#X connect 3 0 0 0;
#X connect 3 1 1 0;
#X connect 3 2 2 0;
#X connect 4 0 5 0;
#X connect 5 0 6 0;
#X connect 6 0 10 0;
#X connect 7 0 5 1;
#X connect 7 0 8 0;
#X connect 8 0 9 0;
#X connect 9 0 5 1;
#X connect 11 0 7 0;
#X restore 331 260 pd t-7-vol;
#N canvas 0 50 450 300 t-8-vol 0;
#X floatatom 132 63 5 0 0 0 - - -, f 5;
#X floatatom 169 75 5 0 0 0 - - -, f 5;
#X floatatom 206 69 5 0 0 0 - - -, f 5;
#X obj 163 31 ctlin;
#X obj 132 83 / 100;
#X obj 94 136 spigot;
#X floatatom 94 157 5 0 0 0 - - -, f 5;
#X msg 169 116 1;
#X obj 169 137 delay 100;
#X msg 169 158 0;
#X obj 94 177 outlet;
#X obj 169 95 sel 55;
#X connect 0 0 4 0;
#X connect 1 0 11 0;
#X connect 3 0 0 0;
#X connect 3 1 1 0;
#X connect 3 2 2 0;
#X connect 4 0 5 0;
#X connect 5 0 6 0;
#X connect 6 0 10 0;
#X connect 7 0 5 1;
#X connect 7 0 8 0;
#X connect 8 0 9 0;
#X connect 9 0 5 1;
#X connect 11 0 7 0;
#X restore 445 260 pd t-8-vol;
#X obj 191 311 g-loop loop0102 5;
#X obj 302 311 g-loop loop0103 6;
#X obj 417 311 g-loop loop0104 7;
#X connect 1 4 2 0;
#X connect 1 5 3 0;
#X connect 1 6 4 0;
#X connect 1 7 5 0;
#X connect 1 8 8 0;
#X connect 2 0 0 0;
#X connect 3 0 15 0;
#X connect 4 0 16 0;
#X connect 5 0 17 0;
#X connect 6 0 7 0;
#X connect 7 0 1 0;
#X connect 8 0 0 2;
#X connect 8 0 15 2;
#X connect 8 0 16 2;
#X connect 8 0 17 2;
#X connect 11 0 0 1;
#X connect 12 0 15 1;
#X connect 13 0 16 1;
#X connect 14 0 17 1;
#X restore 514 139 pd loops;
#X obj 197 140 bank04;
#X obj 477 95 vsl 15 128 0 1 0 0 empty empty empty 0 -9 0 10 -262144
-1 -1 0 1;
#X obj 451 27 loadbang;
#X msg 451 48 0;
#X obj 514 197 s~ guitar-aud;
#N canvas 794 68 839 415 output 1;
#X obj 51 260 *~;
#N canvas 1429 656 450 300 output-vol 0;
#X floatatom 132 63 5 0 0 0 - - -, f 5;
#X floatatom 169 75 5 0 0 0 - - -, f 5;
#X floatatom 206 69 5 0 0 0 - - -, f 5;
#X obj 163 31 ctlin;
#X obj 132 83 / 100;
#X obj 94 136 spigot;
#X floatatom 94 157 5 0 0 0 - - -, f 5;
#X msg 169 116 1;
#X obj 169 137 delay 100;
#X msg 169 158 0;
#X obj 94 177 outlet;
#X obj 169 95 sel 56;
#X connect 0 0 4 0;
#X connect 1 0 11 0;
#X connect 3 0 0 0;
#X connect 3 1 1 0;
#X connect 3 2 2 0;
#X connect 4 0 5 0;
#X connect 5 0 6 0;
#X connect 6 0 10 0;
#X connect 7 0 5 1;
#X connect 7 0 8 0;
#X connect 8 0 9 0;
#X connect 9 0 5 1;
#X connect 11 0 7 0;
#X restore 185 191 pd output-vol;
#X obj 51 281 dac~;
#X obj 183 138 loadbang;
#X msg 183 159 0;
#N canvas 1462 0 450 300 reverb 0;
#X obj 138 153 rev1~, f 19;
#X obj 138 111 inlet~;
#X obj 139 183 outlet~;
#X obj 321 155 bng 15 250 50 0 empty empty empty 17 7 0 10 -262144
-1 -1;
#X obj 343 92 vsl 15 128 0 0.3 0 0 empty empty empty 0 -9 0 10 -262144
-1 -1 0 1;
#N canvas 0 50 450 300 reverb-vol 0;
#X floatatom 132 63 5 0 0 0 - - -, f 5;
#X floatatom 169 75 5 0 0 0 - - -, f 5;
#X floatatom 206 69 5 0 0 0 - - -, f 5;
#X obj 163 31 ctlin;
#X obj 132 83 / 100;
#X obj 94 136 spigot;
#X floatatom 94 157 5 0 0 0 - - -, f 5;
#X msg 169 130 1;
#X obj 169 151 delay 100;
#X msg 169 172 0;
#X obj 94 177 outlet;
#X obj 169 95 sel 48;
#X connect 0 0 4 0;
#X connect 1 0 11 0;
#X connect 3 0 0 0;
#X connect 3 1 1 0;
#X connect 3 2 2 0;
#X connect 4 0 5 0;
#X connect 5 0 6 0;
#X connect 6 0 10 0;
#X connect 7 0 5 1;
#X connect 7 0 8 0;
#X connect 8 0 9 0;
#X connect 9 0 5 1;
#X connect 11 0 7 0;
#X restore 227 79 pd reverb-vol;
#X connect 0 0 2 0;
#X connect 1 0 0 0;
#X connect 3 0 0 2;
#X connect 4 0 0 1;
#X connect 5 0 4 0;
#X restore 466 248 pd reverb;
#X obj 20 36 r~ guitar-aud;
#X obj 288 142 efficient-kick;
#X obj 395 142 efficient-snare;
#X obj 599 142 efficient-fmhh;
#X obj 683 93 hsl 128 15 0 1 0 0 empty empty empty -2 -8 0 10 -262144
-1 -1 0 1;
#X obj 508 142 tom;
#N canvas 0 50 450 300 bass-tom-vol 0;
#X floatatom 132 63 5 0 0 0 - - -, f 5;
#X floatatom 169 75 5 0 0 0 - - -, f 5;
#X floatatom 206 69 5 0 0 0 - - -, f 5;
#X obj 163 31 ctlin;
#X obj 132 83 / 100;
#X obj 94 136 spigot;
#X floatatom 94 157 5 0 0 0 - - -, f 5;
#X msg 169 116 1;
#X obj 169 137 delay 100;
#X msg 169 158 0;
#X obj 94 177 outlet;
#X obj 169 95 sel 49;
#X connect 0 0 4 0;
#X connect 1 0 11 0;
#X connect 3 0 0 0;
#X connect 3 1 1 0;
#X connect 3 2 2 0;
#X connect 4 0 5 0;
#X connect 5 0 6 0;
#X connect 6 0 10 0;
#X connect 7 0 5 1;
#X connect 7 0 8 0;
#X connect 8 0 9 0;
#X connect 9 0 5 1;
#X connect 11 0 7 0;
#X restore 297 162 pd bass-tom-vol;
#N canvas 0 50 450 300 snare-vol 0;
#X floatatom 132 63 5 0 0 0 - - -, f 5;
#X floatatom 169 75 5 0 0 0 - - -, f 5;
#X floatatom 206 69 5 0 0 0 - - -, f 5;
#X obj 163 31 ctlin;
#X obj 132 83 / 100;
#X obj 94 136 spigot;
#X floatatom 94 157 5 0 0 0 - - -, f 5;
#X msg 169 116 1;
#X obj 169 137 delay 100;
#X msg 169 158 0;
#X obj 94 177 outlet;
#X obj 169 95 sel 50;
#X connect 0 0 4 0;
#X connect 1 0 11 0;
#X connect 3 0 0 0;
#X connect 3 1 1 0;
#X connect 3 2 2 0;
#X connect 4 0 5 0;
#X connect 5 0 6 0;
#X connect 6 0 10 0;
#X connect 7 0 5 1;
#X connect 7 0 8 0;
#X connect 8 0 9 0;
#X connect 9 0 5 1;
#X connect 11 0 7 0;
#X restore 443 162 pd snare-vol;
#N canvas 0 50 450 300 cymbol-vol 0;
#X floatatom 132 63 5 0 0 0 - - -, f 5;
#X floatatom 169 75 5 0 0 0 - - -, f 5;
#X floatatom 206 69 5 0 0 0 - - -, f 5;
#X obj 163 31 ctlin;
#X obj 132 83 / 100;
#X obj 94 136 spigot;
#X floatatom 94 157 5 0 0 0 - - -, f 5;
#X msg 169 116 1;
#X obj 169 137 delay 100;
#X msg 169 158 0;
#X obj 94 177 outlet;
#X obj 169 95 sel 51;
#X connect 0 0 4 0;
#X connect 1 0 11 0;
#X connect 3 0 0 0;
#X connect 3 1 1 0;
#X connect 3 2 2 0;
#X connect 4 0 5 0;
#X connect 5 0 6 0;
#X connect 6 0 10 0;
#X connect 7 0 5 1;
#X connect 7 0 8 0;
#X connect 8 0 9 0;
#X connect 9 0 5 1;
#X connect 11 0 7 0;
#X restore 608 166 pd cymbol-vol;
#X obj 288 189 *~ 1;
#X obj 573 188 *~ 0.5;
#X obj 410 186 *~ 0.5;
#N canvas 0 50 450 300 decay 0;
#X floatatom 132 63 5 0 0 0 - - -, f 5;
#X floatatom 169 75 5 0 0 0 - - -, f 5;
#X floatatom 206 69 5 0 0 0 - - -, f 5;
#X obj 163 31 ctlin;
#X obj 132 83 / 100;
#X obj 94 136 spigot;
#X floatatom 94 157 5 0 0 0 - - -, f 5;
#X msg 169 116 1;
#X obj 169 137 delay 100;
#X msg 169 158 0;
#X obj 94 177 outlet;
#X obj 169 95 sel 7;
#X connect 0 0 4 0;
#X connect 1 0 11 0;
#X connect 3 0 0 0;
#X connect 3 1 1 0;
#X connect 3 2 2 0;
#X connect 4 0 5 0;
#X connect 5 0 6 0;
#X connect 6 0 10 0;
#X connect 7 0 5 1;
#X connect 7 0 8 0;
#X connect 8 0 9 0;
#X connect 9 0 5 1;
#X connect 11 0 7 0;
#X restore 769 65 pd decay;
#X obj 465 217 *~ 1;
#X obj 288 116 r kicks;
#X obj 394 121 r snares;
#X obj 599 120 r hats;
#X obj 39 73 r~ loop0101-aud;
#X obj 39 97 r~ loop0102-aud;
#X obj 39 118 r~ loop0103-aud;
#X obj 39 142 r~ loop0104-aud;
#X obj 508 123 r toms;
#X connect 0 0 2 0;
#X connect 0 0 2 1;
#X connect 1 0 0 1;
#X connect 3 0 4 0;
#X connect 4 0 0 1;
#X connect 5 0 0 0;
#X connect 6 0 0 0;
#X connect 7 0 15 0;
#X connect 8 0 17 0;
#X connect 9 0 16 0;
#X connect 10 0 9 1;
#X connect 11 0 15 0;
#X connect 12 0 15 1;
#X connect 13 0 17 1;
#X connect 14 0 16 1;
#X connect 15 0 19 0;
#X connect 16 0 19 0;
#X connect 17 0 19 0;
#X connect 18 0 10 0;
#X connect 19 0 5 0;
#X connect 19 0 0 0;
#X connect 20 0 7 0;
#X connect 21 0 8 0;
#X connect 22 0 9 0;
#X connect 23 0 0 0;
#X connect 24 0 0 0;
#X connect 25 0 0 0;
#X connect 26 0 0 0;
#X connect 27 0 11 0;
#X restore 514 240 pd output;
#X connect 2 0 4 0;
#X connect 2 1 3 0;
#X connect 2 2 6 0;
#X connect 2 3 5 0;
#X connect 2 4 8 0;
#X connect 2 5 7 0;
#X connect 2 6 10 0;
#X connect 2 7 9 0;
#X connect 3 0 14 0;
#X connect 4 0 11 0;
#X connect 5 0 18 0;
#X connect 6 0 16 0;
#X connect 13 0 0 0;
#X connect 13 1 1 0;
#X connect 15 0 22 0;
#X connect 19 0 15 0;
#X connect 20 0 21 0;
#X connect 21 0 19 0;
