#N canvas -8 -8 1920 997 10;
#X obj 38 270 inlet;
#X obj 93 271 inlet;
#X text 13 252 start/stop;
#X text 91 251 decay;
#X floatatom 20 561 5 0 0 0 - - -, f 5;
#X obj 22 602 outlet;
#X obj 279 193 nbx 5 20 0 9 0 1 empty empty empty 0 -8 0 12 -262144
-1 -1 1 256;
#X obj 432 64 nbx 5 20 0 9 0 1 empty empty empty 0 -8 0 12 -262144
-1 -1 1 256;
#X obj 507 65 nbx 5 20 0 9 0 1 empty empty empty 0 -8 0 12 -262144
-1 -1 0 256;
#X obj 431 138 nbx 5 20 0 9 0 1 empty empty empty 0 -8 0 12 -262144
-1 -1 1 256;
#X obj 356 104 nbx 5 20 0 9 0 1 empty empty empty 0 -8 0 12 -262144
-1 -1 1 256;
#X obj 281 104 nbx 5 20 0 9 0 1 empty empty empty 0 -8 0 12 -262144
-1 -1 1 256;
#X obj 506 103 nbx 5 20 0 9 0 1 empty empty empty 0 -8 0 12 -262144
-1 -1 0 256;
#X obj 431 103 nbx 5 20 0 9 0 1 empty empty empty 0 -8 0 12 -262144
-1 -1 1 256;
#X obj 356 145 nbx 5 20 0 9 0 1 empty empty empty 0 -8 0 12 -262144
-1 -1 1 256;
#X obj 281 145 nbx 5 20 0 9 0 1 empty empty empty 0 -8 0 12 -262144
-1 -1 1 256;
#X obj 506 144 nbx 5 20 0 9 0 1 empty empty empty 0 -8 0 12 -262144
-1 -1 0 256;
#X obj 357 70 nbx 5 20 0 9 0 1 empty empty empty 0 -8 0 12 -262144
-1 -1 1 256;
#X obj 356 183 nbx 5 20 0 9 0 1 empty empty empty 0 -8 0 12 -262144
-1 -1 1 256;
#X obj 283 68 nbx 5 20 0 9 0 1 empty empty empty 0 -8 0 12 -262144
-1 -1 1 256;
#X obj 506 182 nbx 5 20 0 9 0 1 empty empty empty 0 -8 0 12 -262144
-1 -1 0 256;
#X obj 431 182 nbx 5 20 0 9 0 1 empty empty empty 0 -8 0 12 -262144
-1 -1 1 256;
#X obj 769 65 nbx 5 20 0 9 0 1 empty empty empty 0 -8 0 12 -262144
-1 -1 0 256;
#X obj 694 65 nbx 5 20 0 9 0 1 empty empty empty 0 -8 0 12 -262144
-1 -1 0 256;
#X obj 919 64 nbx 5 20 0 9 0 1 empty empty empty 0 -8 0 12 -262144
-1 -1 0 256;
#X obj 844 64 nbx 5 20 0 9 0 1 empty empty empty 0 -8 0 12 -262144
-1 -1 0 256;
#X obj 768 103 nbx 5 20 0 9 0 1 empty empty empty 0 -8 0 12 -262144
-1 -1 0 256;
#X obj 693 103 nbx 5 20 0 9 0 1 empty empty empty 0 -8 0 12 -262144
-1 -1 0 256;
#X obj 918 102 nbx 5 20 0 9 0 1 empty empty empty 0 -8 0 12 -262144
-1 -1 0 256;
#X obj 843 102 nbx 5 20 0 9 0 1 empty empty empty 0 -8 0 12 -262144
-1 -1 0 256;
#X obj 768 144 nbx 5 20 0 9 0 1 empty empty empty 0 -8 0 12 -262144
-1 -1 0 256;
#X obj 693 144 nbx 5 20 0 9 0 1 empty empty empty 0 -8 0 12 -262144
-1 -1 0 256;
#X obj 918 143 nbx 5 20 0 9 0 1 empty empty empty 0 -8 0 12 -262144
-1 -1 0 256;
#X obj 843 143 nbx 5 20 0 9 0 1 empty empty empty 0 -8 0 12 -262144
-1 -1 4 256;
#X obj 768 182 nbx 5 20 0 9 0 1 empty empty empty 0 -8 0 12 -262144
-1 -1 0 256;
#X obj 693 182 nbx 5 20 0 9 0 1 empty empty empty 0 -8 0 12 -262144
-1 -1 0 256;
#X obj 918 181 nbx 5 20 0 9 0 1 empty empty empty 0 -8 0 12 -262144
-1 -1 0 256;
#X obj 843 181 nbx 5 20 0 9 0 1 empty empty empty 0 -8 0 12 -262144
-1 -1 0 256;
#X obj 1290 65 nbx 5 20 0 9 0 1 empty empty empty 0 -8 0 12 -262144
-1 -1 8 256;
#X obj 1215 65 nbx 5 20 0 9 0 1 empty empty empty 0 -8 0 12 -262144
-1 -1 9 256;
#X obj 1440 64 nbx 5 20 0 9 0 1 empty empty empty 0 -8 0 12 -262144
-1 -1 0 256;
#X obj 1365 64 nbx 5 20 0 9 0 1 empty empty empty 0 -8 0 12 -262144
-1 -1 0 256;
#X obj 1289 103 nbx 5 20 0 9 0 1 empty empty empty 0 -8 0 12 -262144
-1 -1 0 256;
#X obj 1214 103 nbx 5 20 0 9 0 1 empty empty empty 0 -8 0 12 -262144
-1 -1 0 256;
#X obj 1439 102 nbx 5 20 0 9 0 1 empty empty empty 0 -8 0 12 -262144
-1 -1 0 256;
#X obj 1364 102 nbx 5 20 0 9 0 1 empty empty empty 0 -8 0 12 -262144
-1 -1 0 256;
#X obj 1289 144 nbx 5 20 0 9 0 1 empty empty empty 0 -8 0 12 -262144
-1 -1 0 256;
#X obj 1214 144 nbx 5 20 0 9 0 1 empty empty empty 0 -8 0 12 -262144
-1 -1 0 256;
#X obj 1439 143 nbx 5 20 0 9 0 1 empty empty empty 0 -8 0 12 -262144
-1 -1 0 256;
#X obj 1364 143 nbx 5 20 0 9 0 1 empty empty empty 0 -8 0 12 -262144
-1 -1 0 256;
#X obj 1289 182 nbx 5 20 0 9 0 1 empty empty empty 0 -8 0 12 -262144
-1 -1 0 256;
#X obj 1214 182 nbx 5 20 0 9 0 1 empty empty empty 0 -8 0 12 -262144
-1 -1 0 256;
#X obj 1439 181 nbx 5 20 0 9 0 1 empty empty empty 0 -8 0 12 -262144
-1 -1 0 256;
#X obj 1364 181 nbx 5 20 0 9 0 1 empty empty empty 0 -8 0 12 -262144
-1 -1 0 256;
#X obj 18 523 machine, f 264;
#X floatatom 1571 566 5 0 0 0 - - -, f 5;
#X obj 1573 607 outlet;
#X obj 38 301 tgl 15 0 empty empty empty 17 7 0 10 -262144 -1 -1 0
1;
#X floatatom 93 292 5 0 0 0 - - -, f 5;
#X text 143 202 track;
#X obj 144 267 \$1;
#X obj 144 219 loadbang;
#X obj 144 240 bng 15 250 50 0 empty empty empty 17 7 0 10 -262144
-1 -1;
#X connect 0 0 57 0;
#X connect 1 0 58 0;
#X connect 1 0 54 1;
#X connect 4 0 5 0;
#X connect 6 0 54 14;
#X connect 7 0 54 4;
#X connect 8 0 54 5;
#X connect 9 0 54 12;
#X connect 10 0 54 7;
#X connect 11 0 54 6;
#X connect 12 0 54 9;
#X connect 13 0 54 8;
#X connect 14 0 54 11;
#X connect 15 0 54 10;
#X connect 16 0 54 13;
#X connect 17 0 54 3;
#X connect 18 0 54 15;
#X connect 19 0 54 2;
#X connect 20 0 54 17;
#X connect 21 0 54 16;
#X connect 22 0 54 19;
#X connect 23 0 54 18;
#X connect 24 0 54 21;
#X connect 25 0 54 20;
#X connect 26 0 54 23;
#X connect 27 0 54 22;
#X connect 28 0 54 25;
#X connect 29 0 54 24;
#X connect 30 0 54 27;
#X connect 31 0 54 26;
#X connect 32 0 54 29;
#X connect 33 0 54 28;
#X connect 34 0 54 31;
#X connect 35 0 54 30;
#X connect 36 0 54 33;
#X connect 37 0 54 32;
#X connect 38 0 54 35;
#X connect 39 0 54 34;
#X connect 40 0 54 37;
#X connect 41 0 54 36;
#X connect 42 0 54 39;
#X connect 43 0 54 38;
#X connect 44 0 54 41;
#X connect 45 0 54 40;
#X connect 46 0 54 43;
#X connect 47 0 54 42;
#X connect 48 0 54 45;
#X connect 49 0 54 44;
#X connect 50 0 54 47;
#X connect 51 0 54 46;
#X connect 52 0 54 49;
#X connect 53 0 54 48;
#X connect 54 0 4 0;
#X connect 54 1 55 0;
#X connect 55 0 56 0;
#X connect 57 0 54 0;
#X connect 60 0 54 50;
#X connect 61 0 62 0;
#X connect 62 0 60 0;
