#N canvas 888 0 1021 988 10;
#X obj 274 11 r bpm4;
#X floatatom 210 321 5 0 0 0 - - -, f 5;
#X obj 328 11 inlet;
#X obj 161 344 hradio 15 1 0 16 empty empty empty 0 -8 0 10 -262144
-1 -1 15;
#X obj 253 441 nbx 5 20 0 15 0 1 empty empty empty 0 -8 0 12 -262144
-1 -1 9 256;
#X obj 171 441 nbx 5 20 0 15 0 1 empty empty empty 0 -8 0 12 -262144
-1 -1 0 256;
#X obj 397 441 nbx 5 20 0 15 0 1 empty empty empty 0 -8 0 12 -262144
-1 -1 9 256;
#X obj 322 441 nbx 5 20 0 15 0 1 empty empty empty 0 -8 0 12 -262144
-1 -1 0 256;
#X obj 250 503 nbx 5 20 0 15 0 1 empty empty empty 0 -8 0 12 -262144
-1 -1 9 256;
#X obj 171 505 nbx 5 20 0 15 0 1 empty empty empty 0 -8 0 12 -262144
-1 -1 0 256;
#X obj 397 505 nbx 5 20 0 15 0 1 empty empty empty 0 -8 0 12 -262144
-1 -1 9 256;
#X obj 322 505 nbx 5 20 0 15 0 1 empty empty empty 0 -8 0 12 -262144
-1 -1 0 256;
#X obj 244 566 nbx 5 20 0 15 0 1 empty empty empty 0 -8 0 12 -262144
-1 -1 9 256;
#X obj 168 566 nbx 5 20 0 15 0 1 empty empty empty 0 -8 0 12 -262144
-1 -1 0 256;
#X obj 393 566 nbx 5 20 0 15 0 1 empty empty empty 0 -8 0 12 -262144
-1 -1 9 256;
#X obj 318 566 nbx 5 20 0 15 0 1 empty empty empty 0 -8 0 12 -262144
-1 -1 9 256;
#X obj 241 625 nbx 5 20 0 15 0 1 empty empty empty 0 -8 0 12 -262144
-1 -1 1 256;
#X obj 166 625 nbx 5 20 0 15 0 1 empty empty empty 0 -8 0 12 -262144
-1 -1 4 256;
#X obj 391 625 nbx 5 20 0 15 0 1 empty empty empty 0 -8 0 12 -262144
-1 -1 1 256;
#X obj 316 625 nbx 5 20 0 15 0 1 empty empty empty 0 -8 0 12 -262144
-1 -1 4 256;
#X obj 171 411 r \$2d401;
#X obj 171 475 r \$2d405;
#X obj 171 539 r \$2d409;
#X obj 168 598 r \$2d413;
#X obj 253 411 r \$2d402;
#X obj 253 475 r \$2d406;
#X obj 246 541 r \$2d410;
#X obj 237 598 r \$2d414;
#X obj 322 411 r \$2d403;
#X obj 322 475 r \$2d407;
#X obj 322 539 r \$2d411;
#X obj 319 598 r \$2d415;
#X obj 397 411 r \$2d404;
#X obj 397 475 r \$2d408;
#X obj 397 539 r \$2d412;
#X obj 394 598 r \$2d416;
#X obj 160 364 sel 0 1 2 3 4 5 6 7 8 9 10 11 12 13 14 15;
#X obj 328 32 bng 15 250 50 0 empty empty empty 17 7 0 10 -262144 -1
-1;
#X obj 328 52 tgl 15 0 empty empty empty 17 7 0 10 -262144 -1 -1 0
1;
#X floatatom 275 33 5 0 0 0 - - -, f 5;
#X obj 242 119 spigot;
#X obj 275 87 spigot;
#X msg 307 124 1;
#X msg 458 363 0;
#X obj 381 28 inlet;
#X text 379 8 decay;
#X floatatom 381 49 5 0 0 0 - - -, f 5;
#X obj 438 28 inlet;
#X text 438 11 bank-on;
#X floatatom 438 49 5 0 0 0 - - -, f 5;
#X obj 503 183 clip-out, f 33;
#X obj 438 69 sel 1 0;
#X obj 579 66 \$1;
#X obj 561 48 bng 15 250 50 0 empty empty empty 17 7 0 10 -262144 -1
-1;
#X floatatom 314 101 5 0 0 0 - - -, f 5;
#X obj 458 384 bng 15 250 50 0 empty empty empty 17 7 0 10 -262144
-1 -1;
#X obj 188 691 sel 1 2 3 4 5 6 7 8 9 10 11 12, f 42;
#X msg 77 854 \; kicks 1 \;;
#X msg 4 855 \; kicks 0 \;;
#X msg 154 853 \; kicks 2 \;;
#X msg 230 853 \; snares 1 \;;
#X msg 316 851 \; snares 2 \;;
#X msg 399 851 \; snares 3 \;;
#X msg 487 850 \; toms 0 \;;
#X msg 559 851 \; toms 1 \;;
#X msg 637 852 \; toms 2 \;;
#X msg 710 853 \; hats 1 \;;
#X msg 786 851 \; hats 2 \;;
#X msg 866 850 \; hats 3 \;;
#X obj 274 58 sel 0;
#X connect 0 0 39 0;
#X connect 1 0 3 0;
#X connect 2 0 37 0;
#X connect 3 0 36 0;
#X connect 4 0 56 0;
#X connect 5 0 56 0;
#X connect 6 0 56 0;
#X connect 7 0 56 0;
#X connect 8 0 56 0;
#X connect 9 0 56 0;
#X connect 10 0 56 0;
#X connect 11 0 56 0;
#X connect 12 0 56 0;
#X connect 13 0 56 0;
#X connect 14 0 56 0;
#X connect 15 0 56 0;
#X connect 16 0 56 0;
#X connect 17 0 56 0;
#X connect 18 0 56 0;
#X connect 19 0 56 0;
#X connect 20 0 5 0;
#X connect 21 0 9 0;
#X connect 22 0 13 0;
#X connect 23 0 17 0;
#X connect 24 0 4 0;
#X connect 25 0 8 0;
#X connect 26 0 12 0;
#X connect 27 0 16 0;
#X connect 28 0 7 0;
#X connect 29 0 11 0;
#X connect 30 0 15 0;
#X connect 31 0 19 0;
#X connect 32 0 6 0;
#X connect 33 0 10 0;
#X connect 34 0 14 0;
#X connect 35 0 18 0;
#X connect 36 0 5 0;
#X connect 36 1 4 0;
#X connect 36 2 7 0;
#X connect 36 3 6 0;
#X connect 36 4 9 0;
#X connect 36 5 8 0;
#X connect 36 6 11 0;
#X connect 36 7 10 0;
#X connect 36 8 13 0;
#X connect 36 9 12 0;
#X connect 36 10 15 0;
#X connect 36 11 14 0;
#X connect 36 12 17 0;
#X connect 36 13 16 0;
#X connect 36 14 19 0;
#X connect 36 15 18 0;
#X connect 36 15 43 0;
#X connect 37 0 38 0;
#X connect 37 0 50 1;
#X connect 38 0 41 1;
#X connect 39 0 40 0;
#X connect 39 0 69 0;
#X connect 40 0 1 0;
#X connect 41 0 42 0;
#X connect 41 0 54 0;
#X connect 42 0 40 1;
#X connect 42 0 50 2;
#X connect 43 0 38 0;
#X connect 43 0 40 1;
#X connect 43 0 53 0;
#X connect 43 0 55 0;
#X connect 44 0 46 0;
#X connect 47 0 49 0;
#X connect 49 0 51 0;
#X connect 51 0 53 0;
#X connect 51 0 50 0;
#X connect 51 1 50 10;
#X connect 52 0 50 9;
#X connect 53 0 52 0;
#X connect 54 0 53 0;
#X connect 55 0 50 0;
#X connect 56 0 58 0;
#X connect 56 1 57 0;
#X connect 56 2 59 0;
#X connect 56 3 60 0;
#X connect 56 4 63 0;
#X connect 56 5 64 0;
#X connect 56 6 65 0;
#X connect 56 7 66 0;
#X connect 56 8 67 0;
#X connect 56 9 61 0;
#X connect 56 10 62 0;
#X connect 56 11 68 0;
#X connect 69 0 41 0;
