#N canvas 205 128 1674 704 10;
#X obj 38 270 inlet;
#X obj 93 271 inlet;
#X obj 146 271 inlet;
#X text 13 252 start/stop;
#X text 91 251 decay;
#X text 149 250 bpm;
#X obj 25 74 tgl 15 0 empty empty empty 17 7 0 10 -262144 -1 -1 0 1
;
#X floatatom 20 561 5 0 0 0 - - -, f 5;
#X obj 22 602 outlet;
#X obj 357 66 nbx 5 20 0 9 0 1 empty empty empty 0 -8 0 12 -262144
-1 -1 2 256;
#X obj 283 64 nbx 5 20 0 9 0 1 empty empty empty 0 -8 0 12 -262144
-1 -1 1 256;
#X obj 507 65 nbx 5 20 0 9 0 1 empty empty empty 0 -8 0 12 -262144
-1 -1 2 256;
#X obj 432 65 nbx 5 20 0 9 0 1 empty empty empty 0 -8 0 12 -262144
-1 -1 1 256;
#X obj 356 104 nbx 5 20 0 9 0 1 empty empty empty 0 -8 0 12 -262144
-1 -1 2 256;
#X obj 281 104 nbx 5 20 0 9 0 1 empty empty empty 0 -8 0 12 -262144
-1 -1 1 256;
#X obj 506 103 nbx 5 20 0 9 0 1 empty empty empty 0 -8 0 12 -262144
-1 -1 0 256;
#X obj 431 103 nbx 5 20 0 9 0 1 empty empty empty 0 -8 0 12 -262144
-1 -1 1 256;
#X obj 356 145 nbx 5 20 0 9 0 1 empty empty empty 0 -8 0 12 -262144
-1 -1 2 256;
#X obj 281 145 nbx 5 20 0 9 0 1 empty empty empty 0 -8 0 12 -262144
-1 -1 1 256;
#X obj 506 144 nbx 5 20 0 9 0 1 empty empty empty 0 -8 0 12 -262144
-1 -1 0 256;
#X obj 431 144 nbx 5 20 0 9 0 1 empty empty empty 0 -8 0 12 -262144
-1 -1 1 256;
#X obj 356 183 nbx 5 20 0 9 0 1 empty empty empty 0 -8 0 12 -262144
-1 -1 3 256;
#X obj 281 183 nbx 5 20 0 9 0 1 empty empty empty 0 -8 0 12 -262144
-1 -1 0 256;
#X obj 506 182 nbx 5 20 0 9 0 1 empty empty empty 0 -8 0 12 -262144
-1 -1 0 256;
#X obj 431 182 nbx 5 20 0 9 0 1 empty empty empty 0 -8 0 12 -262144
-1 -1 0 256;
#X obj 769 65 nbx 5 20 0 9 0 1 empty empty empty 0 -8 0 12 -262144
-1 -1 9 256;
#X obj 694 65 nbx 5 20 0 9 0 1 empty empty empty 0 -8 0 12 -262144
-1 -1 0 256;
#X obj 919 64 nbx 5 20 0 9 0 1 empty empty empty 0 -8 0 12 -262144
-1 -1 0 256;
#X obj 844 64 nbx 5 20 0 9 0 1 empty empty empty 0 -8 0 12 -262144
-1 -1 0 256;
#X obj 768 103 nbx 5 20 0 9 0 1 empty empty empty 0 -8 0 12 -262144
-1 -1 9 256;
#X obj 693 103 nbx 5 20 0 9 0 1 empty empty empty 0 -8 0 12 -262144
-1 -1 0 256;
#X obj 918 102 nbx 5 20 0 9 0 1 empty empty empty 0 -8 0 12 -262144
-1 -1 9 256;
#X obj 843 102 nbx 5 20 0 9 0 1 empty empty empty 0 -8 0 12 -262144
-1 -1 0 256;
#X obj 768 144 nbx 5 20 0 9 0 1 empty empty empty 0 -8 0 12 -262144
-1 -1 9 256;
#X obj 693 144 nbx 5 20 0 9 0 1 empty empty empty 0 -8 0 12 -262144
-1 -1 0 256;
#X obj 918 143 nbx 5 20 0 9 0 1 empty empty empty 0 -8 0 12 -262144
-1 -1 9 256;
#X obj 843 143 nbx 5 20 0 9 0 1 empty empty empty 0 -8 0 12 -262144
-1 -1 0 256;
#X obj 768 182 nbx 5 20 0 9 0 1 empty empty empty 0 -8 0 12 -262144
-1 -1 0 256;
#X obj 693 182 nbx 5 20 0 9 0 1 empty empty empty 0 -8 0 12 -262144
-1 -1 6 256;
#X obj 918 181 nbx 5 20 0 9 0 1 empty empty empty 0 -8 0 12 -262144
-1 -1 9 256;
#X obj 843 181 nbx 5 20 0 9 0 1 empty empty empty 0 -8 0 12 -262144
-1 -1 9 256;
#X obj 1290 65 nbx 5 20 0 9 0 1 empty empty empty 0 -8 0 12 -262144
-1 -1 9 256;
#X obj 1215 65 nbx 5 20 0 9 0 1 empty empty empty 0 -8 0 12 -262144
-1 -1 9 256;
#X obj 1440 64 nbx 5 20 0 9 0 1 empty empty empty 0 -8 0 12 -262144
-1 -1 0 256;
#X obj 1365 64 nbx 5 20 0 9 0 1 empty empty empty 0 -8 0 12 -262144
-1 -1 8 256;
#X obj 1289 103 nbx 5 20 0 9 0 1 empty empty empty 0 -8 0 12 -262144
-1 -1 0 256;
#X obj 1214 103 nbx 5 20 0 9 0 1 empty empty empty 0 -8 0 12 -262144
-1 -1 0 256;
#X obj 1439 102 nbx 5 20 0 9 0 1 empty empty empty 0 -8 0 12 -262144
-1 -1 0 256;
#X obj 1364 102 nbx 5 20 0 9 0 1 empty empty empty 0 -8 0 12 -262144
-1 -1 0 256;
#X obj 1289 144 nbx 5 20 0 9 0 1 empty empty empty 0 -8 0 12 -262144
-1 -1 0 256;
#X obj 1214 144 nbx 5 20 0 9 0 1 empty empty empty 0 -8 0 12 -262144
-1 -1 5 256;
#X obj 1439 143 nbx 5 20 0 9 0 1 empty empty empty 0 -8 0 12 -262144
-1 -1 0 256;
#X obj 1364 143 nbx 5 20 0 9 0 1 empty empty empty 0 -8 0 12 -262144
-1 -1 0 256;
#X obj 1289 182 nbx 5 20 0 9 0 1 empty empty empty 0 -8 0 12 -262144
-1 -1 0 256;
#X obj 1214 182 nbx 5 20 0 9 0 1 empty empty empty 0 -8 0 12 -262144
-1 -1 0 256;
#X obj 1439 181 nbx 5 20 0 9 0 1 empty empty empty 0 -8 0 12 -262144
-1 -1 0 256;
#X obj 1364 181 nbx 5 20 0 9 0 1 empty empty empty 0 -8 0 12 -262144
-1 -1 0 256;
#X obj 18 523 machine, f 264;
#X floatatom 1571 566 5 0 0 0 - - -, f 5;
#X obj 1573 607 outlet;
#X connect 0 0 57 0;
#X connect 1 0 57 1;
#X connect 2 0 57 2;
#X connect 6 0 57 0;
#X connect 7 0 8 0;
#X connect 9 0 57 4;
#X connect 10 0 57 3;
#X connect 11 0 57 6;
#X connect 12 0 57 5;
#X connect 13 0 57 8;
#X connect 14 0 57 7;
#X connect 15 0 57 10;
#X connect 16 0 57 9;
#X connect 17 0 57 12;
#X connect 18 0 57 11;
#X connect 19 0 57 14;
#X connect 20 0 57 13;
#X connect 21 0 57 16;
#X connect 22 0 57 15;
#X connect 23 0 57 18;
#X connect 24 0 57 17;
#X connect 25 0 57 20;
#X connect 26 0 57 19;
#X connect 27 0 57 22;
#X connect 28 0 57 21;
#X connect 29 0 57 24;
#X connect 30 0 57 23;
#X connect 31 0 57 26;
#X connect 32 0 57 25;
#X connect 33 0 57 28;
#X connect 34 0 57 27;
#X connect 35 0 57 30;
#X connect 36 0 57 29;
#X connect 37 0 57 32;
#X connect 38 0 57 31;
#X connect 39 0 57 34;
#X connect 40 0 57 33;
#X connect 41 0 57 36;
#X connect 42 0 57 35;
#X connect 43 0 57 38;
#X connect 44 0 57 37;
#X connect 45 0 57 40;
#X connect 46 0 57 39;
#X connect 47 0 57 42;
#X connect 48 0 57 41;
#X connect 49 0 57 44;
#X connect 50 0 57 43;
#X connect 51 0 57 46;
#X connect 52 0 57 45;
#X connect 53 0 57 48;
#X connect 54 0 57 47;
#X connect 55 0 57 50;
#X connect 56 0 57 49;
#X connect 57 0 7 0;
#X connect 57 1 58 0;
#X connect 58 0 59 0;
