#N canvas 397 116 529 281 10;
#X floatatom 164 31 5 0 0 0 - - -, f 5;
#X floatatom 209 31 5 0 0 0 - - -, f 5;
#X obj 45 98 select 22 25 24 26 112 113 114 115;
#X obj 44 125 bng 15 250 50 0 empty empty empty 17 7 0 10 -262144 -1
-1;
#X obj 73 125 bng 15 250 50 0 empty empty empty 17 7 0 10 -262144 -1
-1;
#X obj 100 125 bng 15 250 50 0 empty empty empty 17 7 0 10 -262144
-1 -1;
#X obj 127 125 bng 15 250 50 0 empty empty empty 17 7 0 10 -262144
-1 -1;
#X obj 155 125 bng 15 250 50 0 empty empty empty 17 7 0 10 -262144
-1 -1;
#X obj 184 125 bng 15 250 50 0 empty empty empty 17 7 0 10 -262144
-1 -1;
#X obj 211 125 bng 15 250 50 0 empty empty empty 17 7 0 10 -262144
-1 -1;
#X obj 238 125 bng 15 250 50 0 empty empty empty 17 7 0 10 -262144
-1 -1;
#X obj 44 145 tgl 15 0 empty empty empty 17 7 0 10 -262144 -1 -1 0
1;
#X obj 82 145 tgl 15 0 empty empty empty 17 7 0 10 -262144 -1 -1 0
1;
#X obj 109 145 tgl 15 0 empty empty empty 17 7 0 10 -262144 -1 -1 0
1;
#X obj 136 145 tgl 15 0 empty empty empty 17 7 0 10 -262144 -1 -1 0
1;
#X obj 164 145 tgl 15 0 empty empty empty 17 7 0 10 -262144 -1 -1 1
1;
#X obj 193 145 tgl 15 0 empty empty empty 17 7 0 10 -262144 -1 -1 1
1;
#X obj 220 145 tgl 15 0 empty empty empty 17 7 0 10 -262144 -1 -1 0
1;
#X obj 247 145 tgl 15 0 empty empty empty 17 7 0 10 -262144 -1 -1 0
1;
#X obj 44 165 outlet;
#X obj 88 165 outlet;
#X obj 132 165 outlet;
#X obj 176 165 outlet;
#X obj 220 165 outlet;
#X obj 264 165 outlet;
#X obj 309 165 outlet;
#X obj 355 165 outlet;
#X obj 252 31 inlet;
#X text 249 15 bank on;
#X obj 209 50 spigot;
#X text 37 184 1;
#X text 89 184 2;
#X text 131 184 3;
#X text 176 184 4;
#X text 220 184 A;
#X text 263 184 B;
#X text 310 184 C;
#X text 354 184 D;
#X obj 408 165 outlet;
#X text 411 182 bank-on;
#X obj 164 10 ctlin;
#X floatatom 210 10 5 0 0 0 - - -, f 5;
#X connect 1 0 29 0;
#X connect 2 0 3 0;
#X connect 2 1 4 0;
#X connect 2 2 5 0;
#X connect 2 3 6 0;
#X connect 2 4 7 0;
#X connect 2 5 8 0;
#X connect 2 6 9 0;
#X connect 2 7 10 0;
#X connect 3 0 11 0;
#X connect 4 0 12 0;
#X connect 5 0 13 0;
#X connect 6 0 14 0;
#X connect 7 0 15 0;
#X connect 8 0 16 0;
#X connect 9 0 17 0;
#X connect 10 0 18 0;
#X connect 11 0 19 0;
#X connect 12 0 20 0;
#X connect 13 0 21 0;
#X connect 14 0 22 0;
#X connect 15 0 23 0;
#X connect 16 0 24 0;
#X connect 17 0 25 0;
#X connect 18 0 26 0;
#X connect 27 0 29 1;
#X connect 27 0 38 0;
#X connect 29 0 2 0;
#X connect 40 0 0 0;
#X connect 40 1 1 0;
#X connect 40 2 41 0;
