#N canvas -7 279 581 328 10;
#X obj 416 252 table \$1 1.152e+006;
#X text 119 14 footswitch;
#N canvas 847 337 379 337 doubletap 0;
#X obj 58 17 inlet;
#X text 98 16 1/0 from footswitch;
#X obj 101 38 sel 1;
#X obj 58 38 sel 0;
#X obj 58 83 timer;
#X obj 101 83 timer;
#X obj 58 104 expr $f1 < 500;
#X obj 58 125 sel 1;
#X obj 58 167 outlet;
#X obj 58 59 bng 15 250 50 0 empty empty empty 17 7 0 10 -262144 -1
-1;
#X obj 101 59 bng 15 250 50 0 empty empty empty 17 7 0 10 -262144 -1
-1;
#X obj 78 58 bng 15 250 50 0 empty empty empty 17 7 0 10 -262144 -1
-1;
#X obj 121 58 bng 15 250 50 0 empty empty empty 17 7 0 10 -262144 -1
-1;
#X obj 58 146 bng 15 250 50 0 empty empty empty 17 7 0 10 -262144 -1
-1;
#X connect 0 0 2 0;
#X connect 0 0 3 0;
#X connect 2 0 10 0;
#X connect 2 1 12 0;
#X connect 3 0 9 0;
#X connect 3 1 11 0;
#X connect 4 0 6 0;
#X connect 5 0 6 0;
#X connect 6 0 7 0;
#X connect 7 0 13 0;
#X connect 9 0 4 0;
#X connect 10 0 5 0;
#X connect 11 0 4 1;
#X connect 12 0 5 1;
#X connect 13 0 8 0;
#X restore 18 92 pd doubletap;
#N canvas 689 164 450 300 clear 0;
#X obj 175 72 notein 1;
#X obj 175 118 spigot;
#X msg 175 139 0;
#X obj 176 183 outlet;
#X obj 175 160 bng 15 250 50 0 empty empty empty 17 7 0 10 -262144
-1 -1;
#X obj 175 97 sel \$2;
#X connect 0 0 5 0;
#X connect 0 1 1 1;
#X connect 1 0 2 0;
#X connect 2 0 3 0;
#X connect 2 0 4 0;
#X connect 5 0 1 0;
#X restore 17 38 pd clear;
#X obj 17 59 s \$1clear;
#N canvas 265 224 512 300 clipout 0;
#X obj 101 144 bng 15 250 50 0 empty empty empty 17 7 0 10 -262144
-1 -1;
#X floatatom 350 128 5 0 0 0 - - -, f 5;
#X obj 351 105 \$2;
#X obj 153 146 bng 15 250 50 0 empty empty empty 17 7 0 10 -262144
-1 -1;
#X obj 173 146 bng 15 250 50 0 empty empty empty 17 7 0 10 -262144
-1 -1;
#X obj 192 146 bng 15 250 50 0 empty empty empty 17 7 0 10 -262144
-1 -1;
#X obj 212 146 bng 15 250 50 0 empty empty empty 17 7 0 10 -262144
-1 -1;
#X obj 233 146 bng 15 250 50 0 empty empty empty 17 7 0 10 -262144
-1 -1;
#X obj 253 146 bng 15 250 50 0 empty empty empty 17 7 0 10 -262144
-1 -1;
#X obj 271 146 bng 15 250 50 0 empty empty empty 17 7 0 10 -262144
-1 -1;
#X obj 291 146 bng 15 250 50 0 empty empty empty 17 7 0 10 -262144
-1 -1;
#X obj 353 64 sel 1 0;
#X obj 309 146 bng 15 250 50 0 empty empty empty 17 7 0 10 -262144
-1 -1;
#X obj 329 146 bng 15 250 50 0 empty empty empty 17 7 0 10 -262144
-1 -1;
#X obj 121 144 bng 15 250 50 0 empty empty empty 17 7 0 10 -262144
-1 -1;
#X obj 364 154 bng 15 250 50 0 empty empty empty 17 7 0 10 -262144
-1 -1;
#X obj 384 154 bng 15 250 50 0 empty empty empty 17 7 0 10 -262144
-1 -1;
#X obj 54 174 clip-out, f 50;
#X text 24 9 clear;
#X text 88 9 que-rec;
#X text 179 8 rec;
#X text 230 6 que-play;
#X text 412 9 off;
#X text 315 5 play/stop, f 79;
#X obj 27 26 r \$1clear;
#X obj 93 26 r \$1que-rec;
#X obj 174 25 r \$1rec;
#X obj 231 26 r \$1que-play;
#X obj 314 25 r \$1play-stop;
#X obj 400 26 r \$1off;
#X floatatom 314 46 5 0 0 0 - - -, f 5;
#X obj 175 49 r \$1rec-over;
#X connect 0 0 2 0;
#X connect 0 0 14 0;
#X connect 0 0 17 3;
#X connect 1 0 17 9;
#X connect 2 0 1 0;
#X connect 3 0 4 0;
#X connect 3 0 17 4;
#X connect 4 0 17 4;
#X connect 5 0 6 0;
#X connect 5 0 17 5;
#X connect 6 0 17 5;
#X connect 7 0 8 0;
#X connect 7 0 17 6;
#X connect 8 0 17 6;
#X connect 9 0 10 0;
#X connect 9 0 17 7;
#X connect 10 0 17 7;
#X connect 11 0 9 0;
#X connect 11 1 12 0;
#X connect 12 0 13 0;
#X connect 12 0 17 8;
#X connect 13 0 17 8;
#X connect 14 0 17 3;
#X connect 15 0 16 0;
#X connect 15 0 17 10;
#X connect 16 0 17 10;
#X connect 24 0 0 0;
#X connect 25 0 3 0;
#X connect 26 0 5 0;
#X connect 27 0 7 0;
#X connect 28 0 11 0;
#X connect 28 0 30 0;
#X connect 29 0 15 0;
#X connect 31 0 5 0;
#X restore 413 219 pd clipout;
#N canvas 13 494 450 300 increment 0;
#X obj 137 64 inlet;
#X msg 137 88 1;
#X obj 137 111 +;
#X obj 137 153 sel 0 1 2;
#X floatatom 137 132 5 0 0 0 - - -, f 5;
#X obj 138 201 outlet;
#X obj 91 201 outlet;
#X obj 231 201 outlet;
#X obj 184 201 outlet;
#X obj 230 65 inlet;
#X text 232 47 clear;
#X text 135 47 increment;
#X connect 0 0 1 0;
#X connect 1 0 2 0;
#X connect 2 0 4 0;
#X connect 3 0 6 0;
#X connect 3 1 5 0;
#X connect 3 2 8 0;
#X connect 3 3 7 0;
#X connect 4 0 3 0;
#X connect 4 0 2 1;
#X connect 9 0 4 0;
#X restore 134 82 pd increment;
#X obj 179 32 r \$1clear;
#N canvas 0 344 1313 644 record 0;
#X obj 151 46 inlet;
#X obj 85 72 spigot;
#X msg 151 74 1;
#X obj 85 95 sel 0;
#X obj 85 47 r bpm4;
#X msg 151 99 0;
#X obj 85 141 tgl 15 0 empty empty empty 17 7 0 10 -262144 -1 -1 0
1;
#X text 154 30 on;
#X msg 98 348 start;
#X msg 229 356 stop;
#X obj 174 356 timer;
#X obj 111 309 bng 15 250 50 0 empty empty empty 17 7 0 10 -262144
-1 -1;
#X obj 211 336 bng 15 250 50 0 empty empty empty 17 7 0 10 -262144
-1 -1;
#X obj 85 167 sel 1 0;
#X obj 104 328 s \$1rec;
#X obj 174 378 * 48;
#X obj 175 419 s \$1length;
#X obj 91 378 tabwrite~ \$1;
#X obj 94 117 r \$1clear;
#X obj 235 336 s \$1stop-rec;
#X obj 595 69 r \$1play-active;
#X obj 595 93 tgl 15 0 empty empty empty 17 7 0 10 -262144 -1 -1 0
1;
#X obj 586 142 spigot;
#X obj 1050 400 tabplay~ \$1;
#X obj 1133 425 bng 15 250 50 0 empty empty empty 17 7 0 10 -262144
-1 -1;
#X obj 779 190 spigot;
#X msg 826 167 1;
#X obj 779 211 sel 0;
#X obj 779 165 r bpm4;
#X msg 825 190 0;
#X obj 587 163 bng 15 250 50 0 empty empty empty 17 7 0 10 -262144
-1 -1;
#X msg 1050 313 0;
#X obj 1087 312 r \$1length;
#X floatatom 1087 333 12 0 0 0 - - -, f 12;
#X obj 1063 119 tgl 15 0 empty empty empty 17 7 0 10 -262144 -1 -1
0 1;
#X msg 735 437 start;
#X msg 978 514 stop;
#X obj 392 175 sel 1 0;
#X obj 735 566 tabwrite~ \$1;
#X obj 1047 74 r \$1clear;
#X obj 1050 422 *~ 1;
#X obj 1001 437 +~;
#X obj 1050 357 pack 0 1;
#X obj 516 185 s \$1que-rec;
#X floatatom 193 400 12 0 0 0 - - -, f 12;
#X obj 1133 445 spigot;
#X obj 420 198 s \$1stop-rec;
#X obj 586 46 r \$1d-tap;
#X obj 741 460 s \$1rec-over;
#X obj 44 355 input;
#X obj 1000 408 input;
#X obj 393 50 r \$1switch;
#X obj 393 89 spigot;
#X obj 1032 99 tgl 15 0 empty empty empty 17 7 0 10 -262144 -1 -1 1
1;
#X obj 978 576 bng 15 250 50 0 empty empty empty 17 7 0 10 -262144
-1 -1;
#X obj 1050 334 bng 15 250 50 0 empty empty empty 17 7 0 10 -262144
-1 -1;
#X obj 785 66 sel 1;
#X msg 785 87 0;
#X obj 1032 446 s~ loop-rec-\$1;
#X obj 98 289 r \$1-rec;
#X obj 229 306 r \$1-stop-rec;
#X obj 85 205 s \$1-rec;
#X obj 104 186 s \$1-stop-rec;
#X obj 392 114 s \$1-toggle-play;
#X obj 978 596 s \$1-toggle-play;
#X obj 823 117 s \$1-toggle-play;
#X obj 779 235 s \$1-toggle-play;
#X obj 724 117 s \$1-toggle-rec;
#X obj 681 235 s \$1-toggle-rec;
#X obj 1036 45 r \$1-toggle-play;
#X obj 1063 96 r \$1-toggle-rec;
#X obj 942 117 s \$1-allow-switch;
#X obj 403 68 r \$1-allow-switch;
#X obj 592 185 s \$1-que-rec;
#X obj 826 146 r \$1-que-rec;
#X obj 1063 161 s \$1-trigger-rec;
#X obj 392 150 r \$1-trigger-rec;
#X obj 1070 142 s \$1-allow-rerec;
#X obj 1166 421 r \$1-allow-rerec;
#X obj 735 413 r \$1-start-rec;
#X obj 392 262 s \$1-start-rec;
#X obj 411 217 s \$1-stop-rec;
#X obj 978 489 r \$1-stop-rec;
#X obj 399 242 s \$1-clear-length;
#X obj 1050 287 r \$1-clear-length;
#X obj 984 555 s \$1-stop-play;
#X obj 1059 378 r \$1-stop-play;
#X obj 617 114 s \$1-rec-over;
#X obj 785 39 r \$1-rec-over;
#X obj 745 485 r \$1-stop-rec-over;
#X obj 990 534 s \$1-stop-rec-over;
#X obj 1001 467 s~ \$1-aud-rec-over;
#X obj 770 535 r~ \$1-aud-rec-over;
#X connect 0 0 2 0;
#X connect 1 0 3 0;
#X connect 2 0 1 1;
#X connect 3 0 5 0;
#X connect 3 0 6 0;
#X connect 4 0 1 0;
#X connect 5 0 1 1;
#X connect 6 0 13 0;
#X connect 8 0 17 0;
#X connect 9 0 17 0;
#X connect 10 0 15 0;
#X connect 11 0 10 0;
#X connect 12 0 10 1;
#X connect 13 0 61 0;
#X connect 13 1 62 0;
#X connect 15 0 16 0;
#X connect 15 0 44 0;
#X connect 18 0 6 0;
#X connect 20 0 21 0;
#X connect 21 0 22 1;
#X connect 21 0 87 0;
#X connect 22 0 30 0;
#X connect 23 0 40 0;
#X connect 23 1 24 0;
#X connect 24 0 45 0;
#X connect 25 0 27 0;
#X connect 26 0 25 1;
#X connect 27 0 29 0;
#X connect 27 0 66 0;
#X connect 27 0 68 0;
#X connect 28 0 25 0;
#X connect 29 0 25 1;
#X connect 30 0 43 0;
#X connect 30 0 73 0;
#X connect 31 0 42 0;
#X connect 31 0 55 0;
#X connect 32 0 33 0;
#X connect 33 0 42 1;
#X connect 34 0 75 0;
#X connect 34 0 77 0;
#X connect 35 0 38 0;
#X connect 35 0 48 0;
#X connect 36 0 54 0;
#X connect 36 0 85 0;
#X connect 36 0 90 0;
#X connect 37 0 80 0;
#X connect 37 0 83 0;
#X connect 37 1 46 0;
#X connect 37 1 81 0;
#X connect 39 0 34 0;
#X connect 39 0 53 0;
#X connect 40 0 41 1;
#X connect 40 0 58 0;
#X connect 41 0 38 0;
#X connect 42 0 23 0;
#X connect 45 0 33 0;
#X connect 45 0 31 0;
#X connect 47 0 22 0;
#X connect 49 0 17 0;
#X connect 50 0 41 0;
#X connect 51 0 52 0;
#X connect 52 0 63 0;
#X connect 53 0 71 0;
#X connect 54 0 64 0;
#X connect 56 0 57 0;
#X connect 57 0 65 0;
#X connect 57 0 67 0;
#X connect 59 0 14 0;
#X connect 59 0 8 0;
#X connect 59 0 11 0;
#X connect 60 0 12 0;
#X connect 60 0 19 0;
#X connect 60 0 9 0;
#X connect 69 0 53 0;
#X connect 70 0 34 0;
#X connect 72 0 52 1;
#X connect 74 0 26 0;
#X connect 76 0 37 0;
#X connect 78 0 45 1;
#X connect 79 0 35 0;
#X connect 82 0 36 0;
#X connect 84 0 31 0;
#X connect 84 0 33 0;
#X connect 86 0 23 0;
#X connect 88 0 56 0;
#X connect 89 0 38 0;
#X restore 147 133 pd record;
#X obj 157 111 s \$1que-rec;
#X obj 248 135 s \$1que-play;
#N canvas 1 244 1052 733 play-loop 1;
#X obj 179 174 r bpm4;
#X obj 55 209 spigot;
#X text 234 4 from que-play;
#X msg 19 252 1;
#X obj 97 339 tgl 15 0 empty empty empty 17 7 0 10 -262144 -1 -1 0
1;
#X text 115 339 active;
#X obj 97 408 sel 1;
#X msg 134 522 stop;
#X text 674 26 length;
#X obj 531 126 pack 0 1;
#X obj 274 21 r \$1que-play;
#X obj 678 45 r \$1length;
#X obj 531 179 tabplay~ \$1;
#X obj 500 255 *~ 1;
#X obj 76 609 s \$1play-stop;
#X obj 97 273 r \$1clear;
#X msg 70 567 1, f 1;
#X obj 275 62 sel 1 0;
#X floatatom 274 42 5 0 0 0 - - -, f 5;
#X msg 275 88 1;
#X msg 134 569 0;
#X obj 179 198 spigot;
#X msg 304 87 1;
#X msg 179 240 0;
#X floatatom 15 230 5 0 0 0 - - -, f 5;
#X floatatom 225 219 5 0 0 0 - - -, f 5;
#X msg 55 252 0;
#X obj 55 231 sel 0;
#X floatatom 677 134 12 0 0 0 - - -, f 12;
#X msg 622 206 1;
#X obj 270 544 spigot;
#X floatatom 369 600 5 0 0 0 - - -, f 5;
#X obj 267 570 +;
#X obj 634 388 spigot;
#X obj 654 440 +;
#X floatatom 684 439 5 0 0 0 - - -, f 5;
#X msg 681 361 0;
#X msg 306 522 1;
#X msg 282 498 0;
#X obj 684 501 sel 0;
#X msg 553 411 0;
#X obj 684 459 spigot;
#X obj 321 498 r \$1rec;
#X obj 680 337 r \$1clear;
#X obj 282 477 r \$1stop-rec;
#X obj 98 386 s \$1play-active;
#X obj 721 440 r \$1play-active;
#X obj 713 113 bng 15 250 50 0 empty empty empty 17 7 0 10 -262144
-1 -1;
#X obj 691 112 bng 15 250 50 0 empty empty empty 17 7 0 10 -262144
-1 -1;
#X obj 594 205 bng 15 250 50 0 empty empty empty 17 7 0 10 -262144
-1 -1;
#X msg 340 522 0;
#X obj 60 29 r \$1switch;
#X obj 60 96 spigot;
#X msg 60 117 0;
#X obj 60 50 delay 500;
#X obj 899 29 inlet;
#X text 898 7 track vol;
#X obj 499 282 s~ loop-play-\$1;
#X obj 179 220 sel 0;
#X obj 899 59 s \$1-track-vol;
#X obj 521 231 r \$1-track-vol;
#X obj 60 138 s \$1-switch-in;
#X obj 362 21 r \$1-switch-in;
#X obj 268 129 s \$1-allow-1;
#X obj 356 128 s \$1-allow-2;
#X obj 215 147 r \$1-allow-2;
#X obj 98 171 r \$1-allow-1;
#X obj 712 362 r \$1-play-stop;
#X obj 70 632 s \$1-play-stop;
#X obj 221 167 r \$1clear;
#X obj 105 190 r \$1clear;
#X obj 251 520 r bpm4;
#X obj 634 361 r bpm4;
#X obj 55 172 r bpm4;
#X obj 106 293 r \$1-activate;
#X obj 179 261 s \$1-deactivate;
#X obj 110 313 r \$1-deactivate;
#X obj 10 274 s \$1-activate;
#X obj 538 151 r \$1-tab-stop;
#X obj 144 549 s \$1-tab-stop;
#X obj 369 578 r \$1clear;
#X obj 684 389 r \$1clear;
#X obj 369 630 s \$1-phrase-length;
#X obj 711 478 r \$1-phrase-length;
#X obj 540 99 s \$1-phrase-reset;
#X obj 691 413 r \$1-phrase-reset;
#X obj 684 522 s \$1-send-0;
#X obj 553 389 r \$1-send-0;
#X obj 531 51 r \$1-send-0;
#X obj 691 68 r \$1-play-stop;
#X obj 553 432 s \$1-bang-0;
#X obj 713 89 r \$1-bang-0;
#X obj 130 499 r \$1-stop-active;
#X obj 125 434 s \$1-stop-active;
#X obj 94 456 s \$1-start-active;
#X obj 66 480 r \$1-start-active;
#X msg 531 72 0;
#X obj 111 76 r \$1-play-active;
#X obj 104 362 s \$1-play-active;
#X obj 517 27 r \$1-start-active;
#X connect 0 0 21 0;
#X connect 1 0 24 0;
#X connect 1 0 27 0;
#X connect 3 0 77 0;
#X connect 4 0 6 0;
#X connect 4 0 45 0;
#X connect 4 0 98 0;
#X connect 6 0 94 0;
#X connect 6 1 93 0;
#X connect 7 0 20 0;
#X connect 7 0 79 0;
#X connect 9 0 12 0;
#X connect 10 0 18 0;
#X connect 11 0 9 1;
#X connect 11 0 28 0;
#X connect 12 0 13 0;
#X connect 12 1 29 0;
#X connect 12 1 49 0;
#X connect 13 0 57 0;
#X connect 15 0 4 0;
#X connect 16 0 14 0;
#X connect 16 0 68 0;
#X connect 17 0 19 0;
#X connect 17 1 22 0;
#X connect 18 0 17 0;
#X connect 19 0 63 0;
#X connect 20 0 14 0;
#X connect 21 0 25 0;
#X connect 21 0 58 0;
#X connect 22 0 64 0;
#X connect 23 0 21 1;
#X connect 23 0 75 0;
#X connect 26 0 1 1;
#X connect 27 0 3 0;
#X connect 27 0 26 0;
#X connect 28 0 9 1;
#X connect 30 0 32 0;
#X connect 31 0 32 1;
#X connect 31 0 82 0;
#X connect 32 0 31 0;
#X connect 33 0 34 0;
#X connect 34 0 35 0;
#X connect 35 0 34 1;
#X connect 35 0 41 0;
#X connect 36 0 33 1;
#X connect 37 0 30 1;
#X connect 38 0 30 1;
#X connect 39 0 86 0;
#X connect 40 0 35 0;
#X connect 40 0 90 0;
#X connect 41 0 39 0;
#X connect 42 0 37 0;
#X connect 42 0 50 0;
#X connect 43 0 36 0;
#X connect 44 0 38 0;
#X connect 46 0 41 1;
#X connect 47 0 28 0;
#X connect 48 0 28 0;
#X connect 50 0 31 0;
#X connect 51 0 54 0;
#X connect 52 0 53 0;
#X connect 53 0 61 0;
#X connect 54 0 52 0;
#X connect 55 0 59 0;
#X connect 58 0 23 0;
#X connect 60 0 13 1;
#X connect 62 0 18 0;
#X connect 65 0 21 1;
#X connect 66 0 1 1;
#X connect 67 0 33 1;
#X connect 69 0 21 1;
#X connect 70 0 1 1;
#X connect 71 0 30 0;
#X connect 72 0 33 0;
#X connect 73 0 1 0;
#X connect 74 0 4 0;
#X connect 76 0 4 0;
#X connect 78 0 12 0;
#X connect 80 0 31 0;
#X connect 81 0 35 0;
#X connect 83 0 39 1;
#X connect 85 0 35 0;
#X connect 87 0 40 0;
#X connect 88 0 96 0;
#X connect 89 0 48 0;
#X connect 91 0 47 0;
#X connect 92 0 7 0;
#X connect 95 0 16 0;
#X connect 96 0 9 0;
#X connect 96 0 84 0;
#X connect 97 0 52 1;
#X connect 99 0 96 0;
#X restore 353 108 pd play-loop;
#X obj 463 26 inlet;
#X text 461 9 bank-on;
#X obj 482 98 s \$1clear;
#X obj 463 52 sel 0 1;
#X obj 464 123 s \$1off;
#X msg 483 73 0;
#X msg 248 113 1;
#X obj 134 32 inlet;
#X obj 124 59 s \$1switch;
#X obj 19 137 s \$1d-tap;
#X obj 324 33 inlet;
#X text 317 14 track-vol;
#X obj 197 271 s~ \$1-aud;
#X obj 146 216 r~ loop-rec-\$1;
#X obj 258 217 r~ loop-play-\$1;
#X connect 2 0 21 0;
#X connect 3 0 4 0;
#X connect 6 1 8 0;
#X connect 6 1 9 0;
#X connect 6 2 8 0;
#X connect 6 2 18 0;
#X connect 6 3 18 0;
#X connect 7 0 6 1;
#X connect 12 0 15 0;
#X connect 15 0 16 0;
#X connect 15 1 17 0;
#X connect 17 0 14 0;
#X connect 18 0 10 0;
#X connect 19 0 2 0;
#X connect 19 0 6 0;
#X connect 19 0 20 0;
#X connect 22 0 11 0;
#X connect 25 0 24 0;
#X connect 26 0 24 0;
