#N canvas 86 622 350 300 10;
#X obj 82 187 outlet~;
#X obj 63 41 adc~;
#N canvas 1431 0 480 325 input-vol 0;
#X floatatom 132 63 5 0 0 0 - - -, f 5;
#X floatatom 169 75 5 0 0 0 - - -, f 5;
#X floatatom 206 69 5 0 0 0 - - -, f 5;
#X obj 163 31 ctlin;
#X obj 132 83 / 100;
#X obj 94 136 spigot;
#X floatatom 94 157 5 0 0 0 - - -, f 5;
#X msg 170 134 1;
#X obj 170 155 delay 100;
#X msg 170 176 0;
#X obj 94 177 outlet;
#X obj 169 95 sel 4;
#X connect 0 0 4 0;
#X connect 1 0 11 0;
#X connect 3 0 0 0;
#X connect 3 1 1 0;
#X connect 3 2 2 0;
#X connect 4 0 5 0;
#X connect 5 0 6 0;
#X connect 6 0 10 0;
#X connect 7 0 5 1;
#X connect 7 0 8 0;
#X connect 8 0 9 0;
#X connect 9 0 5 1;
#X connect 11 0 7 0;
#X restore 185 92 pd input-vol;
#X msg 193 66 0 100;
#X obj 121 40 loadbang;
#X msg 121 64 1 100;
#X obj 121 104 line;
#X obj 83 133 *~ 0;
#X obj 186 121 inlet;
#X connect 1 1 7 0;
#X connect 2 0 6 0;
#X connect 3 0 6 0;
#X connect 4 0 5 0;
#X connect 5 0 6 0;
#X connect 6 0 7 1;
#X connect 7 0 0 0;
#X connect 8 0 6 0;
