#N canvas 86 622 649 300 10;
#X obj 481 186 outlet~;
#X obj 339 24 adc~;
#X obj 378 144 pitch-down;
#N canvas 1431 0 480 325 input-vol 0;
#X floatatom 132 63 5 0 0 0 - - -, f 5;
#X floatatom 169 75 5 0 0 0 - - -, f 5;
#X floatatom 206 69 5 0 0 0 - - -, f 5;
#X obj 163 31 ctlin;
#X obj 132 83 / 100;
#X obj 94 136 spigot;
#X floatatom 94 157 5 0 0 0 - - -, f 5;
#X msg 170 134 1;
#X obj 170 155 delay 100;
#X msg 170 176 0;
#X obj 94 177 outlet;
#X obj 169 95 sel 4;
#X connect 0 0 4 0;
#X connect 1 0 11 0;
#X connect 3 0 0 0;
#X connect 3 1 1 0;
#X connect 3 2 2 0;
#X connect 4 0 5 0;
#X connect 5 0 6 0;
#X connect 6 0 10 0;
#X connect 7 0 5 1;
#X connect 7 0 8 0;
#X connect 8 0 9 0;
#X connect 9 0 5 1;
#X connect 11 0 7 0;
#X restore 528 76 pd input-vol;
#X msg 536 50 0 100;
#X obj 464 24 loadbang;
#X msg 464 48 1 100;
#X obj 464 88 line;
#X obj 426 117 *~ 0;
#X obj 529 105 inlet;
#X obj 334 50 lop~;
#X obj 146 22 notein;
#X floatatom 146 43 5 0 0 0 - - -, f 5;
#X floatatom 188 43 5 0 0 0 - - -, f 5;
#X obj 146 75 spigot;
#X obj 146 96 sel 64 65 66 67;
#X msg 199 133 85;
#X obj 77 95 loadbang;
#X obj 375 51 mtof;
#X obj 146 178 s \$0-low-pass;
#X obj 375 24 r \$0-low-pass;
#X msg 129 132 65;
#X msg 164 133 75;
#X msg 235 133 95;
#X connect 1 1 10 0;
#X connect 2 0 0 0;
#X connect 3 0 7 0;
#X connect 4 0 7 0;
#X connect 5 0 6 0;
#X connect 6 0 7 0;
#X connect 7 0 8 1;
#X connect 8 0 2 0;
#X connect 9 0 7 0;
#X connect 10 0 8 0;
#X connect 11 0 12 0;
#X connect 11 1 13 0;
#X connect 12 0 14 0;
#X connect 13 0 14 1;
#X connect 14 0 15 0;
#X connect 15 0 21 0;
#X connect 15 1 22 0;
#X connect 15 2 16 0;
#X connect 15 3 23 0;
#X connect 16 0 19 0;
#X connect 17 0 22 0;
#X connect 18 0 10 1;
#X connect 20 0 18 0;
#X connect 21 0 19 0;
#X connect 22 0 19 0;
#X connect 23 0 19 0;
