#N canvas 1341 568 450 300 10;
#X obj 234 175 outlet~;
#X obj 111 90 adc~;
#X obj 131 133 pitch-down;
#N canvas 1431 0 480 325 input-vol 1;
#X floatatom 132 63 5 0 0 0 - - -, f 5;
#X floatatom 169 75 5 0 0 0 - - -, f 5;
#X floatatom 206 69 5 0 0 0 - - -, f 5;
#X obj 163 31 ctlin;
#X obj 169 95 sel 48;
#X obj 132 83 / 100;
#X obj 94 136 spigot;
#X floatatom 94 157 5 0 0 0 - - -, f 5;
#X msg 169 116 1;
#X obj 169 137 delay 100;
#X msg 169 158 0;
#X obj 94 177 outlet;
#X connect 0 0 5 0;
#X connect 1 0 4 0;
#X connect 3 0 0 0;
#X connect 3 1 1 0;
#X connect 3 2 2 0;
#X connect 4 0 8 0;
#X connect 5 0 6 0;
#X connect 6 0 7 0;
#X connect 7 0 11 0;
#X connect 8 0 6 1;
#X connect 8 0 9 0;
#X connect 9 0 10 0;
#X connect 10 0 6 1;
#X restore 272 80 pd input-vol;
#X msg 289 39 0 100;
#X obj 217 13 loadbang;
#X msg 217 37 1 100;
#X obj 217 77 line;
#X obj 179 106 *~ 0;
#X connect 1 1 8 0;
#X connect 2 0 0 0;
#X connect 3 0 7 0;
#X connect 4 0 7 0;
#X connect 5 0 6 0;
#X connect 6 0 7 0;
#X connect 7 0 8 1;
#X connect 8 0 2 0;
