#N canvas 888 3 1018 572 10;
#X obj 205 61 inlet;
#X obj 156 297 adc~;
#X obj 205 263 tgl 15 0 empty empty empty 17 7 0 10 -262144 -1 -1 0
1;
#X obj 205 287 sel 1 0;
#X msg 190 315 start;
#X msg 236 314 stop;
#X obj 742 67 bng 15 250 50 0 empty empty empty 17 7 0 10 -262144 -1
-1;
#X msg 794 67 stop;
#X obj 814 170 *~;
#X obj 814 191 dac~;
#X msg 901 119 0 100;
#X obj 842 145 line~;
#X obj 743 172 env~ 16384;
#X floatatom 743 201 5 0 0 0 - - -, f 5;
#X obj 819 116 bng 15 250 50 0 empty empty empty 17 7 0 10 -262144
-1 -1;
#X floatatom 206 129 5 0 0 0 - - -, f 5;
#X obj 206 106 +;
#X msg 206 83 1;
#X obj 695 45 tgl 15 0 empty empty empty 17 7 0 10 -262144 -1 -1 0
1;
#X floatatom 695 85 5 0 0 0 - - -, f 5;
#X obj 694 15 bng 15 250 50 0 empty empty empty 17 7 0 10 -262144 -1
-1;
#X obj 739 47 sel 1 0;
#X obj 625 69 spigot;
#X msg 843 119 0.9 100;
#X obj 854 97 loadbang;
#X msg 177 107 0;
#X text 181 42 footswitch;
#X text 570 87 retrigger if active;
#X floatatom 320 77 5 0 0 0 - - -, f 5;
#X obj 155 349 tabwrite~ \$1;
#X obj 253 218 spigot;
#X msg 254 194 1;
#X msg 288 194 0;
#X obj 253 239 sel 0;
#X text 313 39 progress fine;
#X obj 449 218 spigot;
#X msg 451 190 1;
#X msg 484 190 0;
#X obj 447 246 sel 0;
#X obj 320 54 r bpm4;
#X obj 625 24 r bpm1;
#X obj 625 45 sel 0;
#X obj 51 148 timer;
#X floatatom 51 169 10 0 0 0 - - -, f 10;
#X obj 51 196 expr $f1 < 500;
#X floatatom 51 217 5 0 0 0 - - -, f 5;
#X obj 51 237 sel 1;
#X msg 51 258 0;
#X obj 336 364 loadbang;
#X obj 337 387 bng 15 250 50 0 empty empty empty 17 7 0 10 -262144
-1 -1;
#X floatatom 627 387 5 0 0 0 - - -, f 5;
#X obj 744 97 tabplay~ \$1;
#X obj 825 518 table \$1 288000;
#X obj 628 364 \$2;
#X obj 430 405 bng 15 250 50 0 empty empty empty 17 7 0 10 -262144
-1 -1;
#X obj 450 405 bng 15 250 50 0 empty empty empty 17 7 0 10 -262144
-1 -1;
#X obj 469 405 bng 15 250 50 0 empty empty empty 17 7 0 10 -262144
-1 -1;
#X obj 489 405 bng 15 250 50 0 empty empty empty 17 7 0 10 -262144
-1 -1;
#X obj 510 405 bng 15 250 50 0 empty empty empty 17 7 0 10 -262144
-1 -1;
#X obj 530 405 bng 15 250 50 0 empty empty empty 17 7 0 10 -262144
-1 -1;
#X obj 548 405 bng 15 250 50 0 empty empty empty 17 7 0 10 -262144
-1 -1;
#X obj 568 405 bng 15 250 50 0 empty empty empty 17 7 0 10 -262144
-1 -1;
#X obj 630 323 sel 1 0;
#X obj 586 405 bng 15 250 50 0 empty empty empty 17 7 0 10 -262144
-1 -1;
#X obj 606 405 bng 15 250 50 0 empty empty empty 17 7 0 10 -262144
-1 -1;
#X obj 357 387 bng 15 250 50 0 empty empty empty 17 7 0 10 -262144
-1 -1;
#X obj 343 115 sel 0 1 2;
#X text 557 244 quantize on zero;
#X obj 518 219 spigot;
#X msg 520 191 1;
#X msg 553 191 0;
#X obj 516 247 sel 0;
#X msg 516 268 0;
#X msg 476 267 1;
#X floatatom 51 21 5 0 0 0 - - -, f 5;
#X obj 694 110 sel 1;
#X obj 102 270 outlet;
#X obj 331 433 clip-out, f 50;
#X msg 447 267 0;
#X obj 52 114 sel 1 0;
#X obj 107 115 sel 0 1;
#X obj 122 147 timer;
#X floatatom 122 168 5 0 0 0 - - -, f 5;
#X connect 0 0 17 0;
#X connect 0 0 74 0;
#X connect 1 0 29 0;
#X connect 1 1 29 0;
#X connect 2 0 3 0;
#X connect 3 0 4 0;
#X connect 3 0 56 0;
#X connect 3 1 5 0;
#X connect 4 0 29 0;
#X connect 5 0 29 0;
#X connect 6 0 51 0;
#X connect 7 0 51 0;
#X connect 8 0 9 0;
#X connect 8 0 9 1;
#X connect 10 0 11 0;
#X connect 11 0 8 1;
#X connect 12 0 13 0;
#X connect 15 0 16 1;
#X connect 15 0 66 0;
#X connect 16 0 15 0;
#X connect 17 0 16 0;
#X connect 18 0 19 0;
#X connect 18 0 62 0;
#X connect 19 0 21 0;
#X connect 19 0 22 1;
#X connect 19 0 75 0;
#X connect 20 0 18 0;
#X connect 21 0 6 0;
#X connect 21 1 7 0;
#X connect 22 0 6 0;
#X connect 23 0 11 0;
#X connect 24 0 23 0;
#X connect 25 0 15 0;
#X connect 25 0 2 0;
#X connect 25 0 18 0;
#X connect 28 0 30 0;
#X connect 28 0 35 0;
#X connect 28 0 68 0;
#X connect 30 0 33 0;
#X connect 31 0 30 1;
#X connect 32 0 30 1;
#X connect 33 0 32 0;
#X connect 33 0 2 0;
#X connect 35 0 38 0;
#X connect 36 0 35 1;
#X connect 37 0 35 1;
#X connect 38 0 37 0;
#X connect 38 0 73 0;
#X connect 38 0 78 0;
#X connect 39 0 28 0;
#X connect 40 0 41 0;
#X connect 41 0 22 0;
#X connect 42 0 43 0;
#X connect 43 0 44 0;
#X connect 44 0 45 0;
#X connect 45 0 46 0;
#X connect 46 0 47 0;
#X connect 47 0 37 0;
#X connect 47 0 69 0;
#X connect 48 0 49 0;
#X connect 49 0 53 0;
#X connect 49 0 65 0;
#X connect 49 0 77 3;
#X connect 50 0 77 9;
#X connect 51 0 8 0;
#X connect 51 0 12 0;
#X connect 51 1 14 0;
#X connect 53 0 50 0;
#X connect 54 0 55 0;
#X connect 54 0 77 4;
#X connect 55 0 77 4;
#X connect 56 0 57 0;
#X connect 56 0 77 5;
#X connect 57 0 77 5;
#X connect 58 0 59 0;
#X connect 58 0 77 6;
#X connect 59 0 77 6;
#X connect 60 0 61 0;
#X connect 60 0 77 7;
#X connect 61 0 77 7;
#X connect 62 0 60 0;
#X connect 62 1 63 0;
#X connect 63 0 64 0;
#X connect 63 0 77 8;
#X connect 64 0 77 8;
#X connect 65 0 77 3;
#X connect 66 0 49 0;
#X connect 66 1 31 0;
#X connect 66 1 54 0;
#X connect 66 2 36 0;
#X connect 66 2 56 0;
#X connect 66 3 36 0;
#X connect 66 3 58 0;
#X connect 68 0 71 0;
#X connect 69 0 68 1;
#X connect 70 0 68 1;
#X connect 71 0 70 0;
#X connect 71 0 72 0;
#X connect 72 0 18 0;
#X connect 73 0 18 0;
#X connect 74 0 79 0;
#X connect 74 0 80 0;
#X connect 78 0 2 0;
#X connect 79 0 42 0;
#X connect 79 1 42 1;
#X connect 80 0 81 0;
#X connect 80 1 81 1;
#X connect 81 0 82 0;
#X connect 82 0 44 0;
