#N canvas 6 332 1690 623 10;
#X obj 335 40 inlet;
#X obj 204 290 tgl 15 0 empty empty empty 17 7 0 10 -262144 -1 -1 0
1;
#X obj 204 316 sel 1 0;
#X msg 189 344 start;
#X msg 236 345 stop;
#X obj 1292 154 bng 15 250 50 0 empty empty empty 17 7 0 10 -262144
-1 -1;
#X msg 1341 124 stop;
#X obj 1380 220 *~;
#X msg 1482 244 0 100;
#X obj 1423 270 line~;
#X obj 1309 222 env~ 16384;
#X floatatom 1309 251 5 0 0 0 - - -, f 5;
#X obj 1373 172 bng 15 250 50 0 empty empty empty 17 7 0 10 -262144
-1 -1;
#X floatatom 340 111 5 0 0 0 - - -, f 5;
#X obj 340 88 +;
#X msg 340 65 1;
#X obj 1261 95 tgl 15 0 empty empty empty 17 7 0 10 -262144 -1 -1 0
1;
#X floatatom 1261 135 5 0 0 0 - - -, f 5;
#X obj 1260 65 bng 15 250 50 0 empty empty empty 17 7 0 10 -262144
-1 -1;
#X obj 1305 97 sel 1 0;
#X obj 1190 118 spigot;
#X obj 1435 222 loadbang;
#X msg 311 89 0;
#X text 311 21 footswitch;
#X text 1136 137 retrigger if active;
#X floatatom 886 83 5 0 0 0 - - -, f 5;
#X obj 154 378 tabwrite~ \$1;
#X obj 242 261 spigot;
#X msg 243 237 1;
#X msg 277 237 0;
#X obj 242 282 sel 0;
#X text 875 42 progress fine;
#X obj 1015 268 spigot;
#X msg 1017 240 1;
#X msg 1050 240 0;
#X obj 1013 296 sel 0;
#X obj 882 57 r bpm4;
#X obj 1191 45 r bpm1;
#X obj 1191 95 sel 0;
#X obj 50 177 timer;
#X floatatom 50 198 10 0 0 0 - - -, f 10;
#X obj 50 225 expr $f1 < 500;
#X floatatom 50 246 5 0 0 0 - - -, f 5;
#X obj 50 266 sel 1;
#X msg 50 287 0;
#X obj 377 432 bng 15 250 50 0 empty empty empty 17 7 0 10 -262144
-1 -1;
#X floatatom 626 416 5 0 0 0 - - -, f 5;
#X obj 1310 147 tabplay~ \$1;
#X obj 627 393 \$2;
#X obj 429 434 bng 15 250 50 0 empty empty empty 17 7 0 10 -262144
-1 -1;
#X obj 449 434 bng 15 250 50 0 empty empty empty 17 7 0 10 -262144
-1 -1;
#X obj 468 434 bng 15 250 50 0 empty empty empty 17 7 0 10 -262144
-1 -1;
#X obj 488 434 bng 15 250 50 0 empty empty empty 17 7 0 10 -262144
-1 -1;
#X obj 509 434 bng 15 250 50 0 empty empty empty 17 7 0 10 -262144
-1 -1;
#X obj 529 434 bng 15 250 50 0 empty empty empty 17 7 0 10 -262144
-1 -1;
#X obj 547 434 bng 15 250 50 0 empty empty empty 17 7 0 10 -262144
-1 -1;
#X obj 567 434 bng 15 250 50 0 empty empty empty 17 7 0 10 -262144
-1 -1;
#X obj 629 352 sel 1 0;
#X obj 585 434 bng 15 250 50 0 empty empty empty 17 7 0 10 -262144
-1 -1;
#X obj 605 434 bng 15 250 50 0 empty empty empty 17 7 0 10 -262144
-1 -1;
#X obj 397 432 bng 15 250 50 0 empty empty empty 17 7 0 10 -262144
-1 -1;
#X obj 340 131 sel 0 1 2;
#X text 1123 294 quantize on zero;
#X obj 1084 269 spigot;
#X msg 1086 241 1;
#X msg 1119 241 0;
#X obj 1082 297 sel 0;
#X msg 1082 318 0;
#X msg 1042 317 1;
#X floatatom 50 50 5 0 0 0 - - -, f 5;
#X obj 101 299 outlet;
#X msg 1013 317 0;
#X obj 51 143 sel 1 0;
#X obj 106 144 sel 0 1;
#X obj 121 176 timer;
#X floatatom 121 197 5 0 0 0 - - -, f 5;
#X obj 514 39 inlet;
#X text 512 23 bank-on;
#X obj 640 442 bng 15 250 50 0 empty empty empty 17 7 0 10 -262144
-1 -1;
#X obj 660 442 bng 15 250 50 0 empty empty empty 17 7 0 10 -262144
-1 -1;
#X floatatom 518 63 5 0 0 0 - - -, f 5;
#X obj 512 82 sel 1 0;
#X obj 236 379 timer;
#X floatatom 155 400 15 0 0 0 - - -, f 15;
#X obj 824 547 table \$1 1.152e+006, f 26;
#X obj 155 514 s \$1length;
#X obj 1443 34 r \$1length;
#X obj 1403 81 pack 0 1;
#X floatatom 1466 57 15 0 0 0 - - -, f 15;
#X obj 1402 105 symbol;
#X obj 1405 55 bng 15 250 50 0 empty empty empty 17 7 0 10 -262144
-1 -1;
#X obj 1306 60 bng 15 250 50 0 empty empty empty 17 7 0 10 -262144
-1 -1;
#X text 1475 84 TODO PDDAW-9;
#X obj 155 464 * 48;
#X msg 1405 35 0;
#X obj 1449 147 spigot;
#X obj 1402 170 bng 15 250 50 0 empty empty empty 17 7 0 10 -262144
-1 -1;
#X msg 1344 192 1;
#X msg 1406 193 0;
#X obj 1401 146 spigot;
#X obj 1400 124 sel 1;
#X obj 949 135 spigot;
#X floatatom 978 161 5 0 0 0 - - -, f 5;
#X obj 949 160 +;
#X obj 1018 123 spigot;
#X obj 1018 144 +;
#X floatatom 1041 164 5 0 0 0 - - -, f 5;
#X msg 1036 85 1;
#X msg 1005 73 0;
#X msg 983 97 1;
#X msg 952 85 0;
#X msg 1373 192 0;
#X obj 1041 204 sel 0;
#X msg 1093 213 0;
#X obj 1041 184 spigot;
#X obj 330 462 clip-out, f 50;
#X obj 179 19 notein 1;
#X obj 179 44 sel \$2;
#X obj 179 65 spigot;
#X obj 140 344 input;
#X obj 1381 329 output;
#X msg 1424 244 1 100;
#X connect 0 0 15 0;
#X connect 0 0 69 0;
#X connect 1 0 2 0;
#X connect 2 0 3 0;
#X connect 2 0 51 0;
#X connect 2 0 82 0;
#X connect 2 0 109 0;
#X connect 2 1 4 0;
#X connect 2 1 82 1;
#X connect 2 1 110 0;
#X connect 3 0 26 0;
#X connect 4 0 26 0;
#X connect 5 0 47 0;
#X connect 6 0 47 0;
#X connect 7 0 120 0;
#X connect 8 0 9 0;
#X connect 9 0 7 1;
#X connect 10 0 11 0;
#X connect 12 0 97 0;
#X connect 12 0 111 0;
#X connect 13 0 14 1;
#X connect 13 0 61 0;
#X connect 14 0 13 0;
#X connect 15 0 14 0;
#X connect 16 0 17 0;
#X connect 16 0 57 0;
#X connect 16 0 95 1;
#X connect 16 0 99 1;
#X connect 17 0 19 0;
#X connect 17 0 20 1;
#X connect 17 0 114 1;
#X connect 18 0 16 0;
#X connect 19 0 94 0;
#X connect 19 0 107 0;
#X connect 19 1 6 0;
#X connect 21 0 121 0;
#X connect 22 0 13 0;
#X connect 22 0 1 0;
#X connect 22 0 16 0;
#X connect 22 0 106 0;
#X connect 22 0 102 0;
#X connect 22 0 108 0;
#X connect 22 0 45 0;
#X connect 25 0 27 0;
#X connect 25 0 32 0;
#X connect 25 0 63 0;
#X connect 25 0 101 0;
#X connect 25 0 104 0;
#X connect 27 0 30 0;
#X connect 28 0 27 1;
#X connect 29 0 27 1;
#X connect 30 0 29 0;
#X connect 30 0 1 0;
#X connect 32 0 35 0;
#X connect 33 0 32 1;
#X connect 34 0 32 1;
#X connect 35 0 34 0;
#X connect 35 0 68 0;
#X connect 35 0 71 0;
#X connect 36 0 25 0;
#X connect 37 0 38 0;
#X connect 38 0 20 0;
#X connect 39 0 40 0;
#X connect 40 0 41 0;
#X connect 41 0 42 0;
#X connect 42 0 43 0;
#X connect 43 0 44 0;
#X connect 44 0 34 0;
#X connect 44 0 64 0;
#X connect 45 0 48 0;
#X connect 45 0 60 0;
#X connect 45 0 115 3;
#X connect 46 0 115 9;
#X connect 47 0 7 0;
#X connect 47 0 10 0;
#X connect 47 1 12 0;
#X connect 48 0 46 0;
#X connect 49 0 50 0;
#X connect 49 0 115 4;
#X connect 50 0 115 4;
#X connect 51 0 52 0;
#X connect 51 0 115 5;
#X connect 52 0 115 5;
#X connect 53 0 54 0;
#X connect 53 0 115 6;
#X connect 54 0 115 6;
#X connect 55 0 56 0;
#X connect 55 0 115 7;
#X connect 56 0 115 7;
#X connect 57 0 55 0;
#X connect 57 1 58 0;
#X connect 58 0 59 0;
#X connect 58 0 115 8;
#X connect 59 0 115 8;
#X connect 60 0 115 3;
#X connect 61 0 45 0;
#X connect 61 1 28 0;
#X connect 61 1 49 0;
#X connect 61 2 33 0;
#X connect 61 2 51 0;
#X connect 61 3 33 0;
#X connect 61 3 53 0;
#X connect 63 0 66 0;
#X connect 64 0 63 1;
#X connect 65 0 63 1;
#X connect 66 0 65 0;
#X connect 66 0 67 0;
#X connect 67 0 16 0;
#X connect 68 0 16 0;
#X connect 69 0 72 0;
#X connect 69 0 73 0;
#X connect 71 0 1 0;
#X connect 72 0 39 0;
#X connect 72 1 39 1;
#X connect 73 0 74 0;
#X connect 73 1 74 1;
#X connect 74 0 75 0;
#X connect 75 0 41 0;
#X connect 76 0 80 0;
#X connect 76 0 81 0;
#X connect 78 0 79 0;
#X connect 78 0 115 10;
#X connect 79 0 115 10;
#X connect 81 0 45 0;
#X connect 81 1 78 0;
#X connect 82 0 83 0;
#X connect 83 0 93 0;
#X connect 86 0 87 1;
#X connect 86 0 88 0;
#X connect 86 0 94 0;
#X connect 87 0 89 0;
#X connect 87 0 47 0;
#X connect 88 0 87 1;
#X connect 91 0 19 0;
#X connect 93 0 85 0;
#X connect 94 0 87 0;
#X connect 94 0 90 0;
#X connect 94 0 106 0;
#X connect 95 0 96 0;
#X connect 96 0 94 0;
#X connect 96 0 88 0;
#X connect 96 0 98 0;
#X connect 97 0 95 1;
#X connect 98 0 95 1;
#X connect 99 0 95 0;
#X connect 100 0 99 0;
#X connect 101 0 103 0;
#X connect 102 0 100 1;
#X connect 102 0 103 1;
#X connect 102 0 112 1;
#X connect 103 0 102 0;
#X connect 104 0 105 0;
#X connect 105 0 106 0;
#X connect 106 0 100 0;
#X connect 106 0 105 1;
#X connect 106 0 114 0;
#X connect 107 0 104 1;
#X connect 108 0 104 1;
#X connect 109 0 101 1;
#X connect 110 0 101 1;
#X connect 112 0 113 0;
#X connect 113 0 106 0;
#X connect 113 0 94 0;
#X connect 113 0 88 0;
#X connect 114 0 112 0;
#X connect 116 0 117 0;
#X connect 116 1 118 1;
#X connect 117 0 118 0;
#X connect 118 0 22 0;
#X connect 119 0 26 0;
#X connect 121 0 9 0;
