#N canvas 76 23 1918 944 10;
#X obj 642 763 efficient-kick;
#X msg 642 735 1;
#X obj 749 763 efficient-snare;
#X obj 953 763 efficient-fmhh;
#X obj 314 225 hradio 30 1 0 16 empty empty empty 0 -8 0 10 -262144
-1 -1 9;
#X msg 716 735 1;
#X obj 836 228 hradio 30 1 0 16 empty empty empty 0 -8 0 10 -262144
-1 -1 3;
#X obj 1361 227 hradio 30 1 0 16 empty empty empty 0 -8 0 10 -262144
-1 -1 6;
#X obj 1163 658 hsl 128 15 0 1 0 0 empty empty empty -2 -8 0 10 -262144
-1 -1 0 1;
#X obj 908 763 tom;
#X obj -141 47 inlet;
#X obj 354 191 outlet;
#X obj 312 258 select 0 1 2 3 4 5 6 7 8 9 10 11 12 13 14 15, f 80
;
#X obj 838 264 select 0 1 2 3 4 5 6 7 8 9 10 11 12 13 14 15, f 80
;
#X obj 1359 260 select 0 1 2 3 4 5 6 7 8 9 10 11 12 13 14 15, f 80
;
#X msg 605 735 0;
#X msg 677 735 2;
#X msg 897 735 1;
#X msg 853 735 0;
#X msg 936 735 2;
#X msg 976 735 1;
#X msg 1016 735 2;
#X text -143 27 start/stop;
#X obj 21 335 inlet;
#X floatatom 21 356 5 0 0 0 - - -, f 5;
#X obj 19 380 spigot;
#X floatatom 19 406 5 0 0 0 - - -, f 5;
#X obj 71 334 inlet;
#X floatatom 71 355 5 0 0 0 - - -, f 5;
#X obj 69 379 spigot;
#X floatatom 69 405 5 0 0 0 - - -, f 5;
#X obj 115 334 inlet;
#X floatatom 115 355 5 0 0 0 - - -, f 5;
#X obj 113 379 spigot;
#X floatatom 113 405 5 0 0 0 - - -, f 5;
#X obj 165 333 inlet;
#X floatatom 165 354 5 0 0 0 - - -, f 5;
#X obj 163 378 spigot;
#X floatatom 163 404 5 0 0 0 - - -, f 5;
#X obj 216 334 inlet;
#X floatatom 216 355 5 0 0 0 - - -, f 5;
#X obj 214 379 spigot;
#X floatatom 214 405 5 0 0 0 - - -, f 5;
#X obj 264 333 inlet;
#X floatatom 264 354 5 0 0 0 - - -, f 5;
#X obj 262 378 spigot;
#X floatatom 262 404 5 0 0 0 - - -, f 5;
#X obj 310 333 inlet;
#X floatatom 310 354 5 0 0 0 - - -, f 5;
#X obj 308 378 spigot;
#X floatatom 308 404 5 0 0 0 - - -, f 5;
#X obj 360 332 inlet;
#X floatatom 360 353 5 0 0 0 - - -, f 5;
#X obj 358 377 spigot;
#X floatatom 358 403 5 0 0 0 - - -, f 5;
#X obj 412 332 inlet;
#X floatatom 412 353 5 0 0 0 - - -, f 5;
#X obj 410 377 spigot;
#X floatatom 410 403 5 0 0 0 - - -, f 5;
#X obj 462 331 inlet;
#X floatatom 462 352 5 0 0 0 - - -, f 5;
#X obj 460 376 spigot;
#X floatatom 460 402 5 0 0 0 - - -, f 5;
#X obj 506 331 inlet;
#X floatatom 506 352 5 0 0 0 - - -, f 5;
#X obj 504 376 spigot;
#X floatatom 504 402 5 0 0 0 - - -, f 5;
#X obj 556 330 inlet;
#X floatatom 556 351 5 0 0 0 - - -, f 5;
#X obj 554 375 spigot;
#X floatatom 554 401 5 0 0 0 - - -, f 5;
#X obj 607 331 inlet;
#X floatatom 607 352 5 0 0 0 - - -, f 5;
#X obj 605 376 spigot;
#X floatatom 605 402 5 0 0 0 - - -, f 5;
#X obj 657 330 inlet;
#X floatatom 657 351 5 0 0 0 - - -, f 5;
#X obj 655 375 spigot;
#X floatatom 655 401 5 0 0 0 - - -, f 5;
#X obj 701 330 inlet;
#X floatatom 701 351 5 0 0 0 - - -, f 5;
#X obj 699 375 spigot;
#X floatatom 699 401 5 0 0 0 - - -, f 5;
#X obj 751 329 inlet;
#X floatatom 751 350 5 0 0 0 - - -, f 5;
#X obj 749 374 spigot;
#X floatatom 749 400 5 0 0 0 - - -, f 5;
#X obj 808 327 inlet;
#X floatatom 808 348 5 0 0 0 - - -, f 5;
#X obj 806 372 spigot;
#X floatatom 806 398 5 0 0 0 - - -, f 5;
#X obj 858 326 inlet;
#X floatatom 858 347 5 0 0 0 - - -, f 5;
#X obj 856 371 spigot;
#X floatatom 856 397 5 0 0 0 - - -, f 5;
#X obj 902 326 inlet;
#X floatatom 902 347 5 0 0 0 - - -, f 5;
#X obj 900 371 spigot;
#X floatatom 900 397 5 0 0 0 - - -, f 5;
#X obj 952 325 inlet;
#X floatatom 952 346 5 0 0 0 - - -, f 5;
#X obj 950 370 spigot;
#X floatatom 950 396 5 0 0 0 - - -, f 5;
#X obj 1003 326 inlet;
#X floatatom 1003 347 5 0 0 0 - - -, f 5;
#X obj 1001 371 spigot;
#X floatatom 1001 397 5 0 0 0 - - -, f 5;
#X obj 1051 325 inlet;
#X floatatom 1051 346 5 0 0 0 - - -, f 5;
#X obj 1049 370 spigot;
#X floatatom 1049 396 5 0 0 0 - - -, f 5;
#X obj 1097 325 inlet;
#X floatatom 1097 346 5 0 0 0 - - -, f 5;
#X obj 1095 370 spigot;
#X floatatom 1095 396 5 0 0 0 - - -, f 5;
#X obj 1147 324 inlet;
#X floatatom 1147 345 5 0 0 0 - - -, f 5;
#X obj 1145 369 spigot;
#X floatatom 1145 395 5 0 0 0 - - -, f 5;
#X obj 1199 324 inlet;
#X floatatom 1199 345 5 0 0 0 - - -, f 5;
#X obj 1197 369 spigot;
#X floatatom 1199 395 5 0 0 0 - - -, f 5;
#X obj 1249 323 inlet;
#X floatatom 1249 344 5 0 0 0 - - -, f 5;
#X obj 1247 368 spigot;
#X floatatom 1247 394 5 0 0 0 - - -, f 5;
#X obj 1293 323 inlet;
#X floatatom 1293 344 5 0 0 0 - - -, f 5;
#X obj 1291 368 spigot;
#X floatatom 1291 394 5 0 0 0 - - -, f 5;
#X obj 1343 322 inlet;
#X floatatom 1343 343 5 0 0 0 - - -, f 5;
#X obj 1341 367 spigot;
#X floatatom 1341 393 5 0 0 0 - - -, f 5;
#X obj 1394 323 inlet;
#X floatatom 1394 344 5 0 0 0 - - -, f 5;
#X obj 1392 368 spigot;
#X floatatom 1392 394 5 0 0 0 - - -, f 5;
#X obj 1444 322 inlet;
#X floatatom 1444 343 5 0 0 0 - - -, f 5;
#X obj 1442 367 spigot;
#X floatatom 1442 393 5 0 0 0 - - -, f 5;
#X obj 1488 322 inlet;
#X floatatom 1488 343 5 0 0 0 - - -, f 5;
#X obj 1486 367 spigot;
#X floatatom 1486 393 5 0 0 0 - - -, f 5;
#X obj 1538 321 inlet;
#X floatatom 1538 342 5 0 0 0 - - -, f 5;
#X obj 1536 366 spigot;
#X floatatom 1536 392 5 0 0 0 - - -, f 5;
#X obj 1600 318 inlet;
#X floatatom 1600 339 5 0 0 0 - - -, f 5;
#X obj 1598 363 spigot;
#X floatatom 1598 389 5 0 0 0 - - -, f 5;
#X obj 1650 317 inlet;
#X floatatom 1650 338 5 0 0 0 - - -, f 5;
#X obj 1648 362 spigot;
#X floatatom 1648 388 5 0 0 0 - - -, f 5;
#X obj 1694 317 inlet;
#X floatatom 1694 338 5 0 0 0 - - -, f 5;
#X obj 1692 362 spigot;
#X floatatom 1692 388 5 0 0 0 - - -, f 5;
#X obj 1744 316 inlet;
#X floatatom 1744 337 5 0 0 0 - - -, f 5;
#X obj 1742 361 spigot;
#X floatatom 1742 387 5 0 0 0 - - -, f 5;
#X obj 1795 317 inlet;
#X floatatom 1795 338 5 0 0 0 - - -, f 5;
#X obj 1793 362 spigot;
#X floatatom 1793 388 5 0 0 0 - - -, f 5;
#X obj 1843 316 inlet;
#X floatatom 1843 337 5 0 0 0 - - -, f 5;
#X obj 1841 361 spigot;
#X floatatom 1841 387 5 0 0 0 - - -, f 5;
#X obj 1889 316 inlet;
#X floatatom 1889 337 5 0 0 0 - - -, f 5;
#X obj 1887 361 spigot;
#X floatatom 1887 387 5 0 0 0 - - -, f 5;
#X obj 1939 315 inlet;
#X floatatom 1939 336 5 0 0 0 - - -, f 5;
#X obj 1937 360 spigot;
#X floatatom 1937 386 5 0 0 0 - - -, f 5;
#X obj 1991 315 inlet;
#X floatatom 1991 336 5 0 0 0 - - -, f 5;
#X obj 1989 360 spigot;
#X floatatom 1991 386 5 0 0 0 - - -, f 5;
#X obj 2041 314 inlet;
#X floatatom 2041 335 5 0 0 0 - - -, f 5;
#X obj 2039 359 spigot;
#X floatatom 2039 385 5 0 0 0 - - -, f 5;
#X obj 2085 314 inlet;
#X floatatom 2085 335 5 0 0 0 - - -, f 5;
#X obj 2083 359 spigot;
#X floatatom 2083 385 5 0 0 0 - - -, f 5;
#X obj 2135 313 inlet;
#X floatatom 2135 334 5 0 0 0 - - -, f 5;
#X obj 2133 358 spigot;
#X floatatom 2133 384 5 0 0 0 - - -, f 5;
#X obj 2186 314 inlet;
#X floatatom 2186 335 5 0 0 0 - - -, f 5;
#X obj 2184 359 spigot;
#X floatatom 2184 385 5 0 0 0 - - -, f 5;
#X obj 2236 313 inlet;
#X floatatom 2236 334 5 0 0 0 - - -, f 5;
#X obj 2234 358 spigot;
#X floatatom 2234 384 5 0 0 0 - - -, f 5;
#X obj 2280 313 inlet;
#X floatatom 2280 334 5 0 0 0 - - -, f 5;
#X obj 2278 358 spigot;
#X floatatom 2278 384 5 0 0 0 - - -, f 5;
#X obj 2330 312 inlet;
#X floatatom 2330 333 5 0 0 0 - - -, f 5;
#X obj 2328 357 spigot;
#X floatatom 2328 383 5 0 0 0 - - -, f 5;
#X text 348 171 progress;
#X obj 1747 203 outlet;
#X text 1745 187 progress fine;
#X obj 422 89 r bpm1;
#X obj 832 96 r bpm2;
#X obj 1360 105 r bpm4;
#X obj 631 156 tgl 15 0 empty empty empty 17 7 0 10 -262144 -1 -1 0
1;
#X obj 422 132 spigot;
#X obj 832 137 spigot;
#X obj 1360 140 spigot;
#X msg 631 179 0;
#X obj 631 97 spigot;
#X obj -141 68 tgl 15 0 empty empty empty 17 7 0 10 -262144 -1 -1 0
1;
#X obj 631 118 sel 0;
#X msg 631 76 1;
#X msg 663 76 0;
#X obj 630 137 bng 15 250 50 0 empty empty empty 17 7 0 10 -262144
-1 -1;
#X obj 2369 425 inlet;
#X floatatom -86 437 5 0 0 0 - - -, f 5;
#X text 2366 409 track;
#X text -86 417 track;
#X obj -108 183 clip-out, f 28;
#X obj -106 129 bng 15 250 50 0 empty empty empty 17 7 0 10 -262144
-1 -1;
#X obj -106 150 bng 15 250 50 0 empty empty empty 17 7 0 10 -262144
-1 -1;
#X obj -73 136 bng 15 250 50 0 empty empty empty 17 7 0 10 -262144
-1 -1;
#X obj -73 157 bng 15 250 50 0 empty empty empty 17 7 0 10 -262144
-1 -1;
#X obj 63 109 sel 0 1;
#X obj -44 137 bng 15 250 50 0 empty empty empty 17 7 0 10 -262144
-1 -1;
#X obj -44 158 bng 15 250 50 0 empty empty empty 17 7 0 10 -262144
-1 -1;
#X floatatom 576 180 5 0 0 0 - - -, f 5;
#X obj 2412 424 inlet;
#X text 2413 405 bank-on;
#X obj -24 50 tgl 15 0 empty empty empty 17 7 0 10 -262144 -1 -1 0
1;
#X text -36 30 bank-on;
#X obj -24 94 sel 1;
#X obj 56 142 bng 15 250 50 0 empty empty empty 17 7 0 10 -262144 -1
-1;
#X obj 56 163 bng 15 250 50 0 empty empty empty 17 7 0 10 -262144 -1
-1;
#X floatatom -24 70 5 0 0 0 - - -, f 5;
#X floatatom 2412 445 5 0 0 0 - - -, f 5;
#X obj 819 868 output;
#X obj -55 112 delay 50;
#X msg 755 735 2;
#X msg 795 735 3;
#X obj 697 676 sel 1 2 3 4 5 6 7 8 9 10 11 12, f 42;
#X msg 1054 736 3;
#X obj 1112 721 bng 15 250 50 0 empty empty empty 17 7 0 10 -262144
-1 -1;
#N canvas 0 50 450 300 bass-tom-vol 0;
#X floatatom 132 63 5 0 0 0 - - -, f 5;
#X floatatom 169 75 5 0 0 0 - - -, f 5;
#X floatatom 206 69 5 0 0 0 - - -, f 5;
#X obj 163 31 ctlin;
#X obj 132 83 / 100;
#X obj 94 136 spigot;
#X floatatom 94 157 5 0 0 0 - - -, f 5;
#X msg 169 116 1;
#X obj 169 137 delay 100;
#X msg 169 158 0;
#X obj 94 177 outlet;
#X obj 169 95 sel 49;
#X connect 0 0 4 0;
#X connect 1 0 11 0;
#X connect 3 0 0 0;
#X connect 3 1 1 0;
#X connect 3 2 2 0;
#X connect 4 0 5 0;
#X connect 5 0 6 0;
#X connect 6 0 10 0;
#X connect 7 0 5 1;
#X connect 7 0 8 0;
#X connect 8 0 9 0;
#X connect 9 0 5 1;
#X connect 11 0 7 0;
#X restore 651 783 pd bass-tom-vol;
#N canvas 0 50 450 300 snare-vol 0;
#X floatatom 132 63 5 0 0 0 - - -, f 5;
#X floatatom 169 75 5 0 0 0 - - -, f 5;
#X floatatom 206 69 5 0 0 0 - - -, f 5;
#X obj 163 31 ctlin;
#X obj 132 83 / 100;
#X obj 94 136 spigot;
#X floatatom 94 157 5 0 0 0 - - -, f 5;
#X msg 169 116 1;
#X obj 169 137 delay 100;
#X msg 169 158 0;
#X obj 94 177 outlet;
#X obj 169 95 sel 50;
#X connect 0 0 4 0;
#X connect 1 0 11 0;
#X connect 3 0 0 0;
#X connect 3 1 1 0;
#X connect 3 2 2 0;
#X connect 4 0 5 0;
#X connect 5 0 6 0;
#X connect 6 0 10 0;
#X connect 7 0 5 1;
#X connect 7 0 8 0;
#X connect 8 0 9 0;
#X connect 9 0 5 1;
#X connect 11 0 7 0;
#X restore 797 783 pd snare-vol;
#N canvas 0 50 450 300 cymbol-vol 0;
#X floatatom 132 63 5 0 0 0 - - -, f 5;
#X floatatom 169 75 5 0 0 0 - - -, f 5;
#X floatatom 206 69 5 0 0 0 - - -, f 5;
#X obj 163 31 ctlin;
#X obj 132 83 / 100;
#X obj 94 136 spigot;
#X floatatom 94 157 5 0 0 0 - - -, f 5;
#X msg 169 116 1;
#X obj 169 137 delay 100;
#X msg 169 158 0;
#X obj 94 177 outlet;
#X obj 169 95 sel 51;
#X connect 0 0 4 0;
#X connect 1 0 11 0;
#X connect 3 0 0 0;
#X connect 3 1 1 0;
#X connect 3 2 2 0;
#X connect 4 0 5 0;
#X connect 5 0 6 0;
#X connect 6 0 10 0;
#X connect 7 0 5 1;
#X connect 7 0 8 0;
#X connect 8 0 9 0;
#X connect 9 0 5 1;
#X connect 11 0 7 0;
#X restore 962 787 pd cymbol-vol;
#X obj 642 810 *~ 1;
#X obj 927 809 *~ 0.5;
#X obj 764 807 *~ 0.5;
#N canvas 0 50 450 300 decay 0;
#X floatatom 132 63 5 0 0 0 - - -, f 5;
#X floatatom 169 75 5 0 0 0 - - -, f 5;
#X floatatom 206 69 5 0 0 0 - - -, f 5;
#X obj 163 31 ctlin;
#X obj 132 83 / 100;
#X obj 94 136 spigot;
#X floatatom 94 157 5 0 0 0 - - -, f 5;
#X msg 169 116 1;
#X obj 169 137 delay 100;
#X msg 169 158 0;
#X obj 94 177 outlet;
#X obj 169 95 sel 7;
#X connect 0 0 4 0;
#X connect 1 0 11 0;
#X connect 3 0 0 0;
#X connect 3 1 1 0;
#X connect 3 2 2 0;
#X connect 4 0 5 0;
#X connect 5 0 6 0;
#X connect 6 0 10 0;
#X connect 7 0 5 1;
#X connect 7 0 8 0;
#X connect 8 0 9 0;
#X connect 9 0 5 1;
#X connect 11 0 7 0;
#X restore 1249 630 pd decay;
#X connect 0 0 264 0;
#X connect 1 0 0 0;
#X connect 2 0 266 0;
#X connect 3 0 265 0;
#X connect 4 0 12 0;
#X connect 5 0 2 0;
#X connect 6 0 13 0;
#X connect 7 0 14 0;
#X connect 8 0 3 1;
#X connect 9 0 264 0;
#X connect 10 0 227 0;
#X connect 12 0 24 0;
#X connect 12 1 28 0;
#X connect 12 2 32 0;
#X connect 12 3 36 0;
#X connect 12 4 40 0;
#X connect 12 5 44 0;
#X connect 12 6 48 0;
#X connect 12 7 52 0;
#X connect 12 8 56 0;
#X connect 12 9 60 0;
#X connect 12 10 64 0;
#X connect 12 11 68 0;
#X connect 12 12 72 0;
#X connect 12 13 76 0;
#X connect 12 14 80 0;
#X connect 12 15 84 0;
#X connect 13 0 88 0;
#X connect 13 1 92 0;
#X connect 13 2 96 0;
#X connect 13 3 100 0;
#X connect 13 4 104 0;
#X connect 13 5 108 0;
#X connect 13 6 112 0;
#X connect 13 7 116 0;
#X connect 13 8 120 0;
#X connect 13 9 124 0;
#X connect 13 10 128 0;
#X connect 13 11 132 0;
#X connect 13 12 136 0;
#X connect 13 13 140 0;
#X connect 13 14 144 0;
#X connect 13 15 148 0;
#X connect 14 0 152 0;
#X connect 14 1 156 0;
#X connect 14 2 160 0;
#X connect 14 3 164 0;
#X connect 14 4 168 0;
#X connect 14 5 172 0;
#X connect 14 6 176 0;
#X connect 14 7 180 0;
#X connect 14 8 184 0;
#X connect 14 9 188 0;
#X connect 14 10 192 0;
#X connect 14 11 196 0;
#X connect 14 12 200 0;
#X connect 14 13 204 0;
#X connect 14 14 208 0;
#X connect 14 15 212 0;
#X connect 15 0 0 0;
#X connect 16 0 0 0;
#X connect 17 0 9 0;
#X connect 18 0 9 0;
#X connect 19 0 9 0;
#X connect 20 0 3 0;
#X connect 21 0 3 0;
#X connect 23 0 24 0;
#X connect 24 0 25 1;
#X connect 24 0 25 0;
#X connect 25 0 26 0;
#X connect 26 0 258 0;
#X connect 27 0 28 0;
#X connect 28 0 29 1;
#X connect 28 0 29 0;
#X connect 29 0 30 0;
#X connect 30 0 258 0;
#X connect 31 0 32 0;
#X connect 32 0 33 1;
#X connect 32 0 33 0;
#X connect 33 0 34 0;
#X connect 34 0 258 0;
#X connect 35 0 36 0;
#X connect 36 0 37 1;
#X connect 36 0 37 0;
#X connect 37 0 38 0;
#X connect 38 0 258 0;
#X connect 39 0 40 0;
#X connect 40 0 41 1;
#X connect 40 0 41 0;
#X connect 41 0 42 0;
#X connect 42 0 258 0;
#X connect 43 0 44 0;
#X connect 44 0 45 1;
#X connect 44 0 45 0;
#X connect 45 0 46 0;
#X connect 46 0 258 0;
#X connect 47 0 48 0;
#X connect 48 0 49 1;
#X connect 48 0 49 0;
#X connect 49 0 50 0;
#X connect 50 0 258 0;
#X connect 51 0 52 0;
#X connect 52 0 53 1;
#X connect 52 0 53 0;
#X connect 53 0 54 0;
#X connect 54 0 258 0;
#X connect 55 0 56 0;
#X connect 56 0 57 1;
#X connect 56 0 57 0;
#X connect 57 0 58 0;
#X connect 58 0 258 0;
#X connect 59 0 60 0;
#X connect 60 0 61 1;
#X connect 60 0 61 0;
#X connect 61 0 62 0;
#X connect 62 0 258 0;
#X connect 63 0 64 0;
#X connect 64 0 65 1;
#X connect 64 0 65 0;
#X connect 65 0 66 0;
#X connect 66 0 258 0;
#X connect 67 0 68 0;
#X connect 68 0 69 1;
#X connect 68 0 69 0;
#X connect 69 0 70 0;
#X connect 70 0 258 0;
#X connect 71 0 72 0;
#X connect 72 0 73 1;
#X connect 72 0 73 0;
#X connect 73 0 74 0;
#X connect 74 0 258 0;
#X connect 75 0 76 0;
#X connect 76 0 77 1;
#X connect 76 0 77 0;
#X connect 77 0 78 0;
#X connect 78 0 258 0;
#X connect 79 0 80 0;
#X connect 80 0 81 1;
#X connect 80 0 81 0;
#X connect 81 0 82 0;
#X connect 82 0 258 0;
#X connect 83 0 84 0;
#X connect 84 0 85 1;
#X connect 84 0 85 0;
#X connect 85 0 86 0;
#X connect 86 0 258 0;
#X connect 87 0 88 0;
#X connect 88 0 89 1;
#X connect 88 0 89 0;
#X connect 89 0 90 0;
#X connect 90 0 258 0;
#X connect 91 0 92 0;
#X connect 92 0 93 1;
#X connect 92 0 93 0;
#X connect 93 0 94 0;
#X connect 94 0 258 0;
#X connect 95 0 96 0;
#X connect 96 0 97 1;
#X connect 96 0 97 0;
#X connect 97 0 98 0;
#X connect 98 0 258 0;
#X connect 99 0 100 0;
#X connect 100 0 101 1;
#X connect 100 0 101 0;
#X connect 101 0 102 0;
#X connect 102 0 258 0;
#X connect 103 0 104 0;
#X connect 104 0 105 1;
#X connect 104 0 105 0;
#X connect 105 0 106 0;
#X connect 106 0 258 0;
#X connect 107 0 108 0;
#X connect 108 0 109 1;
#X connect 108 0 109 0;
#X connect 109 0 110 0;
#X connect 110 0 258 0;
#X connect 111 0 112 0;
#X connect 112 0 113 1;
#X connect 112 0 113 0;
#X connect 113 0 114 0;
#X connect 114 0 258 0;
#X connect 115 0 116 0;
#X connect 116 0 117 1;
#X connect 116 0 117 0;
#X connect 117 0 118 0;
#X connect 118 0 258 0;
#X connect 119 0 120 0;
#X connect 120 0 121 1;
#X connect 120 0 121 0;
#X connect 121 0 122 0;
#X connect 122 0 258 0;
#X connect 123 0 124 0;
#X connect 124 0 125 1;
#X connect 124 0 125 0;
#X connect 125 0 126 0;
#X connect 126 0 258 0;
#X connect 127 0 128 0;
#X connect 128 0 129 1;
#X connect 128 0 129 0;
#X connect 129 0 130 0;
#X connect 130 0 258 0;
#X connect 131 0 132 0;
#X connect 132 0 133 1;
#X connect 132 0 133 0;
#X connect 133 0 134 0;
#X connect 134 0 258 0;
#X connect 135 0 136 0;
#X connect 136 0 137 1;
#X connect 136 0 137 0;
#X connect 137 0 138 0;
#X connect 138 0 258 0;
#X connect 139 0 140 0;
#X connect 140 0 141 1;
#X connect 140 0 141 0;
#X connect 141 0 142 0;
#X connect 142 0 258 0;
#X connect 143 0 144 0;
#X connect 144 0 145 1;
#X connect 144 0 145 0;
#X connect 145 0 146 0;
#X connect 146 0 258 0;
#X connect 147 0 148 0;
#X connect 148 0 149 1;
#X connect 148 0 149 0;
#X connect 149 0 150 0;
#X connect 150 0 258 0;
#X connect 151 0 152 0;
#X connect 152 0 153 1;
#X connect 152 0 153 0;
#X connect 153 0 154 0;
#X connect 154 0 258 0;
#X connect 155 0 156 0;
#X connect 156 0 157 1;
#X connect 156 0 157 0;
#X connect 157 0 158 0;
#X connect 158 0 258 0;
#X connect 159 0 160 0;
#X connect 160 0 161 1;
#X connect 160 0 161 0;
#X connect 161 0 162 0;
#X connect 162 0 258 0;
#X connect 163 0 164 0;
#X connect 164 0 165 1;
#X connect 164 0 165 0;
#X connect 165 0 166 0;
#X connect 166 0 258 0;
#X connect 167 0 168 0;
#X connect 168 0 169 1;
#X connect 168 0 169 0;
#X connect 169 0 170 0;
#X connect 170 0 258 0;
#X connect 171 0 172 0;
#X connect 172 0 173 1;
#X connect 172 0 173 0;
#X connect 173 0 174 0;
#X connect 174 0 258 0;
#X connect 175 0 176 0;
#X connect 176 0 177 1;
#X connect 176 0 177 0;
#X connect 177 0 178 0;
#X connect 178 0 258 0;
#X connect 179 0 180 0;
#X connect 180 0 181 1;
#X connect 180 0 181 0;
#X connect 181 0 182 0;
#X connect 182 0 258 0;
#X connect 183 0 184 0;
#X connect 184 0 185 1;
#X connect 184 0 185 0;
#X connect 185 0 186 0;
#X connect 186 0 258 0;
#X connect 187 0 188 0;
#X connect 188 0 189 1;
#X connect 188 0 189 0;
#X connect 189 0 190 0;
#X connect 190 0 258 0;
#X connect 191 0 192 0;
#X connect 192 0 193 1;
#X connect 192 0 193 0;
#X connect 193 0 194 0;
#X connect 194 0 258 0;
#X connect 195 0 196 0;
#X connect 196 0 197 1;
#X connect 196 0 197 0;
#X connect 197 0 198 0;
#X connect 198 0 258 0;
#X connect 199 0 200 0;
#X connect 200 0 201 1;
#X connect 200 0 201 0;
#X connect 201 0 202 0;
#X connect 202 0 258 0;
#X connect 203 0 204 0;
#X connect 204 0 205 1;
#X connect 204 0 205 0;
#X connect 205 0 206 0;
#X connect 206 0 258 0;
#X connect 207 0 208 0;
#X connect 208 0 209 1;
#X connect 208 0 209 0;
#X connect 209 0 210 0;
#X connect 210 0 258 0;
#X connect 211 0 212 0;
#X connect 212 0 213 1;
#X connect 212 0 213 0;
#X connect 213 0 214 0;
#X connect 214 0 258 0;
#X connect 218 0 222 0;
#X connect 219 0 223 0;
#X connect 220 0 224 0;
#X connect 220 0 226 0;
#X connect 221 0 222 1;
#X connect 221 0 223 1;
#X connect 221 0 224 1;
#X connect 221 0 225 0;
#X connect 221 0 244 0;
#X connect 222 0 4 0;
#X connect 222 0 11 0;
#X connect 223 0 6 0;
#X connect 224 0 216 0;
#X connect 224 0 7 0;
#X connect 225 0 4 0;
#X connect 225 0 6 0;
#X connect 225 0 7 0;
#X connect 226 0 228 0;
#X connect 227 0 229 0;
#X connect 227 0 239 0;
#X connect 228 0 230 0;
#X connect 228 0 231 0;
#X connect 229 0 226 1;
#X connect 230 0 226 1;
#X connect 231 0 221 0;
#X connect 232 0 233 0;
#X connect 233 0 236 9;
#X connect 237 0 238 0;
#X connect 237 0 236 0;
#X connect 238 0 236 0;
#X connect 239 0 240 0;
#X connect 239 0 236 1;
#X connect 240 0 236 1;
#X connect 241 0 237 0;
#X connect 241 1 242 0;
#X connect 242 0 243 0;
#X connect 242 0 236 2;
#X connect 243 0 236 2;
#X connect 244 0 241 0;
#X connect 245 0 247 0;
#X connect 245 0 253 0;
#X connect 247 0 252 0;
#X connect 249 0 255 0;
#X connect 249 1 250 0;
#X connect 250 0 251 0;
#X connect 250 0 236 10;
#X connect 251 0 236 10;
#X connect 252 0 249 0;
#X connect 255 0 237 0;
#X connect 256 0 2 0;
#X connect 257 0 2 0;
#X connect 258 0 15 0;
#X connect 258 1 1 0;
#X connect 258 2 16 0;
#X connect 258 3 5 0;
#X connect 258 4 18 0;
#X connect 258 5 17 0;
#X connect 258 6 19 0;
#X connect 258 7 20 0;
#X connect 258 8 21 0;
#X connect 258 9 256 0;
#X connect 258 10 257 0;
#X connect 258 11 259 0;
#X connect 258 11 260 0;
#X connect 259 0 3 0;
#X connect 261 0 264 1;
#X connect 262 0 266 1;
#X connect 263 0 265 1;
#X connect 264 0 254 0;
#X connect 265 0 254 0;
#X connect 266 0 254 0;
#X connect 267 0 8 0;
