#N canvas -6 0 987 988 10;
#X obj 642 763 efficient-kick;
#X obj 823 870 *~ 0.5;
#X obj 823 898 dac~;
#X msg 642 735 1;
#X obj 749 763 efficient-snare;
#X obj 901 769 efficient-fmhh;
#X obj 314 225 hradio 30 1 0 16 empty empty empty 0 -8 0 10 -262144
-1 -1 0;
#X msg 749 735 1;
#X obj 836 228 hradio 30 1 0 16 empty empty empty 0 -8 0 10 -262144
-1 -1 0;
#X obj 1361 227 hradio 30 1 0 16 empty empty empty 0 -8 0 10 -262144
-1 -1 0;
#X obj 904 797 hsl 128 15 0 1 0 0 empty empty empty -2 -8 0 10 -262144
-1 -1 0 1;
#X obj 856 763 tom;
#X obj 627 31 inlet;
#X obj 354 191 outlet;
#X obj 312 258 select 0 1 2 3 4 5 6 7 8 9 10 11 12 13 14 15, f 80
;
#X obj 838 264 select 0 1 2 3 4 5 6 7 8 9 10 11 12 13 14 15, f 80
;
#X obj 1359 260 select 0 1 2 3 4 5 6 7 8 9 10 11 12 13 14 15, f 80
;
#X msg 605 735 0;
#X msg 677 735 2;
#X msg 856 735 1;
#X msg 812 735 0;
#X msg 895 735 2;
#X msg 935 735 1;
#X msg 975 737 2;
#X obj 688 30 inlet;
#X text 690 12 decay;
#X text 625 11 start/stop;
#X obj 21 335 inlet;
#X floatatom 21 356 5 0 0 0 - - -, f 5;
#X obj 19 380 spigot;
#X obj 697 676 sel 1 2 3 4 5 6 7 8 9, f 42;
#X floatatom 19 406 5 0 0 0 - - -, f 5;
#X obj 71 334 inlet;
#X floatatom 71 355 5 0 0 0 - - -, f 5;
#X obj 69 379 spigot;
#X floatatom 69 405 5 0 0 0 - - -, f 5;
#X obj 115 334 inlet;
#X floatatom 115 355 5 0 0 0 - - -, f 5;
#X obj 113 379 spigot;
#X floatatom 113 405 5 0 0 0 - - -, f 5;
#X obj 165 333 inlet;
#X floatatom 165 354 5 0 0 0 - - -, f 5;
#X obj 163 378 spigot;
#X floatatom 163 404 5 0 0 0 - - -, f 5;
#X obj 216 334 inlet;
#X floatatom 216 355 5 0 0 0 - - -, f 5;
#X obj 214 379 spigot;
#X floatatom 214 405 5 0 0 0 - - -, f 5;
#X obj 264 333 inlet;
#X floatatom 264 354 5 0 0 0 - - -, f 5;
#X obj 262 378 spigot;
#X floatatom 262 404 5 0 0 0 - - -, f 5;
#X obj 310 333 inlet;
#X floatatom 310 354 5 0 0 0 - - -, f 5;
#X obj 308 378 spigot;
#X floatatom 308 404 5 0 0 0 - - -, f 5;
#X obj 360 332 inlet;
#X floatatom 360 353 5 0 0 0 - - -, f 5;
#X obj 358 377 spigot;
#X floatatom 358 403 5 0 0 0 - - -, f 5;
#X obj 412 332 inlet;
#X floatatom 412 353 5 0 0 0 - - -, f 5;
#X obj 410 377 spigot;
#X floatatom 410 403 5 0 0 0 - - -, f 5;
#X obj 462 331 inlet;
#X floatatom 462 352 5 0 0 0 - - -, f 5;
#X obj 460 376 spigot;
#X floatatom 460 402 5 0 0 0 - - -, f 5;
#X obj 506 331 inlet;
#X floatatom 506 352 5 0 0 0 - - -, f 5;
#X obj 504 376 spigot;
#X floatatom 504 402 5 0 0 0 - - -, f 5;
#X obj 556 330 inlet;
#X floatatom 556 351 5 0 0 0 - - -, f 5;
#X obj 554 375 spigot;
#X floatatom 554 401 5 0 0 0 - - -, f 5;
#X obj 607 331 inlet;
#X floatatom 607 352 5 0 0 0 - - -, f 5;
#X obj 605 376 spigot;
#X floatatom 605 402 5 0 0 0 - - -, f 5;
#X obj 657 330 inlet;
#X floatatom 657 351 5 0 0 0 - - -, f 5;
#X obj 655 375 spigot;
#X floatatom 655 401 5 0 0 0 - - -, f 5;
#X obj 701 330 inlet;
#X floatatom 701 351 5 0 0 0 - - -, f 5;
#X obj 699 375 spigot;
#X floatatom 699 401 5 0 0 0 - - -, f 5;
#X obj 751 329 inlet;
#X floatatom 751 350 5 0 0 0 - - -, f 5;
#X obj 749 374 spigot;
#X floatatom 749 400 5 0 0 0 - - -, f 5;
#X obj 808 327 inlet;
#X floatatom 808 348 5 0 0 0 - - -, f 5;
#X obj 806 372 spigot;
#X floatatom 806 398 5 0 0 0 - - -, f 5;
#X obj 858 326 inlet;
#X floatatom 858 347 5 0 0 0 - - -, f 5;
#X obj 856 371 spigot;
#X floatatom 856 397 5 0 0 0 - - -, f 5;
#X obj 902 326 inlet;
#X floatatom 902 347 5 0 0 0 - - -, f 5;
#X obj 900 371 spigot;
#X floatatom 900 397 5 0 0 0 - - -, f 5;
#X obj 952 325 inlet;
#X floatatom 952 346 5 0 0 0 - - -, f 5;
#X obj 950 370 spigot;
#X floatatom 950 396 5 0 0 0 - - -, f 5;
#X obj 1003 326 inlet;
#X floatatom 1003 347 5 0 0 0 - - -, f 5;
#X obj 1001 371 spigot;
#X floatatom 1001 397 5 0 0 0 - - -, f 5;
#X obj 1051 325 inlet;
#X floatatom 1051 346 5 0 0 0 - - -, f 5;
#X obj 1049 370 spigot;
#X floatatom 1049 396 5 0 0 0 - - -, f 5;
#X obj 1097 325 inlet;
#X floatatom 1097 346 5 0 0 0 - - -, f 5;
#X obj 1095 370 spigot;
#X floatatom 1095 396 5 0 0 0 - - -, f 5;
#X obj 1147 324 inlet;
#X floatatom 1147 345 5 0 0 0 - - -, f 5;
#X obj 1145 369 spigot;
#X floatatom 1145 395 5 0 0 0 - - -, f 5;
#X obj 1199 324 inlet;
#X floatatom 1199 345 5 0 0 0 - - -, f 5;
#X obj 1197 369 spigot;
#X floatatom 1199 395 5 0 0 0 - - -, f 5;
#X obj 1249 323 inlet;
#X floatatom 1249 344 5 0 0 0 - - -, f 5;
#X obj 1247 368 spigot;
#X floatatom 1247 394 5 0 0 0 - - -, f 5;
#X obj 1293 323 inlet;
#X floatatom 1293 344 5 0 0 0 - - -, f 5;
#X obj 1291 368 spigot;
#X floatatom 1291 394 5 0 0 0 - - -, f 5;
#X obj 1343 322 inlet;
#X floatatom 1343 343 5 0 0 0 - - -, f 5;
#X obj 1341 367 spigot;
#X floatatom 1341 393 5 0 0 0 - - -, f 5;
#X obj 1394 323 inlet;
#X floatatom 1394 344 5 0 0 0 - - -, f 5;
#X obj 1392 368 spigot;
#X floatatom 1392 394 5 0 0 0 - - -, f 5;
#X obj 1444 322 inlet;
#X floatatom 1444 343 5 0 0 0 - - -, f 5;
#X obj 1442 367 spigot;
#X floatatom 1442 393 5 0 0 0 - - -, f 5;
#X obj 1488 322 inlet;
#X floatatom 1488 343 5 0 0 0 - - -, f 5;
#X obj 1486 367 spigot;
#X floatatom 1486 393 5 0 0 0 - - -, f 5;
#X obj 1538 321 inlet;
#X floatatom 1538 342 5 0 0 0 - - -, f 5;
#X obj 1536 366 spigot;
#X floatatom 1536 392 5 0 0 0 - - -, f 5;
#X obj 1600 318 inlet;
#X floatatom 1600 339 5 0 0 0 - - -, f 5;
#X obj 1598 363 spigot;
#X floatatom 1598 389 5 0 0 0 - - -, f 5;
#X obj 1650 317 inlet;
#X floatatom 1650 338 5 0 0 0 - - -, f 5;
#X obj 1648 362 spigot;
#X floatatom 1648 388 5 0 0 0 - - -, f 5;
#X obj 1694 317 inlet;
#X floatatom 1694 338 5 0 0 0 - - -, f 5;
#X obj 1692 362 spigot;
#X floatatom 1692 388 5 0 0 0 - - -, f 5;
#X obj 1744 316 inlet;
#X floatatom 1744 337 5 0 0 0 - - -, f 5;
#X obj 1742 361 spigot;
#X floatatom 1742 387 5 0 0 0 - - -, f 5;
#X obj 1795 317 inlet;
#X floatatom 1795 338 5 0 0 0 - - -, f 5;
#X obj 1793 362 spigot;
#X floatatom 1793 388 5 0 0 0 - - -, f 5;
#X obj 1843 316 inlet;
#X floatatom 1843 337 5 0 0 0 - - -, f 5;
#X obj 1841 361 spigot;
#X floatatom 1841 387 5 0 0 0 - - -, f 5;
#X obj 1889 316 inlet;
#X floatatom 1889 337 5 0 0 0 - - -, f 5;
#X obj 1887 361 spigot;
#X floatatom 1887 387 5 0 0 0 - - -, f 5;
#X obj 1939 315 inlet;
#X floatatom 1939 336 5 0 0 0 - - -, f 5;
#X obj 1937 360 spigot;
#X floatatom 1937 386 5 0 0 0 - - -, f 5;
#X obj 1991 315 inlet;
#X floatatom 1991 336 5 0 0 0 - - -, f 5;
#X obj 1989 360 spigot;
#X floatatom 1991 386 5 0 0 0 - - -, f 5;
#X obj 2041 314 inlet;
#X floatatom 2041 335 5 0 0 0 - - -, f 5;
#X obj 2039 359 spigot;
#X floatatom 2039 385 5 0 0 0 - - -, f 5;
#X obj 2085 314 inlet;
#X floatatom 2085 335 5 0 0 0 - - -, f 5;
#X obj 2083 359 spigot;
#X floatatom 2083 385 5 0 0 0 - - -, f 5;
#X obj 2135 313 inlet;
#X floatatom 2135 334 5 0 0 0 - - -, f 5;
#X obj 2133 358 spigot;
#X floatatom 2133 384 5 0 0 0 - - -, f 5;
#X obj 2186 314 inlet;
#X floatatom 2186 335 5 0 0 0 - - -, f 5;
#X obj 2184 359 spigot;
#X floatatom 2184 385 5 0 0 0 - - -, f 5;
#X obj 2236 313 inlet;
#X floatatom 2236 334 5 0 0 0 - - -, f 5;
#X obj 2234 358 spigot;
#X floatatom 2234 384 5 0 0 0 - - -, f 5;
#X obj 2280 313 inlet;
#X floatatom 2280 334 5 0 0 0 - - -, f 5;
#X obj 2278 358 spigot;
#X floatatom 2278 384 5 0 0 0 - - -, f 5;
#X obj 2330 312 inlet;
#X floatatom 2330 333 5 0 0 0 - - -, f 5;
#X obj 2328 357 spigot;
#X floatatom 2328 383 5 0 0 0 - - -, f 5;
#X text 348 171 progress;
#X obj 1747 203 outlet;
#X text 1745 187 progress fine;
#X obj 422 89 r bpm1;
#X obj 832 96 r bpm2;
#X obj 1360 105 r bpm4;
#X obj 631 139 tgl 15 0 empty empty empty 17 7 0 10 -262144 -1 -1 0
1;
#X obj 422 132 spigot;
#X obj 832 137 spigot;
#X obj 1360 143 spigot;
#X msg 631 179 0;
#X obj 631 97 spigot;
#X obj 627 52 tgl 15 0 empty empty empty 17 7 0 10 -262144 -1 -1 0
1;
#X obj 631 118 sel 0;
#X msg 631 76 1;
#X msg 663 76 0;
#X obj 631 159 bng 15 250 50 0 empty empty empty 17 7 0 10 -262144
-1 -1;
#X connect 0 0 1 0;
#X connect 1 0 2 0;
#X connect 1 0 2 1;
#X connect 3 0 0 0;
#X connect 4 0 1 0;
#X connect 5 0 1 0;
#X connect 6 0 14 0;
#X connect 7 0 4 0;
#X connect 8 0 15 0;
#X connect 9 0 16 0;
#X connect 10 0 5 1;
#X connect 11 0 1 0;
#X connect 12 0 232 0;
#X connect 14 0 28 0;
#X connect 14 1 33 0;
#X connect 14 2 37 0;
#X connect 14 3 41 0;
#X connect 14 4 45 0;
#X connect 14 5 49 0;
#X connect 14 6 53 0;
#X connect 14 7 57 0;
#X connect 14 8 61 0;
#X connect 14 9 65 0;
#X connect 14 10 69 0;
#X connect 14 11 73 0;
#X connect 14 12 77 0;
#X connect 14 13 81 0;
#X connect 14 14 85 0;
#X connect 14 15 89 0;
#X connect 15 0 93 0;
#X connect 15 1 97 0;
#X connect 15 2 101 0;
#X connect 15 3 105 0;
#X connect 15 4 109 0;
#X connect 15 5 113 0;
#X connect 15 6 117 0;
#X connect 15 7 121 0;
#X connect 15 8 125 0;
#X connect 15 9 129 0;
#X connect 15 10 133 0;
#X connect 15 11 137 0;
#X connect 15 12 141 0;
#X connect 15 13 145 0;
#X connect 15 14 149 0;
#X connect 15 15 153 0;
#X connect 16 0 157 0;
#X connect 16 1 161 0;
#X connect 16 2 165 0;
#X connect 16 3 169 0;
#X connect 16 4 173 0;
#X connect 16 5 177 0;
#X connect 16 6 181 0;
#X connect 16 7 185 0;
#X connect 16 8 189 0;
#X connect 16 9 193 0;
#X connect 16 10 197 0;
#X connect 16 11 201 0;
#X connect 16 12 205 0;
#X connect 16 13 209 0;
#X connect 16 14 213 0;
#X connect 16 15 217 0;
#X connect 17 0 0 0;
#X connect 18 0 0 0;
#X connect 19 0 11 0;
#X connect 20 0 11 0;
#X connect 21 0 11 0;
#X connect 22 0 5 0;
#X connect 23 0 5 0;
#X connect 24 0 10 0;
#X connect 27 0 28 0;
#X connect 28 0 29 1;
#X connect 28 0 29 0;
#X connect 29 0 31 0;
#X connect 30 0 17 0;
#X connect 30 1 3 0;
#X connect 30 2 18 0;
#X connect 30 3 7 0;
#X connect 30 4 20 0;
#X connect 30 5 19 0;
#X connect 30 6 21 0;
#X connect 30 7 22 0;
#X connect 30 8 23 0;
#X connect 31 0 30 0;
#X connect 32 0 33 0;
#X connect 33 0 34 1;
#X connect 33 0 34 0;
#X connect 34 0 35 0;
#X connect 35 0 30 0;
#X connect 36 0 37 0;
#X connect 37 0 38 1;
#X connect 37 0 38 0;
#X connect 38 0 39 0;
#X connect 39 0 30 0;
#X connect 40 0 41 0;
#X connect 41 0 42 1;
#X connect 41 0 42 0;
#X connect 42 0 43 0;
#X connect 43 0 30 0;
#X connect 44 0 45 0;
#X connect 45 0 46 1;
#X connect 45 0 46 0;
#X connect 46 0 47 0;
#X connect 47 0 30 0;
#X connect 48 0 49 0;
#X connect 49 0 50 1;
#X connect 49 0 50 0;
#X connect 50 0 51 0;
#X connect 51 0 30 0;
#X connect 52 0 53 0;
#X connect 53 0 54 1;
#X connect 53 0 54 0;
#X connect 54 0 55 0;
#X connect 55 0 30 0;
#X connect 56 0 57 0;
#X connect 57 0 58 1;
#X connect 57 0 58 0;
#X connect 58 0 59 0;
#X connect 59 0 30 0;
#X connect 60 0 61 0;
#X connect 61 0 62 1;
#X connect 61 0 62 0;
#X connect 62 0 63 0;
#X connect 63 0 30 0;
#X connect 64 0 65 0;
#X connect 65 0 66 1;
#X connect 65 0 66 0;
#X connect 66 0 67 0;
#X connect 67 0 30 0;
#X connect 68 0 69 0;
#X connect 69 0 70 1;
#X connect 69 0 70 0;
#X connect 70 0 71 0;
#X connect 71 0 30 0;
#X connect 72 0 73 0;
#X connect 73 0 74 1;
#X connect 73 0 74 0;
#X connect 74 0 75 0;
#X connect 75 0 30 0;
#X connect 76 0 77 0;
#X connect 77 0 78 1;
#X connect 77 0 78 0;
#X connect 78 0 79 0;
#X connect 79 0 30 0;
#X connect 80 0 81 0;
#X connect 81 0 82 1;
#X connect 81 0 82 0;
#X connect 82 0 83 0;
#X connect 83 0 30 0;
#X connect 84 0 85 0;
#X connect 85 0 86 1;
#X connect 85 0 86 0;
#X connect 86 0 87 0;
#X connect 87 0 30 0;
#X connect 88 0 89 0;
#X connect 89 0 90 1;
#X connect 89 0 90 0;
#X connect 90 0 91 0;
#X connect 91 0 30 0;
#X connect 92 0 93 0;
#X connect 93 0 94 1;
#X connect 93 0 94 0;
#X connect 94 0 95 0;
#X connect 95 0 30 0;
#X connect 96 0 97 0;
#X connect 97 0 98 1;
#X connect 97 0 98 0;
#X connect 98 0 99 0;
#X connect 99 0 30 0;
#X connect 100 0 101 0;
#X connect 101 0 102 1;
#X connect 101 0 102 0;
#X connect 102 0 103 0;
#X connect 103 0 30 0;
#X connect 104 0 105 0;
#X connect 105 0 106 1;
#X connect 105 0 106 0;
#X connect 106 0 107 0;
#X connect 107 0 30 0;
#X connect 108 0 109 0;
#X connect 109 0 110 1;
#X connect 109 0 110 0;
#X connect 110 0 111 0;
#X connect 111 0 30 0;
#X connect 112 0 113 0;
#X connect 113 0 114 1;
#X connect 113 0 114 0;
#X connect 114 0 115 0;
#X connect 115 0 30 0;
#X connect 116 0 117 0;
#X connect 117 0 118 1;
#X connect 117 0 118 0;
#X connect 118 0 119 0;
#X connect 119 0 30 0;
#X connect 120 0 121 0;
#X connect 121 0 122 1;
#X connect 121 0 122 0;
#X connect 122 0 123 0;
#X connect 123 0 30 0;
#X connect 124 0 125 0;
#X connect 125 0 126 1;
#X connect 125 0 126 0;
#X connect 126 0 127 0;
#X connect 127 0 30 0;
#X connect 128 0 129 0;
#X connect 129 0 130 1;
#X connect 129 0 130 0;
#X connect 130 0 131 0;
#X connect 131 0 30 0;
#X connect 132 0 133 0;
#X connect 133 0 134 1;
#X connect 133 0 134 0;
#X connect 134 0 135 0;
#X connect 135 0 30 0;
#X connect 136 0 137 0;
#X connect 137 0 138 1;
#X connect 137 0 138 0;
#X connect 138 0 139 0;
#X connect 139 0 30 0;
#X connect 140 0 141 0;
#X connect 141 0 142 1;
#X connect 141 0 142 0;
#X connect 142 0 143 0;
#X connect 143 0 30 0;
#X connect 144 0 145 0;
#X connect 145 0 146 1;
#X connect 145 0 146 0;
#X connect 146 0 147 0;
#X connect 147 0 30 0;
#X connect 148 0 149 0;
#X connect 149 0 150 1;
#X connect 149 0 150 0;
#X connect 150 0 151 0;
#X connect 151 0 30 0;
#X connect 152 0 153 0;
#X connect 153 0 154 1;
#X connect 153 0 154 0;
#X connect 154 0 155 0;
#X connect 155 0 30 0;
#X connect 156 0 157 0;
#X connect 157 0 158 1;
#X connect 157 0 158 0;
#X connect 158 0 159 0;
#X connect 159 0 30 0;
#X connect 160 0 161 0;
#X connect 161 0 162 1;
#X connect 161 0 162 0;
#X connect 162 0 163 0;
#X connect 163 0 30 0;
#X connect 164 0 165 0;
#X connect 165 0 166 1;
#X connect 165 0 166 0;
#X connect 166 0 167 0;
#X connect 167 0 30 0;
#X connect 168 0 169 0;
#X connect 169 0 170 1;
#X connect 169 0 170 0;
#X connect 170 0 171 0;
#X connect 171 0 30 0;
#X connect 172 0 173 0;
#X connect 173 0 174 1;
#X connect 173 0 174 0;
#X connect 174 0 175 0;
#X connect 175 0 30 0;
#X connect 176 0 177 0;
#X connect 177 0 178 1;
#X connect 177 0 178 0;
#X connect 178 0 179 0;
#X connect 179 0 30 0;
#X connect 180 0 181 0;
#X connect 181 0 182 1;
#X connect 181 0 182 0;
#X connect 182 0 183 0;
#X connect 183 0 30 0;
#X connect 184 0 185 0;
#X connect 185 0 186 1;
#X connect 185 0 186 0;
#X connect 186 0 187 0;
#X connect 187 0 30 0;
#X connect 188 0 189 0;
#X connect 189 0 190 1;
#X connect 189 0 190 0;
#X connect 190 0 191 0;
#X connect 191 0 30 0;
#X connect 192 0 193 0;
#X connect 193 0 194 1;
#X connect 193 0 194 0;
#X connect 194 0 195 0;
#X connect 195 0 30 0;
#X connect 196 0 197 0;
#X connect 197 0 198 1;
#X connect 197 0 198 0;
#X connect 198 0 199 0;
#X connect 199 0 30 0;
#X connect 200 0 201 0;
#X connect 201 0 202 1;
#X connect 201 0 202 0;
#X connect 202 0 203 0;
#X connect 203 0 30 0;
#X connect 204 0 205 0;
#X connect 205 0 206 1;
#X connect 205 0 206 0;
#X connect 206 0 207 0;
#X connect 207 0 30 0;
#X connect 208 0 209 0;
#X connect 209 0 210 1;
#X connect 209 0 210 0;
#X connect 210 0 211 0;
#X connect 211 0 30 0;
#X connect 212 0 213 0;
#X connect 213 0 214 1;
#X connect 213 0 214 0;
#X connect 214 0 215 0;
#X connect 215 0 30 0;
#X connect 216 0 217 0;
#X connect 217 0 218 1;
#X connect 217 0 218 0;
#X connect 218 0 219 0;
#X connect 219 0 30 0;
#X connect 223 0 227 0;
#X connect 224 0 228 0;
#X connect 225 0 229 0;
#X connect 225 0 231 0;
#X connect 226 0 227 1;
#X connect 226 0 228 1;
#X connect 226 0 229 1;
#X connect 226 0 230 0;
#X connect 227 0 6 0;
#X connect 227 0 13 0;
#X connect 228 0 8 0;
#X connect 229 0 221 0;
#X connect 229 0 9 0;
#X connect 230 0 6 0;
#X connect 230 0 8 0;
#X connect 230 0 9 0;
#X connect 231 0 233 0;
#X connect 232 0 234 0;
#X connect 233 0 235 0;
#X connect 233 0 236 0;
#X connect 234 0 231 1;
#X connect 235 0 231 1;
#X connect 236 0 226 0;
