#N canvas -6 0 1918 944 10;
#X obj 314 225 hradio 30 1 0 16 empty empty empty 0 -8 0 10 -262144
-1 -1 16;
#X obj 836 228 hradio 30 1 0 16 empty empty empty 0 -8 0 10 -262144
-1 -1 16;
#X obj 1361 227 hradio 30 1 0 16 empty empty empty 0 -8 0 10 -262144
-1 -1 16;
#X obj -141 47 inlet;
#X obj 354 191 outlet;
#X obj 312 258 select 0 1 2 3 4 5 6 7 8 9 10 11 12 13 14 15, f 80
;
#X obj 838 264 select 0 1 2 3 4 5 6 7 8 9 10 11 12 13 14 15, f 80
;
#X obj 1359 260 select 0 1 2 3 4 5 6 7 8 9 10 11 12 13 14 15, f 80
;
#X text -143 27 start/stop;
#X obj 21 335 inlet;
#X floatatom 21 356 5 0 0 0 - - -, f 5;
#X obj 19 380 spigot;
#X floatatom 19 406 5 0 0 0 - - -, f 5;
#X obj 71 334 inlet;
#X floatatom 71 355 5 0 0 0 - - -, f 5;
#X obj 69 379 spigot;
#X floatatom 69 405 5 0 0 0 - - -, f 5;
#X obj 115 334 inlet;
#X floatatom 115 355 5 0 0 0 - - -, f 5;
#X obj 113 379 spigot;
#X floatatom 113 405 5 0 0 0 - - -, f 5;
#X obj 165 333 inlet;
#X floatatom 165 354 5 0 0 0 - - -, f 5;
#X obj 163 378 spigot;
#X floatatom 163 404 5 0 0 0 - - -, f 5;
#X obj 216 334 inlet;
#X floatatom 216 355 5 0 0 0 - - -, f 5;
#X obj 214 379 spigot;
#X floatatom 214 405 5 0 0 0 - - -, f 5;
#X obj 264 333 inlet;
#X floatatom 264 354 5 0 0 0 - - -, f 5;
#X obj 262 378 spigot;
#X floatatom 262 404 5 0 0 0 - - -, f 5;
#X obj 310 333 inlet;
#X floatatom 310 354 5 0 0 0 - - -, f 5;
#X obj 308 378 spigot;
#X floatatom 308 404 5 0 0 0 - - -, f 5;
#X obj 360 332 inlet;
#X floatatom 360 353 5 0 0 0 - - -, f 5;
#X obj 358 377 spigot;
#X floatatom 358 403 5 0 0 0 - - -, f 5;
#X obj 412 332 inlet;
#X floatatom 412 353 5 0 0 0 - - -, f 5;
#X obj 410 377 spigot;
#X floatatom 410 403 5 0 0 0 - - -, f 5;
#X obj 462 331 inlet;
#X floatatom 462 352 5 0 0 0 - - -, f 5;
#X obj 460 376 spigot;
#X floatatom 460 402 5 0 0 0 - - -, f 5;
#X obj 506 331 inlet;
#X floatatom 506 352 5 0 0 0 - - -, f 5;
#X obj 504 376 spigot;
#X floatatom 504 402 5 0 0 0 - - -, f 5;
#X obj 556 330 inlet;
#X floatatom 556 351 5 0 0 0 - - -, f 5;
#X obj 554 375 spigot;
#X floatatom 554 401 5 0 0 0 - - -, f 5;
#X obj 607 331 inlet;
#X floatatom 607 352 5 0 0 0 - - -, f 5;
#X obj 605 376 spigot;
#X floatatom 605 402 5 0 0 0 - - -, f 5;
#X obj 657 330 inlet;
#X floatatom 657 351 5 0 0 0 - - -, f 5;
#X obj 655 375 spigot;
#X floatatom 655 401 5 0 0 0 - - -, f 5;
#X obj 701 330 inlet;
#X floatatom 701 351 5 0 0 0 - - -, f 5;
#X obj 699 375 spigot;
#X floatatom 699 401 5 0 0 0 - - -, f 5;
#X obj 751 329 inlet;
#X floatatom 751 350 5 0 0 0 - - -, f 5;
#X obj 749 374 spigot;
#X floatatom 749 400 5 0 0 0 - - -, f 5;
#X obj 808 327 inlet;
#X floatatom 808 348 5 0 0 0 - - -, f 5;
#X obj 806 372 spigot;
#X floatatom 806 398 5 0 0 0 - - -, f 5;
#X obj 858 326 inlet;
#X floatatom 858 347 5 0 0 0 - - -, f 5;
#X obj 856 371 spigot;
#X floatatom 856 397 5 0 0 0 - - -, f 5;
#X obj 902 326 inlet;
#X floatatom 902 347 5 0 0 0 - - -, f 5;
#X obj 900 371 spigot;
#X floatatom 900 397 5 0 0 0 - - -, f 5;
#X obj 952 325 inlet;
#X floatatom 952 346 5 0 0 0 - - -, f 5;
#X obj 950 370 spigot;
#X floatatom 950 396 5 0 0 0 - - -, f 5;
#X obj 1003 326 inlet;
#X floatatom 1003 347 5 0 0 0 - - -, f 5;
#X obj 1001 371 spigot;
#X floatatom 1001 397 5 0 0 0 - - -, f 5;
#X obj 1051 325 inlet;
#X floatatom 1051 346 5 0 0 0 - - -, f 5;
#X obj 1049 370 spigot;
#X floatatom 1049 396 5 0 0 0 - - -, f 5;
#X obj 1097 325 inlet;
#X floatatom 1097 346 5 0 0 0 - - -, f 5;
#X obj 1095 370 spigot;
#X floatatom 1095 396 5 0 0 0 - - -, f 5;
#X obj 1147 324 inlet;
#X floatatom 1147 345 5 0 0 0 - - -, f 5;
#X obj 1145 369 spigot;
#X floatatom 1145 395 5 0 0 0 - - -, f 5;
#X obj 1199 324 inlet;
#X floatatom 1199 345 5 0 0 0 - - -, f 5;
#X obj 1197 369 spigot;
#X floatatom 1199 395 5 0 0 0 - - -, f 5;
#X obj 1249 323 inlet;
#X floatatom 1249 344 5 0 0 0 - - -, f 5;
#X obj 1247 368 spigot;
#X floatatom 1247 394 5 0 0 0 - - -, f 5;
#X obj 1293 323 inlet;
#X floatatom 1293 344 5 0 0 0 - - -, f 5;
#X obj 1291 368 spigot;
#X floatatom 1291 394 5 0 0 0 - - -, f 5;
#X obj 1343 322 inlet;
#X floatatom 1343 343 5 0 0 0 - - -, f 5;
#X obj 1341 367 spigot;
#X floatatom 1341 393 5 0 0 0 - - -, f 5;
#X obj 1394 323 inlet;
#X floatatom 1394 344 5 0 0 0 - - -, f 5;
#X obj 1392 368 spigot;
#X floatatom 1392 394 5 0 0 0 - - -, f 5;
#X obj 1444 322 inlet;
#X floatatom 1444 343 5 0 0 0 - - -, f 5;
#X obj 1442 367 spigot;
#X floatatom 1442 393 5 0 0 0 - - -, f 5;
#X obj 1488 322 inlet;
#X floatatom 1488 343 5 0 0 0 - - -, f 5;
#X obj 1486 367 spigot;
#X floatatom 1486 393 5 0 0 0 - - -, f 5;
#X obj 1538 321 inlet;
#X floatatom 1538 342 5 0 0 0 - - -, f 5;
#X obj 1536 366 spigot;
#X floatatom 1536 392 5 0 0 0 - - -, f 5;
#X obj 1600 318 inlet;
#X floatatom 1600 339 5 0 0 0 - - -, f 5;
#X obj 1598 363 spigot;
#X floatatom 1598 389 5 0 0 0 - - -, f 5;
#X obj 1650 317 inlet;
#X floatatom 1650 338 5 0 0 0 - - -, f 5;
#X obj 1648 362 spigot;
#X floatatom 1648 388 5 0 0 0 - - -, f 5;
#X obj 1694 317 inlet;
#X floatatom 1694 338 5 0 0 0 - - -, f 5;
#X obj 1692 362 spigot;
#X floatatom 1692 388 5 0 0 0 - - -, f 5;
#X obj 1744 316 inlet;
#X floatatom 1744 337 5 0 0 0 - - -, f 5;
#X obj 1742 361 spigot;
#X floatatom 1742 387 5 0 0 0 - - -, f 5;
#X obj 1795 317 inlet;
#X floatatom 1795 338 5 0 0 0 - - -, f 5;
#X obj 1793 362 spigot;
#X floatatom 1793 388 5 0 0 0 - - -, f 5;
#X obj 1843 316 inlet;
#X floatatom 1843 337 5 0 0 0 - - -, f 5;
#X obj 1841 361 spigot;
#X floatatom 1841 387 5 0 0 0 - - -, f 5;
#X obj 1889 316 inlet;
#X floatatom 1889 337 5 0 0 0 - - -, f 5;
#X obj 1887 361 spigot;
#X floatatom 1887 387 5 0 0 0 - - -, f 5;
#X obj 1939 315 inlet;
#X floatatom 1939 336 5 0 0 0 - - -, f 5;
#X obj 1937 360 spigot;
#X floatatom 1937 386 5 0 0 0 - - -, f 5;
#X obj 1991 315 inlet;
#X floatatom 1991 336 5 0 0 0 - - -, f 5;
#X obj 1989 360 spigot;
#X floatatom 1991 386 5 0 0 0 - - -, f 5;
#X obj 2041 314 inlet;
#X floatatom 2041 335 5 0 0 0 - - -, f 5;
#X obj 2039 359 spigot;
#X floatatom 2039 385 5 0 0 0 - - -, f 5;
#X obj 2085 314 inlet;
#X floatatom 2085 335 5 0 0 0 - - -, f 5;
#X obj 2083 359 spigot;
#X floatatom 2083 385 5 0 0 0 - - -, f 5;
#X obj 2135 313 inlet;
#X floatatom 2135 334 5 0 0 0 - - -, f 5;
#X obj 2133 358 spigot;
#X floatatom 2133 384 5 0 0 0 - - -, f 5;
#X obj 2186 314 inlet;
#X floatatom 2186 335 5 0 0 0 - - -, f 5;
#X obj 2184 359 spigot;
#X floatatom 2184 385 5 0 0 0 - - -, f 5;
#X obj 2236 313 inlet;
#X floatatom 2236 334 5 0 0 0 - - -, f 5;
#X obj 2234 358 spigot;
#X floatatom 2234 384 5 0 0 0 - - -, f 5;
#X obj 2280 313 inlet;
#X floatatom 2280 334 5 0 0 0 - - -, f 5;
#X obj 2278 358 spigot;
#X floatatom 2278 384 5 0 0 0 - - -, f 5;
#X obj 2330 312 inlet;
#X floatatom 2330 333 5 0 0 0 - - -, f 5;
#X obj 2328 357 spigot;
#X floatatom 2328 383 5 0 0 0 - - -, f 5;
#X text 348 171 progress;
#X obj 1747 203 outlet;
#X text 1745 187 progress fine;
#X obj 422 89 r bpm1;
#X obj 832 96 r bpm2;
#X obj 1360 105 r bpm4;
#X obj 631 148 tgl 15 0 empty empty empty 17 7 0 10 -262144 -1 -1 0
1;
#X obj 422 132 spigot;
#X obj 832 137 spigot;
#X obj 1360 140 spigot;
#X obj 631 89 spigot;
#X obj -141 68 tgl 15 0 empty empty empty 17 7 0 10 -262144 -1 -1 0
1;
#X obj 631 110 sel 0;
#X msg 630 68 1;
#X msg 663 68 0;
#X obj 630 129 bng 15 250 50 0 empty empty empty 17 7 0 10 -262144
-1 -1;
#X obj 2369 425 inlet;
#X floatatom -86 437 5 0 0 0 - - -, f 5;
#X text 2366 409 track;
#X text -86 417 track;
#X obj -112 278 clip-out, f 28;
#X obj -110 224 bng 15 250 50 0 empty empty empty 17 7 0 10 -262144
-1 -1;
#X obj -110 245 bng 15 250 50 0 empty empty empty 17 7 0 10 -262144
-1 -1;
#X obj -77 231 bng 15 250 50 0 empty empty empty 17 7 0 10 -262144
-1 -1;
#X obj -77 252 bng 15 250 50 0 empty empty empty 17 7 0 10 -262144
-1 -1;
#X obj 115 141 sel 0 1;
#X obj -48 232 bng 15 250 50 0 empty empty empty 17 7 0 10 -262144
-1 -1;
#X obj -48 253 bng 15 250 50 0 empty empty empty 17 7 0 10 -262144
-1 -1;
#X obj 2413 424 inlet;
#X text 2414 405 bank-on;
#X obj -24 50 tgl 15 0 empty empty empty 17 7 0 10 -262144 -1 -1 1
1;
#X text -35 10 bank-on;
#X obj -24 88 sel 1;
#X obj 52 238 bng 15 250 50 0 empty empty empty 17 7 0 10 -262144 -1
-1;
#X obj 52 258 bng 15 250 50 0 empty empty empty 17 7 0 10 -262144 -1
-1;
#X floatatom -24 70 5 0 0 0 - - -, f 5;
#X obj -24 126 delay 50;
#X obj 697 676 sel 1 2 3 4 5 6 7 8 9 10 11 12, f 42;
#X msg 526 766 \; kicks 1 \;;
#X msg 453 767 \; kicks 0 \;;
#X msg 603 765 \; kicks 2 \;;
#X msg 679 765 \; snares 1 \;;
#X msg 765 763 \; snares 2 \;;
#X msg 848 763 \; snares 3 \;;
#X msg 936 762 \; toms 0 \;;
#X msg 1008 763 \; toms 1 \;;
#X msg 1086 764 \; toms 2 \;;
#X msg 1159 765 \; hats 1 \;;
#X msg 1235 763 \; hats 2 \;;
#X msg 1315 762 \; hats 3 \;;
#X msg 618 187 16;
#X obj -24 146 s \$0-bank-on;
#X obj -110 150 r \$0-bank-on;
#X obj 3 108 s \$0-bank-off;
#X obj 52 216 r \$0-bank-off;
#X obj 115 183 s \$0-stop;
#X obj 134 164 s \$0-start;
#X obj -103 200 r \$0-stop;
#X obj -48 210 r \$0-start;
#X obj -141 88 s \$0-switch-in;
#X obj 630 46 r \$0-switch-in;
#X obj 631 168 s \$0-start-stop;
#X obj 116 119 r \$0-start-stop;
#X obj 2413 445 s \$0-bank-switch;
#X obj -23 28 r \$0-bank-switch;
#X obj -77 173 r \$0-switch-in;
#X connect 0 0 5 0;
#X connect 1 0 6 0;
#X connect 2 0 7 0;
#X connect 3 0 212 0;
#X connect 5 0 10 0;
#X connect 5 1 14 0;
#X connect 5 2 18 0;
#X connect 5 3 22 0;
#X connect 5 4 26 0;
#X connect 5 5 30 0;
#X connect 5 6 34 0;
#X connect 5 7 38 0;
#X connect 5 8 42 0;
#X connect 5 9 46 0;
#X connect 5 10 50 0;
#X connect 5 11 54 0;
#X connect 5 12 58 0;
#X connect 5 13 62 0;
#X connect 5 14 66 0;
#X connect 5 15 70 0;
#X connect 6 0 74 0;
#X connect 6 1 78 0;
#X connect 6 2 82 0;
#X connect 6 3 86 0;
#X connect 6 4 90 0;
#X connect 6 5 94 0;
#X connect 6 6 98 0;
#X connect 6 7 102 0;
#X connect 6 8 106 0;
#X connect 6 9 110 0;
#X connect 6 10 114 0;
#X connect 6 11 118 0;
#X connect 6 12 122 0;
#X connect 6 13 126 0;
#X connect 6 14 130 0;
#X connect 6 15 134 0;
#X connect 7 0 138 0;
#X connect 7 1 142 0;
#X connect 7 2 146 0;
#X connect 7 3 150 0;
#X connect 7 4 154 0;
#X connect 7 5 158 0;
#X connect 7 6 162 0;
#X connect 7 7 166 0;
#X connect 7 8 170 0;
#X connect 7 9 174 0;
#X connect 7 10 178 0;
#X connect 7 11 182 0;
#X connect 7 12 186 0;
#X connect 7 13 190 0;
#X connect 7 14 194 0;
#X connect 7 15 198 0;
#X connect 9 0 10 0;
#X connect 10 0 11 1;
#X connect 10 0 11 0;
#X connect 11 0 12 0;
#X connect 12 0 238 0;
#X connect 13 0 14 0;
#X connect 14 0 15 1;
#X connect 14 0 15 0;
#X connect 15 0 16 0;
#X connect 16 0 238 0;
#X connect 17 0 18 0;
#X connect 18 0 19 1;
#X connect 18 0 19 0;
#X connect 19 0 20 0;
#X connect 20 0 238 0;
#X connect 21 0 22 0;
#X connect 22 0 23 1;
#X connect 22 0 23 0;
#X connect 23 0 24 0;
#X connect 24 0 238 0;
#X connect 25 0 26 0;
#X connect 26 0 27 1;
#X connect 26 0 27 0;
#X connect 27 0 28 0;
#X connect 28 0 238 0;
#X connect 29 0 30 0;
#X connect 30 0 31 1;
#X connect 30 0 31 0;
#X connect 31 0 32 0;
#X connect 32 0 238 0;
#X connect 33 0 34 0;
#X connect 34 0 35 1;
#X connect 34 0 35 0;
#X connect 35 0 36 0;
#X connect 36 0 238 0;
#X connect 37 0 38 0;
#X connect 38 0 39 1;
#X connect 38 0 39 0;
#X connect 39 0 40 0;
#X connect 40 0 238 0;
#X connect 41 0 42 0;
#X connect 42 0 43 1;
#X connect 42 0 43 0;
#X connect 43 0 44 0;
#X connect 44 0 238 0;
#X connect 45 0 46 0;
#X connect 46 0 47 1;
#X connect 46 0 47 0;
#X connect 47 0 48 0;
#X connect 48 0 238 0;
#X connect 49 0 50 0;
#X connect 50 0 51 1;
#X connect 50 0 51 0;
#X connect 51 0 52 0;
#X connect 52 0 238 0;
#X connect 53 0 54 0;
#X connect 54 0 55 1;
#X connect 54 0 55 0;
#X connect 55 0 56 0;
#X connect 56 0 238 0;
#X connect 57 0 58 0;
#X connect 58 0 59 1;
#X connect 58 0 59 0;
#X connect 59 0 60 0;
#X connect 60 0 238 0;
#X connect 61 0 62 0;
#X connect 62 0 63 1;
#X connect 62 0 63 0;
#X connect 63 0 64 0;
#X connect 64 0 238 0;
#X connect 65 0 66 0;
#X connect 66 0 67 1;
#X connect 66 0 67 0;
#X connect 67 0 68 0;
#X connect 68 0 238 0;
#X connect 69 0 70 0;
#X connect 70 0 71 1;
#X connect 70 0 71 0;
#X connect 71 0 72 0;
#X connect 72 0 238 0;
#X connect 73 0 74 0;
#X connect 74 0 75 1;
#X connect 74 0 75 0;
#X connect 75 0 76 0;
#X connect 76 0 238 0;
#X connect 77 0 78 0;
#X connect 78 0 79 1;
#X connect 78 0 79 0;
#X connect 79 0 80 0;
#X connect 80 0 238 0;
#X connect 81 0 82 0;
#X connect 82 0 83 1;
#X connect 82 0 83 0;
#X connect 83 0 84 0;
#X connect 84 0 238 0;
#X connect 85 0 86 0;
#X connect 86 0 87 1;
#X connect 86 0 87 0;
#X connect 87 0 88 0;
#X connect 88 0 238 0;
#X connect 89 0 90 0;
#X connect 90 0 91 1;
#X connect 90 0 91 0;
#X connect 91 0 92 0;
#X connect 92 0 238 0;
#X connect 93 0 94 0;
#X connect 94 0 95 1;
#X connect 94 0 95 0;
#X connect 95 0 96 0;
#X connect 96 0 238 0;
#X connect 97 0 98 0;
#X connect 98 0 99 1;
#X connect 98 0 99 0;
#X connect 99 0 100 0;
#X connect 100 0 238 0;
#X connect 101 0 102 0;
#X connect 102 0 103 1;
#X connect 102 0 103 0;
#X connect 103 0 104 0;
#X connect 104 0 238 0;
#X connect 105 0 106 0;
#X connect 106 0 107 1;
#X connect 106 0 107 0;
#X connect 107 0 108 0;
#X connect 108 0 238 0;
#X connect 109 0 110 0;
#X connect 110 0 111 1;
#X connect 110 0 111 0;
#X connect 111 0 112 0;
#X connect 112 0 238 0;
#X connect 113 0 114 0;
#X connect 114 0 115 1;
#X connect 114 0 115 0;
#X connect 115 0 116 0;
#X connect 116 0 238 0;
#X connect 117 0 118 0;
#X connect 118 0 119 1;
#X connect 118 0 119 0;
#X connect 119 0 120 0;
#X connect 120 0 238 0;
#X connect 121 0 122 0;
#X connect 122 0 123 1;
#X connect 122 0 123 0;
#X connect 123 0 124 0;
#X connect 124 0 238 0;
#X connect 125 0 126 0;
#X connect 126 0 127 1;
#X connect 126 0 127 0;
#X connect 127 0 128 0;
#X connect 128 0 238 0;
#X connect 129 0 130 0;
#X connect 130 0 131 1;
#X connect 130 0 131 0;
#X connect 131 0 132 0;
#X connect 132 0 238 0;
#X connect 133 0 134 0;
#X connect 134 0 135 1;
#X connect 134 0 135 0;
#X connect 135 0 136 0;
#X connect 136 0 238 0;
#X connect 137 0 138 0;
#X connect 138 0 139 1;
#X connect 138 0 139 0;
#X connect 139 0 140 0;
#X connect 140 0 238 0;
#X connect 141 0 142 0;
#X connect 142 0 143 1;
#X connect 142 0 143 0;
#X connect 143 0 144 0;
#X connect 144 0 238 0;
#X connect 145 0 146 0;
#X connect 146 0 147 1;
#X connect 146 0 147 0;
#X connect 147 0 148 0;
#X connect 148 0 238 0;
#X connect 149 0 150 0;
#X connect 150 0 151 1;
#X connect 150 0 151 0;
#X connect 151 0 152 0;
#X connect 152 0 238 0;
#X connect 153 0 154 0;
#X connect 154 0 155 1;
#X connect 154 0 155 0;
#X connect 155 0 156 0;
#X connect 156 0 238 0;
#X connect 157 0 158 0;
#X connect 158 0 159 1;
#X connect 158 0 159 0;
#X connect 159 0 160 0;
#X connect 160 0 238 0;
#X connect 161 0 162 0;
#X connect 162 0 163 1;
#X connect 162 0 163 0;
#X connect 163 0 164 0;
#X connect 164 0 238 0;
#X connect 165 0 166 0;
#X connect 166 0 167 1;
#X connect 166 0 167 0;
#X connect 167 0 168 0;
#X connect 168 0 238 0;
#X connect 169 0 170 0;
#X connect 170 0 171 1;
#X connect 170 0 171 0;
#X connect 171 0 172 0;
#X connect 172 0 238 0;
#X connect 173 0 174 0;
#X connect 174 0 175 1;
#X connect 174 0 175 0;
#X connect 175 0 176 0;
#X connect 176 0 238 0;
#X connect 177 0 178 0;
#X connect 178 0 179 1;
#X connect 178 0 179 0;
#X connect 179 0 180 0;
#X connect 180 0 238 0;
#X connect 181 0 182 0;
#X connect 182 0 183 1;
#X connect 182 0 183 0;
#X connect 183 0 184 0;
#X connect 184 0 238 0;
#X connect 185 0 186 0;
#X connect 186 0 187 1;
#X connect 186 0 187 0;
#X connect 187 0 188 0;
#X connect 188 0 238 0;
#X connect 189 0 190 0;
#X connect 190 0 191 1;
#X connect 190 0 191 0;
#X connect 191 0 192 0;
#X connect 192 0 238 0;
#X connect 193 0 194 0;
#X connect 194 0 195 1;
#X connect 194 0 195 0;
#X connect 195 0 196 0;
#X connect 196 0 238 0;
#X connect 197 0 198 0;
#X connect 198 0 199 1;
#X connect 198 0 199 0;
#X connect 199 0 200 0;
#X connect 200 0 238 0;
#X connect 204 0 208 0;
#X connect 205 0 209 0;
#X connect 206 0 210 0;
#X connect 206 0 211 0;
#X connect 207 0 208 1;
#X connect 207 0 209 1;
#X connect 207 0 210 1;
#X connect 207 0 251 0;
#X connect 207 0 262 0;
#X connect 208 0 0 0;
#X connect 208 0 4 0;
#X connect 209 0 1 0;
#X connect 210 0 202 0;
#X connect 210 0 2 0;
#X connect 211 0 213 0;
#X connect 212 0 260 0;
#X connect 213 0 215 0;
#X connect 213 0 216 0;
#X connect 214 0 211 1;
#X connect 215 0 211 1;
#X connect 216 0 207 0;
#X connect 217 0 218 0;
#X connect 218 0 221 9;
#X connect 222 0 223 0;
#X connect 222 0 221 0;
#X connect 223 0 221 0;
#X connect 224 0 225 0;
#X connect 224 0 221 1;
#X connect 225 0 221 1;
#X connect 226 0 256 0;
#X connect 226 1 257 0;
#X connect 227 0 228 0;
#X connect 227 0 221 2;
#X connect 228 0 221 2;
#X connect 229 0 264 0;
#X connect 231 0 236 0;
#X connect 233 0 237 0;
#X connect 233 1 254 0;
#X connect 234 0 235 0;
#X connect 234 0 221 10;
#X connect 235 0 221 10;
#X connect 236 0 233 0;
#X connect 237 0 252 0;
#X connect 238 0 240 0;
#X connect 238 1 239 0;
#X connect 238 2 241 0;
#X connect 238 3 242 0;
#X connect 238 4 245 0;
#X connect 238 5 246 0;
#X connect 238 6 247 0;
#X connect 238 7 248 0;
#X connect 238 8 249 0;
#X connect 238 9 243 0;
#X connect 238 10 244 0;
#X connect 238 11 250 0;
#X connect 251 0 0 0;
#X connect 251 0 1 0;
#X connect 251 0 2 0;
#X connect 253 0 222 0;
#X connect 255 0 234 0;
#X connect 258 0 222 0;
#X connect 259 0 227 0;
#X connect 261 0 214 0;
#X connect 263 0 226 0;
#X connect 265 0 231 0;
#X connect 266 0 224 0;
