#N canvas 670 137 915 698 10;
#X obj 61 32 inlet;
#X floatatom 61 53 5 0 0 0 - - -, f 5;
#X msg 50 193 64;
#X msg 150 193 65;
#X msg 254 193 66;
#X msg 359 193 67;
#X msg 465 193 68;
#X msg 565 193 69;
#X msg 669 193 70;
#X msg 776 193 71;
#X obj 51 89 sel 0 1 2 3 4 5 6 7 8 9 10 11 12 13 14 15, f 137;
#X msg 81 193 0;
#X msg 111 193 1;
#X msg 181 193 0;
#X msg 213 193 1;
#X msg 286 193 0;
#X msg 319 193 1;
#X msg 393 193 0;
#X msg 428 193 1;
#X msg 496 193 0;
#X msg 534 193 1;
#X msg 600 193 0;
#X msg 634 193 1;
#X msg 706 193 0;
#X msg 742 193 1;
#X msg 812 193 0;
#X msg 847 193 1;
#X obj 361 386 noteout 1;
#X connect 0 0 1 0;
#X connect 1 0 10 0;
#X connect 2 0 27 0;
#X connect 3 0 27 0;
#X connect 4 0 27 0;
#X connect 5 0 27 0;
#X connect 6 0 27 0;
#X connect 7 0 27 0;
#X connect 8 0 27 0;
#X connect 9 0 27 0;
#X connect 10 0 2 0;
#X connect 10 0 11 0;
#X connect 10 1 2 0;
#X connect 10 1 12 0;
#X connect 10 2 3 0;
#X connect 10 2 13 0;
#X connect 10 3 3 0;
#X connect 10 3 14 0;
#X connect 10 4 4 0;
#X connect 10 4 15 0;
#X connect 10 5 4 0;
#X connect 10 5 16 0;
#X connect 10 6 5 0;
#X connect 10 6 17 0;
#X connect 10 7 5 0;
#X connect 10 7 18 0;
#X connect 10 8 6 0;
#X connect 10 8 19 0;
#X connect 10 9 6 0;
#X connect 10 9 20 0;
#X connect 10 10 7 0;
#X connect 10 10 21 0;
#X connect 10 11 7 0;
#X connect 10 11 22 0;
#X connect 10 12 8 0;
#X connect 10 12 23 0;
#X connect 10 13 8 0;
#X connect 10 13 24 0;
#X connect 10 14 9 0;
#X connect 10 14 25 0;
#X connect 10 15 9 0;
#X connect 10 15 26 0;
#X connect 11 0 27 1;
#X connect 12 0 27 1;
#X connect 13 0 27 1;
#X connect 14 0 27 1;
#X connect 15 0 27 1;
#X connect 16 0 27 1;
#X connect 17 0 27 1;
#X connect 18 0 27 1;
#X connect 19 0 27 1;
#X connect 20 0 27 1;
#X connect 21 0 27 1;
#X connect 22 0 27 1;
#X connect 23 0 27 1;
#X connect 24 0 27 1;
#X connect 25 0 27 1;
#X connect 26 0 27 1;
