#N canvas 670 137 915 698 10;
#X obj 61 32 inlet;
#X floatatom 61 53 5 0 0 0 - - -, f 5;
#X msg 50 193 64;
#X obj 50 240 noteout;
#X msg 81 193 1;
#X obj 151 240 noteout;
#X msg 181 193 1;
#X msg 150 193 65;
#X obj 255 240 noteout;
#X msg 286 193 1;
#X msg 254 193 66;
#X obj 360 240 noteout;
#X msg 393 193 1;
#X msg 359 193 67;
#X obj 614 373 notein;
#X floatatom 565 408 5 0 0 0 - - -, f 5;
#X floatatom 618 407 5 0 0 0 - - -, f 5;
#X floatatom 667 405 5 0 0 0 - - -, f 5;
#X msg 428 193 0;
#X msg 111 193 0;
#X msg 319 193 0;
#X msg 213 193 0;
#X obj 466 240 noteout;
#X msg 496 193 1;
#X obj 566 240 noteout;
#X msg 600 193 1;
#X obj 670 240 noteout;
#X msg 706 193 1;
#X obj 775 240 noteout;
#X msg 812 193 1;
#X msg 847 193 0;
#X msg 534 193 0;
#X msg 742 193 0;
#X msg 634 193 0;
#X msg 465 193 68;
#X msg 565 193 69;
#X msg 669 193 70;
#X msg 776 193 71;
#X obj 51 89 sel 0 1 2 3 4 5 6 7 8 9 10 11 12 13 14 15, f 137;
#X connect 0 0 1 0;
#X connect 1 0 38 0;
#X connect 2 0 3 0;
#X connect 4 0 3 1;
#X connect 6 0 5 1;
#X connect 7 0 5 0;
#X connect 9 0 8 1;
#X connect 10 0 8 0;
#X connect 12 0 11 1;
#X connect 13 0 11 0;
#X connect 14 0 15 0;
#X connect 14 1 16 0;
#X connect 14 2 17 0;
#X connect 18 0 11 1;
#X connect 19 0 3 1;
#X connect 20 0 8 1;
#X connect 21 0 5 1;
#X connect 23 0 22 1;
#X connect 25 0 24 1;
#X connect 27 0 26 1;
#X connect 29 0 28 1;
#X connect 30 0 28 1;
#X connect 31 0 22 1;
#X connect 32 0 26 1;
#X connect 33 0 24 1;
#X connect 34 0 22 0;
#X connect 35 0 24 0;
#X connect 36 0 26 0;
#X connect 37 0 28 0;
#X connect 38 0 2 0;
#X connect 38 0 4 0;
#X connect 38 1 2 0;
#X connect 38 1 19 0;
#X connect 38 2 7 0;
#X connect 38 2 6 0;
#X connect 38 3 7 0;
#X connect 38 3 21 0;
#X connect 38 4 10 0;
#X connect 38 4 9 0;
#X connect 38 5 10 0;
#X connect 38 5 20 0;
#X connect 38 6 13 0;
#X connect 38 6 12 0;
#X connect 38 7 13 0;
#X connect 38 7 18 0;
#X connect 38 8 34 0;
#X connect 38 8 23 0;
#X connect 38 9 34 0;
#X connect 38 9 31 0;
#X connect 38 10 35 0;
#X connect 38 10 25 0;
#X connect 38 11 35 0;
#X connect 38 11 33 0;
#X connect 38 12 36 0;
#X connect 38 12 27 0;
#X connect 38 13 36 0;
#X connect 38 13 32 0;
#X connect 38 14 37 0;
#X connect 38 14 29 0;
#X connect 38 15 37 0;
#X connect 38 15 30 0;
