#N canvas 209 0 602 988 10;
#X obj 61 149 *~;
#N canvas 1429 656 450 300 output-vol 0;
#X floatatom 132 63 5 0 0 0 - - -, f 5;
#X floatatom 169 75 5 0 0 0 - - -, f 5;
#X floatatom 206 69 5 0 0 0 - - -, f 5;
#X obj 163 31 ctlin;
#X obj 132 83 / 100;
#X obj 94 136 spigot;
#X floatatom 94 157 5 0 0 0 - - -, f 5;
#X msg 169 116 1;
#X obj 169 137 delay 100;
#X msg 169 158 0;
#X obj 94 177 outlet;
#X obj 169 95 sel 56;
#X connect 0 0 4 0;
#X connect 1 0 11 0;
#X connect 3 0 0 0;
#X connect 3 1 1 0;
#X connect 3 2 2 0;
#X connect 4 0 5 0;
#X connect 5 0 6 0;
#X connect 6 0 10 0;
#X connect 7 0 5 1;
#X connect 7 0 8 0;
#X connect 8 0 9 0;
#X connect 9 0 5 1;
#X connect 11 0 7 0;
#X restore 195 80 pd output-vol;
#X obj 61 170 dac~;
#X obj 193 27 loadbang;
#X msg 193 48 0;
#N canvas 1462 0 450 300 reverb 0;
#X obj 138 153 rev1~, f 19;
#X obj 138 111 inlet~;
#X obj 139 183 outlet~;
#X obj 321 155 bng 15 250 50 0 empty empty empty 17 7 0 10 -262144
-1 -1;
#X obj 343 92 vsl 15 128 0 0.3 0 0 empty empty empty 0 -9 0 10 -262144
-1 -1 0 1;
#N canvas 0 50 450 300 reverb-vol 0;
#X floatatom 132 63 5 0 0 0 - - -, f 5;
#X floatatom 169 75 5 0 0 0 - - -, f 5;
#X floatatom 206 69 5 0 0 0 - - -, f 5;
#X obj 163 31 ctlin;
#X obj 132 83 / 100;
#X obj 94 136 spigot;
#X floatatom 94 157 5 0 0 0 - - -, f 5;
#X msg 169 130 1;
#X obj 169 151 delay 100;
#X msg 169 172 0;
#X obj 94 177 outlet;
#X obj 169 95 sel 48;
#X connect 0 0 4 0;
#X connect 1 0 11 0;
#X connect 3 0 0 0;
#X connect 3 1 1 0;
#X connect 3 2 2 0;
#X connect 4 0 5 0;
#X connect 5 0 6 0;
#X connect 6 0 10 0;
#X connect 7 0 5 1;
#X connect 7 0 8 0;
#X connect 8 0 9 0;
#X connect 9 0 5 1;
#X connect 11 0 7 0;
#X restore 227 79 pd reverb-vol;
#X connect 0 0 2 0;
#X connect 1 0 0 0;
#X connect 3 0 0 2;
#X connect 4 0 0 1;
#X connect 5 0 4 0;
#X restore 93 107 pd reverb;
#X obj 33 12 r~ guitar;
#X obj 60 34 r~ loops;
#X obj 81 72 r~ drums;
#X connect 0 0 2 0;
#X connect 0 0 2 1;
#X connect 1 0 0 1;
#X connect 3 0 4 0;
#X connect 4 0 0 1;
#X connect 5 0 0 0;
#X connect 6 0 0 0;
#X connect 7 0 0 0;
#X connect 8 0 5 0;
#X connect 8 0 0 0;
