#N canvas 0 50 450 618 10;
#X obj 82 100 inlet;
#X text 82 83 name;
#X obj 82 121 symbol;
#X obj 82 142 pack s;
#X msg 22 255 \; \$1d101 0 \; \$1d102 0 \; \$1d103 0 \; \$1d104 0 \;
\$1d105 0 \; \$1d106 0 \; \$1d107 0 \; \$1d108 0 \; \$1d109 0 \; \$1d110
0 \; \$1d111 0 \; \$1d112 0 \; \$1d113 0 \; \$1d114 0 \; \$1d115 0
\; \$1d116 0 \;;
#X msg 128 254 \; \$1d201 0 \; \$1d202 0 \; \$1d203 0 \; \$1d204 0
\; \$1d205 0 \; \$1d206 0 \; \$1d207 0 \; \$1d208 0 \; \$1d209 0 \;
\$1d210 0 \; \$1d211 0 \; \$1d212 0 \; \$1d213 0 \; \$1d214 0 \; \$1d215
0 \; \$1d216 0 \;;
#X msg 227 254 \; \$1d401 0 \; \$1d402 0 \; \$1d403 0 \; \$1d404 0
\; \$1d405 0 \; \$1d406 0 \; \$1d407 0 \; \$1d408 0 \; \$1d409 0 \;
\$1d410 0 \; \$1d411 0 \; \$1d412 0 \; \$1d413 0 \; \$1d414 0 \; \$1d415
0 \; \$1d416 0 \;;
#X connect 0 0 2 0;
#X connect 2 0 3 0;
#X connect 3 0 6 0;
#X connect 3 0 4 0;
#X connect 3 0 5 0;
