#N canvas 533 243 631 558 10;
#X obj 82 358 *~;
#X obj 205 295 line~;
#X floatatom 351 146 0 0 0 0 - - -;
#X obj 205 269 pack 0 200;
#X obj 19 61 r transpose;
#X obj 19 143 exp;
#X floatatom 19 169 6 0 0 0 - - -, f 6;
#X obj 19 259 /;
#X obj 146 189 * 0.001;
#X obj 314 365 line~;
#X obj 314 340 pack 0 200;
#X floatatom 314 289 0 0 0 0 - - -;
#X obj 82 384 +~;
#X obj 19 410 cos~;
#X obj 19 437 *~;
#X obj 19 466 +~;
#X obj 106 317 wrap~;
#X obj 251 360 *~;
#X obj 251 393 +~;
#X obj 188 420 cos~;
#X obj 188 447 *~;
#X obj 146 216 t b f;
#X floatatom 19 285 6 0 0 0 - - -, f 6;
#X obj 106 290 +~ 0.5;
#X obj 19 358 -~ 0.5;
#X obj 19 384 *~ 0.5;
#X obj 188 359 -~ 0.5;
#X obj 188 392 *~ 0.5;
#X obj 19 196 - 1;
#X obj 19 117 * 0.05776;
#X obj 19 222 * -1;
#X text 78 86 <-- transposition;
#X text 121 99 (halftones);
#X text 82 163 speed;
#X text 81 177 change;
#X text 384 128 <--window (msec);
#X text 54 252 tape head;
#X obj 19 316 phasor~;
#X obj 314 316 max 1.5;
#X text 349 212 delay;
#X text 346 230 (msec);
#X obj 351 173 max 1;
#X text 55 265 rotation freq;
#X obj 332 21 inlet~;
#X obj 19 487 outlet~;
#X obj 207 16 notein 1;
#X floatatom 207 37 5 0 0 0 - - -, f 5;
#X obj 207 78 spigot;
#X floatatom 268 2 5 0 0 0 - - -, f 5;
#X obj 268 36 sel 127;
#X msg 268 57 1;
#X msg 302 57 0;
#X obj 207 99 tgl 15 0 empty empty empty 17 7 0 10 -262144 -1 -1 0
1;
#X obj 207 119 sel 1 0;
#X msg 207 140 -12;
#X msg 240 139 0;
#X floatatom 19 82 5 0 0 0 - - -, f 5;
#X obj 351 103 loadbang;
#X obj 207 57 sel 63 55;
#X obj 271 79 spigot;
#X obj 271 100 tgl 15 0 empty empty empty 17 7 0 10 -262144 -1 -1 0
1;
#X obj 271 120 sel 1 0;
#X msg 304 140 0;
#X msg 271 141 -24;
#X msg 351 124 127;
#X obj 348 55 delwrite~ \$0-del 5000;
#X obj 251 422 vd~ \$0-del;
#X obj 82 410 vd~ \$0-del;
#X connect 0 0 12 0;
#X connect 1 0 0 1;
#X connect 1 0 17 1;
#X connect 2 0 41 0;
#X connect 3 0 1 0;
#X connect 4 0 56 0;
#X connect 5 0 6 0;
#X connect 6 0 28 0;
#X connect 7 0 22 0;
#X connect 8 0 21 0;
#X connect 9 0 12 1;
#X connect 9 0 18 1;
#X connect 10 0 9 0;
#X connect 11 0 38 0;
#X connect 12 0 67 0;
#X connect 13 0 14 0;
#X connect 14 0 15 0;
#X connect 15 0 44 0;
#X connect 16 0 17 0;
#X connect 16 0 26 0;
#X connect 17 0 18 0;
#X connect 18 0 66 0;
#X connect 19 0 20 0;
#X connect 20 0 15 1;
#X connect 21 0 7 0;
#X connect 21 1 7 1;
#X connect 22 0 37 0;
#X connect 23 0 16 0;
#X connect 24 0 25 0;
#X connect 25 0 13 0;
#X connect 26 0 27 0;
#X connect 27 0 19 0;
#X connect 28 0 30 0;
#X connect 29 0 5 0;
#X connect 30 0 7 0;
#X connect 37 0 0 0;
#X connect 37 0 24 0;
#X connect 37 0 23 0;
#X connect 38 0 10 0;
#X connect 41 0 8 0;
#X connect 41 0 3 0;
#X connect 43 0 65 0;
#X connect 45 0 46 0;
#X connect 45 1 48 0;
#X connect 45 1 49 0;
#X connect 46 0 58 0;
#X connect 47 0 52 0;
#X connect 49 0 50 0;
#X connect 49 1 51 0;
#X connect 50 0 47 1;
#X connect 50 0 59 1;
#X connect 51 0 47 1;
#X connect 51 0 59 1;
#X connect 52 0 53 0;
#X connect 53 0 54 0;
#X connect 53 1 55 0;
#X connect 54 0 56 0;
#X connect 55 0 56 0;
#X connect 56 0 29 0;
#X connect 57 0 64 0;
#X connect 58 0 47 0;
#X connect 58 1 59 0;
#X connect 59 0 60 0;
#X connect 60 0 61 0;
#X connect 61 0 63 0;
#X connect 61 1 62 0;
#X connect 63 0 56 0;
#X connect 64 0 2 0;
#X connect 66 0 20 1;
#X connect 67 0 14 1;
