#N canvas 0 0 519 612 10;
#X obj 211 301 vline~;
#X obj 197 516 *~;
#X obj 165 348 cos~;
#X obj 181 218 t f f;
#X obj 165 328 *~;
#X obj 196 543 outlet~;
#X obj 252 590 switch~;
#X obj 252 542 env~;
#X obj 252 566 > 0.1;
#X msg 315 276 1;
#X obj 215 142 t b b b;
#X obj 215 88 inlet;
#X text 353 549 ajf;
#X obj 211 359 *~;
#X obj 197 493 cos~;
#X obj 167 565 s~ \$0-fb;
#X obj 100 350 r~ \$0-fb;
#X obj 150 399 +~;
#X obj 99 426 *~;
#X obj 212 384 *~;
#X obj 151 374 sig~ 5;
#X obj 181 244 /;
#X msg 211 279 1 0 0 \, 0 \$1 3;
#X text 317 527 efficient snare drum;
#X obj 215 113 sel 1;
#X obj 135 167 del 5;
#X msg 237 196 4;
#X msg 181 192 60;
#X msg 135 192 60;
#X connect 0 0 4 0;
#X connect 0 0 13 0;
#X connect 0 0 13 1;
#X connect 1 0 5 0;
#X connect 1 0 7 0;
#X connect 1 0 15 0;
#X connect 2 0 17 1;
#X connect 3 0 21 0;
#X connect 3 1 22 0;
#X connect 4 0 2 0;
#X connect 7 0 8 0;
#X connect 8 0 6 0;
#X connect 9 0 6 0;
#X connect 10 0 25 0;
#X connect 10 1 26 0;
#X connect 10 2 9 0;
#X connect 11 0 24 0;
#X connect 13 0 19 0;
#X connect 13 0 19 1;
#X connect 14 0 1 0;
#X connect 16 0 18 0;
#X connect 17 0 18 1;
#X connect 18 0 14 0;
#X connect 19 0 1 1;
#X connect 20 0 17 0;
#X connect 21 0 4 1;
#X connect 22 0 0 0;
#X connect 24 0 10 0;
#X connect 25 0 28 0;
#X connect 25 0 27 0;
#X connect 26 0 21 1;
#X connect 27 0 3 0;
#X connect 28 0 3 0;
