#N canvas 160 24 657 706 10;
#X obj 211 301 vline~;
#X obj 165 434 *~;
#X obj 165 409 cos~;
#X obj 164 385 *~;
#X obj 164 362 *~;
#X obj 181 218 t f f;
#X obj 165 338 *~;
#X obj 233 53 sel 0 1 2;
#X obj 164 461 outlet~;
#X obj 220 508 switch~;
#X obj 220 460 env~;
#X obj 220 484 > 0.1;
#X msg 360 197 1;
#X obj 290 85 t b b b;
#X obj 252 112 t b b b;
#X obj 201 158 t b b b;
#X obj 233 26 inlet;
#X text 284 445 efficient kick drum;
#X text 321 467 ajf;
#X obj 65 471 *~ 0.5;
#X obj 66 503 dac~;
#X msg 181 194 120;
#X msg 211 279 0.5 0 0 \, 0 \$1 0;
#X obj 180 275 / 29;
#X msg 312 196 15;
#X msg 274 196 12;
#X msg 237 196 20;
#X connect 0 0 1 1;
#X connect 0 0 6 0;
#X connect 0 0 3 1;
#X connect 1 0 8 0;
#X connect 1 0 10 0;
#X connect 1 0 19 0;
#X connect 2 0 1 0;
#X connect 3 0 2 0;
#X connect 4 0 3 0;
#X connect 5 0 23 0;
#X connect 5 1 22 0;
#X connect 6 0 4 1;
#X connect 6 0 4 0;
#X connect 7 0 15 0;
#X connect 7 1 14 0;
#X connect 7 2 13 0;
#X connect 10 0 11 0;
#X connect 11 0 9 0;
#X connect 12 0 9 0;
#X connect 13 0 21 0;
#X connect 13 1 24 0;
#X connect 13 2 12 0;
#X connect 14 0 21 0;
#X connect 14 1 25 0;
#X connect 14 2 12 0;
#X connect 15 0 21 0;
#X connect 15 1 26 0;
#X connect 15 2 12 0;
#X connect 16 0 7 0;
#X connect 19 0 20 0;
#X connect 21 0 5 0;
#X connect 22 0 0 0;
#X connect 23 0 6 1;
#X connect 24 0 23 1;
#X connect 25 0 23 1;
#X connect 26 0 23 1;
